<?xml version="1.0" standalone="no"?>
<!DOCTYPE svg PUBLIC "-//W3C//DTD SVG 1.1//EN" "http://www.w3.org/Graphics/SVG/1.1/DTD/svg11.dtd" >
<svg>
<metadata>
Created by FontForge 20090914 at Tue Sep 22 07:39:57 2015
 By www-data
&#194;&#169; 2005 Microsoft Corporation. All Rights Reserved.
</metadata>
<defs>
<font id="SegoeUI-Italic" horiz-adv-x="1111" >
  <font-face 
    font-family="Segoe UI"
    font-weight="400"
    font-style="italic"
    font-stretch="normal"
    units-per-em="2048"
    panose-1="2 11 5 2 4 2 4 9 2 3"
    ascent="1638"
    descent="-410"
    x-height="1024"
    cap-height="1434"
    bbox="-937 -514 2743 2150"
    underline-thickness="119"
    underline-position="-119"
    slope="-12"
    unicode-range="U+000D-U+FE23"
  />
<missing-glyph horiz-adv-x="1322" 
d="M166 0v1398h990v-1398h-990zM314 148h694v1102h-694v-1102z" />
    <glyph glyph-name=".notdef" horiz-adv-x="1322" 
d="M166 0v1398h990v-1398h-990zM314 148h694v1102h-694v-1102z" />
    <glyph glyph-name="null" unicode="&#xd;" horiz-adv-x="0" 
 />
    <glyph glyph-name="space" unicode=" " horiz-adv-x="563" 
 />
    <glyph glyph-name="exclam" unicode="!" horiz-adv-x="653" 
d="M367 403h-136l201 1031h172zM354 92c0 -15.333 -3 -29.666 -9 -42.999s-14 -25 -24 -35s-21.667 -17.833 -35 -23.5s-27.333 -8.5 -42 -8.5c-15.333 0 -29.833 2.83301 -43.5 8.5s-25.5 13.5 -35.5 23.5s-17.833 21.667 -23.5 35s-8.5 27.666 -8.5 42.999
s2.83301 29.833 8.5 43.5s13.5 25.5 23.5 35.5s21.833 17.833 35.5 23.5s28.167 8.5 43.5 8.5c14.667 0 28.667 -2.83301 42 -8.5s25 -13.5 35 -23.5s18 -21.833 24 -35.5s9 -28.167 9 -43.5z" />
    <glyph glyph-name="quotedbl" unicode="&#x22;" horiz-adv-x="766" 
d="M684 987h-119l-8 447h137zM401 987h-116l-11 447h138z" />
    <glyph glyph-name="numbersign" unicode="#" horiz-adv-x="1210" 
d="M1202 926h-260l-63 -299h280l-26 -107h-275l-88 -397h-127l86 397h-250l-84 -397h-125l84 397h-262l21 107h264l61 297h-276l20 108h277l84 402h127l-82 -402h250l86 402h123l-82 -402h260zM565 926l-65 -299h254l63 299h-252z" />
    <glyph glyph-name="dollar" unicode="$" horiz-adv-x="1104" 
d="M1018 1233c-14 8 -30.332 16.1748 -48.999 24.5078s-38.834 16.166 -60.501 23.499s-44 13.666 -67 18.999s-45.5 9 -67.5 11l-119 -553c35.333 -26 69.666 -52.667 102.999 -80s62.833 -56.166 88.5 -86.499s46.334 -62.833 62.001 -97.5s23.5 -72.334 23.5 -113.001
c0 -44.667 -7.33301 -89.834 -22 -135.501s-39.167 -87.334 -73.5 -125.001s-79.666 -69.167 -135.999 -94.5s-125.833 -39.333 -208.5 -42l-43 -193h-103l41 195c-28 1.33301 -57.333 4.66602 -88 9.99902s-60 11.666 -88 18.999s-54 15.166 -78 23.499
s-43.667 16.5 -59 24.5l28 162c18.667 -12 40.5 -23.667 65.5 -35s51.5 -21.666 79.5 -30.999s56.333 -17.333 85 -24s56 -11.334 82 -14.001l114 530c-40.667 29.333 -78.334 58.166 -113.001 86.499s-64.5 58.333 -89.5 90s-44.5 66.5 -58.5 104.5s-21 81 -21 129
c0 54.667 10.833 105.5 32.5 152.5s52.167 87.833 91.5 122.5s86.833 62.167 142.5 82.5s117.5 30.833 185.5 31.5l35 166h105l-37 -170c46 -3.33301 91 -11 135 -23s81 -24.333 111 -37zM668.001 1313.01c-42 -2.66699 -78.8311 -11.335 -110.498 -26.002
s-58.167 -33.5 -79.5 -56.5s-37.333 -48.833 -48 -77.5s-16 -58 -16 -88c0 -25.333 3.66699 -49 11 -71s17.666 -42.667 30.999 -62s29.166 -37.666 47.499 -54.999s38.833 -34.666 61.5 -51.999zM764.003 365.007c0 19.333 -2.66602 37.832 -7.99902 55.499
s-13.666 35.334 -24.999 53.001s-26.333 35.667 -45 54s-41.334 37.833 -68.001 58.5l-96 -465c43.333 3.33301 80.166 12.5 110.499 27.5s55.333 33.667 75 56s34 47.333 43 75s13.5 56.167 13.5 85.5z" />
    <glyph glyph-name="percent" unicode="%" horiz-adv-x="1686" 
d="M1591 428c0 -56 -9.33398 -110.833 -28.001 -164.5s-44.834 -101.5 -78.501 -143.5s-74.334 -75.833 -122.001 -101.5s-100.5 -38.5 -158.5 -38.5s-105.833 9.83301 -143.5 29.5s-67.5 44.167 -89.5 73.5s-37.167 61.333 -45.5 96s-12.5 67 -12.5 97
c0 54 9.33301 107.5 28 160.5s45.167 100.667 79.5 143s75.833 76.5 124.5 102.5s103.334 39 164.001 39c42.667 0 81.334 -6.5 116.001 -19.5s64.334 -32 89.001 -57s43.667 -55.667 57 -92s20 -77.833 20 -124.5zM337.999 0h-148l1229 1434h148zM847.999 1161
c0 -56 -9.33496 -110.833 -28.002 -164.5s-45 -101.5 -79 -143.5s-74.667 -75.833 -122 -101.5s-100 -38.5 -158 -38.5c-38.667 0 -72.834 4.5 -102.501 13.5s-55.334 21.333 -77.001 37s-39.667 33.5 -54 53.5s-25.666 41 -33.999 63s-14.333 44.167 -18 66.5
s-5.5 43.5 -5.5 63.5c0 36 4.16699 71.833 12.5 107.5s20.5 70 36.5 103s35.5 63.667 58.5 92s49 53 78 74s61.167 37.5 96.5 49.5s73 18 113 18c42.667 0 81.334 -6.5 116.001 -19.5s64.334 -32 89.001 -57s43.834 -55.667 57.501 -92s20.5 -77.833 20.5 -124.5zM1456 424
c0 24 -2.66602 47.168 -7.99902 69.501s-14 42.166 -26 59.499s-27.667 31.166 -47 41.499s-42.666 15.5 -69.999 15.5c-40.667 0 -76.834 -10.667 -108.501 -32s-58.5 -48.5 -80.5 -81.5s-38.667 -69.167 -50 -108.5s-17 -77.333 -17 -114c0 -23.333 3 -46.166 9 -68.499
s15.333 -42 28 -59s29 -30.667 49 -41s44.333 -15.5 73 -15.5c37.333 0 71.166 9.5 101.499 28.5s56.333 44 78 75s38.5 66.5 50.5 106.5s18 81.333 18 124zM712.998 1157c0 24 -2.66602 47.1699 -7.99902 69.5029s-14 42.166 -26 59.499s-27.667 31.166 -47 41.499
s-43 15.5 -71 15.5c-40.667 0 -76.834 -10.667 -108.501 -32s-58.5 -48.333 -80.5 -81s-38.667 -68.834 -50 -108.501s-17 -77.5 -17 -113.5c0 -23.333 3 -46 9 -68s15.333 -41.667 28 -59s29.167 -31.333 49.5 -42s44.833 -16 73.5 -16c36.667 0 70.167 9.5 100.5 28.5
s56.5 44 78.5 75s39 66.5 51 106.5s18 81.333 18 124z" />
    <glyph glyph-name="ampersand" unicode="&#x26;" horiz-adv-x="1576" 
d="M1336 -23c-38 0 -71.6748 5.66797 -101.008 17.001s-56 27.333 -80 48s-45.833 45.334 -65.5 74.001s-38.5 60.334 -56.5 95.001c-33.333 -30 -69.666 -59.167 -108.999 -87.5s-82 -53.333 -128 -75s-95.5 -39 -148.5 -52s-110.167 -19.5 -171.5 -19.5
c-68.667 0 -129.5 9.5 -182.5 28.5s-97.5 45.167 -133.5 78.5s-63.167 72.666 -81.5 117.999s-27.5 94.666 -27.5 147.999c0 61.333 10.667 116.833 32 166.5s51.333 94.334 90 134.001s84.834 75.167 138.501 106.5s112.834 59.333 177.501 84
c-14 12 -28.167 26.833 -42.5 44.5s-27.166 37.5 -38.499 59.5s-20.666 45.833 -27.999 71.5s-11 52.834 -11 81.501c0 56 11.167 106.167 33.5 150.5s52.5 82 90.5 113s82.167 54.833 132.5 71.5s103.5 25 159.5 25c50 0 95.667 -6.83301 137 -20.5
s76.833 -32.5 106.5 -56.5s52.667 -52.333 69 -85s24.5 -68.334 24.5 -107.001c0 -50 -8 -93.5 -24 -130.5s-39.167 -69.833 -69.5 -98.5s-67 -54.334 -110 -77.001s-91.5 -44.667 -145.5 -66c39.333 -20.667 74.833 -44.834 106.5 -72.501s60.334 -57.5 86.001 -89.5
s48.834 -65.5 69.501 -100.5s39.334 -70.5 56.001 -106.5c91.333 97.333 160.666 201.5 207.999 312.5s73.666 231.167 78.999 360.5h159c-2.66699 -79.333 -14.667 -156 -36 -230s-49.5 -144.833 -84.5 -212.5s-75.5 -132 -121.5 -193s-94.667 -118.167 -146 -171.5
c16 -32 31.333 -59.667 46 -83s30 -42.5 46 -57.5s33.667 -26.167 53 -33.5s41.333 -11 66 -11c20 0 40.667 2.33301 62 7s44.333 11.667 69 21l-33 -155c-15.333 -7.33301 -33.166 -13.333 -53.499 -18s-43.166 -7 -68.499 -7zM483.992 119.001
c52.667 0 101.833 6 147.5 18s88.834 28.167 129.501 48.5s78.834 44 114.501 71s69.834 55.167 102.501 84.5c-24 56.667 -48.333 106.167 -73 148.5s-51.334 79.833 -80.001 112.5s-60.334 61.5 -95.001 86.5s-74 47.833 -118 68.5c-48 -16 -95.333 -35.167 -142 -57.5
s-88.334 -49.333 -125.001 -81s-66.167 -68.667 -88.5 -111s-33.5 -91.5 -33.5 -147.5c0 -37.333 6.16699 -70.833 18.5 -100.5s30 -55 53 -76s50.5 -37 82.5 -48s67.667 -16.5 107 -16.5zM962.991 1169c0 25.333 -5.00098 47.666 -15.001 66.999s-23.5 35.833 -40.5 49.5
s-36.833 24 -59.5 31s-46.667 10.5 -72 10.5c-38 0 -72.333 -5.66699 -103 -17s-56.667 -27.166 -78 -47.499s-37.833 -44.333 -49.5 -72s-17.5 -57.5 -17.5 -89.5c0 -47.333 11.5 -88.833 34.5 -124.5s51.5 -63.167 85.5 -82.5c40.667 14 79.834 29.167 117.501 45.5
s71.167 35.333 100.5 57s52.833 46.5 70.5 74.5s26.5 60.667 26.5 98z" />
    <glyph glyph-name="quotesingle" unicode="'" horiz-adv-x="463" 
d="M393 987h-114l-11 447h135z" />
    <glyph glyph-name="parenleft" unicode="(" horiz-adv-x="623" 
d="M813 1434c-82.667 -81.333 -157.167 -165.333 -223.5 -252s-122.833 -176.334 -169.5 -269.001s-82.667 -188.834 -108 -288.501s-38 -203.5 -38 -311.5c0 -53.333 3.5 -107.166 10.5 -161.499s17.5 -107.666 31.5 -159.999s31 -103.166 51 -152.499s43 -95.333 69 -138
h-141c-28 44 -52.5 90.833 -73.5 140.5s-38.5 100.5 -52.5 152.5s-24.5 104.333 -31.5 157s-10.5 104 -10.5 154c0 115.333 12.333 224.166 37 326.499s59.667 199.833 105 292.5s100.5 181.167 165.5 265.5s137.833 165.833 218.5 244.5h160z" />
    <glyph glyph-name="parenright" unicode=")" horiz-adv-x="623" 
d="M504 829c0 -114.667 -12.334 -223.333 -37.001 -326s-59.834 -200.167 -105.501 -292.5s-101 -180.666 -166 -264.999s-137.833 -165.833 -218.5 -244.5h-161c82.667 81.333 157.334 165.166 224.001 251.499s123.334 175.833 170.001 268.5s82.667 188.834 108 288.501
s38 203.5 38 311.5c0 53.333 -3.5 107 -10.5 161s-17.333 107.333 -31 160s-30.5 103.667 -50.5 153s-43 95.666 -69 138.999h139c28 -44.667 52.667 -92 74 -142s39 -101 53 -153s24.667 -104.167 32 -156.5s11 -103.5 11 -153.5z" />
    <glyph glyph-name="asterisk" unicode="*" horiz-adv-x="856" 
d="M600 1049l191 -244l-111 -76l-156 264l-157 -264l-111 76l193 244l-277 55l43 125l262 -99l-22 304h137l-23 -304l262 99l43 -125z" />
    <glyph glyph-name="plus" unicode="+" horiz-adv-x="1403" 
d="M793 530v-403h-131v403h-406v134h406v403h131v-403h403v-134h-403z" />
    <glyph glyph-name="comma" unicode="," horiz-adv-x="446" 
d="M51 -264h-129l201 491h164z" />
    <glyph glyph-name="hyphen" unicode="-" horiz-adv-x="819" 
d="M678 506h-547l29 129h547z" />
    <glyph glyph-name="period" unicode="." horiz-adv-x="446" 
d="M244 88c0 -15.333 -2.83301 -29.666 -8.5 -42.999s-13.5 -25 -23.5 -35s-21.833 -18 -35.5 -24s-28.167 -9 -43.5 -9s-29.666 3 -42.999 9s-25 14 -35 24s-17.833 21.667 -23.5 35s-8.5 27.666 -8.5 42.999s2.83301 29.833 8.5 43.5s13.5 25.5 23.5 35.5
s21.667 17.833 35 23.5s27.666 8.5 42.999 8.5s29.833 -2.83301 43.5 -8.5s25.5 -13.5 35.5 -23.5s17.833 -21.833 23.5 -35.5s8.5 -28.167 8.5 -43.5z" />
    <glyph glyph-name="slash" unicode="/" horiz-adv-x="811" 
d="M4 -238h-168l1041 1672h167z" />
    <glyph glyph-name="zero" unicode="0" horiz-adv-x="1104" 
d="M1098 1034c0 -50 -2.33398 -102.169 -7.00098 -156.502s-12 -109.166 -22 -164.499s-22.833 -110.166 -38.5 -164.499s-34.5 -106.833 -56.5 -157.5s-47.167 -98.5 -75.5 -143.5s-60.166 -85.833 -95.499 -122.5c-96 -100 -211.333 -150 -346 -150
c-54 0 -103.5 10.5 -148.5 31.5s-83.5 51.667 -115.5 92s-56.833 90 -74.5 149s-26.5 126.833 -26.5 203.5c0 74 6 150.5 18 229.5s30.333 156 55 231s55.334 145.833 92.001 212.5s80 125.334 130 176.001c47.333 50 100.333 88.833 159 116.5s125 41.5 199 41.5
c53.333 0 101.666 -9 144.999 -27s80.5 -44.833 111.5 -80.5s54.833 -79.834 71.5 -132.501s25 -114 25 -184zM931.999 1020c0 93.333 -17.333 166.5 -52 219.5s-85 79.5 -151 79.5c-39.333 0 -76.333 -8.5 -111 -25.5s-68.667 -42.5 -102 -76.5
c-26 -27.333 -50.5 -59.833 -73.5 -97.5s-44 -78.334 -63 -122.001s-35.833 -89.5 -50.5 -137.5s-27.167 -96 -37.5 -144s-18.166 -95 -23.499 -141s-8 -89 -8 -129c0 -58 5.5 -107.833 16.5 -149.5s26.167 -76 45.5 -103s42.166 -46.833 68.499 -59.5s54.5 -19 84.5 -19
c36 0 71.333 8 106 24s67 40 97 72c35.333 38 68.333 87.167 99 147.5s57.5 126.833 80.5 199.5s41.167 148.834 54.5 228.501s20 157.5 20 233.5z" />
    <glyph glyph-name="one" unicode="1" horiz-adv-x="1104" 
d="M51 0l33 143h324l235 1106l-354 -96l35 158l526 147l-281 -1315h324l-31 -143h-811z" />
    <glyph glyph-name="two" unicode="2" horiz-adv-x="1104" 
d="M1100 1130c0 -57.333 -9.83496 -111.499 -29.502 -162.499s-48 -101.333 -85 -151s-81.833 -99.5 -134.5 -149.5s-112.334 -102.333 -179.001 -157l-439 -358v-5h654l-31 -147h-866l30 143l560 469c60 50.667 112 96.834 156 138.501s80.5 81.667 109.5 120
s50.667 76.666 65 114.999s21.5 79.833 21.5 124.5c0 28 -4.66699 54.667 -14 80s-23.833 47.5 -43.5 66.5s-44.667 34.167 -75 45.5s-66.166 17 -107.499 17c-30 0 -61.167 -3.66699 -93.5 -11s-64.666 -17.333 -96.999 -30s-63.666 -27 -93.999 -43
s-58.166 -33 -83.499 -51l38 178c19.333 10.667 41.5 21.667 66.5 33s52.667 21.666 83 30.999s62.833 17 97.5 23s70.667 9 108 9c67.333 0 125.166 -9 173.499 -27s88 -42 119 -72s53.833 -64.833 68.5 -104.5s22 -81.167 22 -124.5z" />
    <glyph glyph-name="three" unicode="3" horiz-adv-x="1104" 
d="M1051 1137c0 -48 -7.3291 -93.5078 -21.9961 -136.508s-37.667 -81.833 -69 -116.5s-71.333 -64.5 -120 -89.5s-106.667 -43.5 -174 -55.5v-4c40 -6 76.667 -18 110 -36s61.833 -40.667 85.5 -68s42 -58.666 55 -93.999s19.5 -73.666 19.5 -114.999
c0 -60.667 -11 -118 -33 -172s-55.5 -101.333 -100.5 -142s-101.333 -73 -169 -97s-147.167 -36 -238.5 -36c-36.667 0 -72.667 2.5 -108 7.5s-68.5 11.333 -99.5 19s-59.5 16.334 -85.5 26.001s-48.333 19.5 -67 29.5l35 156c18 -12 39.5 -24 64.5 -36s52 -22.5 81 -31.5
s59.333 -16.333 91 -22s63.167 -8.5 94.5 -8.5c70 0 128.667 8.5 176 25.5s85.333 39.333 114 67s49 59.334 61 95.001s18 72.167 18 109.5c0 79.333 -29.333 142.166 -88 188.499s-147.334 69.5 -266.001 69.5h-109l31 141h119c69.333 0 130.5 7 183.5 21
s97.5 33.833 133.5 59.5s63.167 56.834 81.5 93.501s27.5 77.667 27.5 123c0 28.667 -4.66699 55.834 -14 81.501s-23.833 48 -43.5 67s-44.334 34.167 -74.001 45.5s-65.167 17 -106.5 17c-34 0 -66.5 -2.5 -97.5 -7.5s-60.167 -11.5 -87.5 -19.5s-52.666 -17 -75.999 -27
s-44 -20 -62 -30l34 164c17.333 6.66699 36.666 13.5 57.999 20.5s45 13.333 71 19s54.667 10.334 86 14.001s65.666 5.5 102.999 5.5c67.333 0 124.666 -9.33301 171.999 -28s86.333 -43.167 117 -73.5s53 -64.666 67 -102.999s21 -77.166 21 -116.499z" />
    <glyph glyph-name="four" unicode="4" horiz-adv-x="1104" 
d="M864 514h189l-31 -133h-186l-80 -381h-166l80 379h-668l25 113l833 942h199zM862 1270l-36 -52.5c-14 -20.333 -29.333 -39.833 -46 -58.5l-555 -645h473l131 608l9 35.5l10 39.5l9.5 39c3 12.667 5.83301 24 8.5 34h-4z" />
    <glyph glyph-name="five" unicode="5" horiz-adv-x="1104" 
d="M1053 1284l-539.002 -0.00195312l-88 -418c19.333 1.33301 37.333 2.33301 54 3s34 1 52 1c76.667 0 141.834 -10.167 195.501 -30.5s97.5 -47.666 131.5 -81.999s58.667 -74.166 74 -119.499s23 -93.333 23 -144c0 -38 -4.16699 -77.167 -12.5 -117.5
s-21.833 -79.833 -40.5 -118.5s-42.834 -75 -72.501 -109s-66 -64 -109 -90s-92.667 -46.5 -149 -61.5s-120.833 -22.5 -193.5 -22.5c-30 0 -60.333 1.33301 -91 4s-60 6.5 -88 11.5s-54 10.667 -78 17s-44.333 13.5 -61 21.5l37 161c16 -10.667 35.333 -20.667 58 -30
s47 -17.333 73 -24s52.833 -11.834 80.5 -15.501s54.834 -5.5 81.501 -5.5c76 0 139.333 11.333 190 34s91.334 51.334 122.001 86.001s52.5 72.5 65.5 113.5s19.5 79.833 19.5 116.5c0 86 -24 151.167 -72 195.5s-124.333 66.5 -229 66.5c-20 0 -41.5 -0.333008 -64.5 -1
s-45.667 -1.5 -68 -2.5l-64 -3c-20.333 -1 -37.833 -2.16699 -52.5 -3.5l151 717h694z" />
    <glyph glyph-name="six" unicode="6" horiz-adv-x="1104" 
d="M1081 1262c-28 16 -61.668 29.501 -101.001 40.501s-82 16.5 -128 16.5c-54 0 -105.333 -9.66699 -154 -29s-93.667 -46.666 -135 -81.999c-34 -28 -65.333 -61.5 -94 -100.5s-54.5 -81.167 -77.5 -126.5s-42.833 -92.5 -59.5 -141.5s-29.667 -97.5 -39 -145.5h4
c17.333 28.667 38.333 55.334 63 80.001s52.167 46.167 82.5 64.5s63.333 32.666 99 42.999s72.834 15.5 111.501 15.5c59.333 0 111.333 -9.33301 156 -28s82 -45 112 -79s52.667 -74.667 68 -122s23 -100 23 -158c0 -66.667 -10.5 -132 -31.5 -196
s-52 -121.167 -93 -171.5s-91.5 -90.833 -151.5 -121.5s-128.667 -46 -206 -46c-61.333 0 -117.333 10.333 -168 31s-94.167 52 -130.5 94s-64.5 94.667 -84.5 158s-30 137.666 -30 222.999c0 86 8.16699 169.833 24.5 251.5s39.666 158.667 69.999 231
s67 138.666 110 198.999s91.5 111.833 145.5 154.5c60.667 48 125.834 83.5 195.501 106.5s139.5 34.5 209.5 34.5c52 0 99.167 -4.5 141.5 -13.5s75.833 -18.167 100.5 -27.5zM843.999 496.001c0 36.667 -4.83594 70.8311 -14.5029 102.498s-24.5 59.167 -44.5 82.5
s-45.667 41.666 -77 54.999s-68.666 20 -111.999 20c-51.333 0 -96.333 -9.66699 -135 -29s-71 -44.666 -97 -75.999s-45.667 -66.666 -59 -105.999s-20 -79 -20 -119c0 -47.333 6 -90.166 18 -128.499s29 -71 51 -98s48.833 -47.833 80.5 -62.5s67.167 -22 106.5 -22
c48 0 90.833 10.833 128.5 32.5s69.334 50.167 95.001 85.5s45.334 76 59.001 122s20.5 93 20.5 141z" />
    <glyph glyph-name="seven" unicode="7" horiz-adv-x="1104" 
d="M326 0h-187l797 1286h-709l31 148h930l-10 -52z" />
    <glyph glyph-name="eight" unicode="8" horiz-adv-x="1104" 
d="M1092 1137c0 -55.333 -8.8291 -104.504 -26.4961 -147.504s-42.167 -80.833 -73.5 -113.5s-69 -60.667 -113 -84s-92 -43.666 -144 -60.999c81.333 -44.667 142.666 -95.667 183.999 -153s62 -125.666 62 -204.999c0 -50.667 -10 -100 -30 -148s-50.5 -90.5 -91.5 -127.5
s-93 -66.667 -156 -89s-137.167 -33.5 -222.5 -33.5c-64 0 -121.833 8.83301 -173.5 26.5s-95.834 42.334 -132.501 74.001s-64.834 69.5 -84.501 113.5s-29.5 92.333 -29.5 145c0 56.667 9.33301 107.5 28 152.5s44.834 85 78.501 120s74.167 65.333 121.5 91
s99.666 47.834 156.999 66.501c-54 39.333 -97.167 85.333 -129.5 138s-48.5 110.334 -48.5 173.001c0 64.667 12.5 121 37.5 169s58.167 87.833 99.5 119.5s89 55.334 143 71.001s110.333 23.5 169 23.5c63.333 0 118.333 -8.83301 165 -26.5s85.667 -41.334 117 -71.001
s54.666 -63.834 69.999 -102.501s23 -79 23 -121zM924.004 1118c0 30 -4.99902 57.5 -14.999 82.5s-24.333 46.167 -43 63.5s-41.334 30.833 -68.001 40.5s-57 14.5 -91 14.5c-44.667 0 -84 -6 -118 -18s-62.333 -28.667 -85 -50s-39.667 -46.666 -51 -75.999
s-17 -61.333 -17 -96c0 -58 15 -108.667 45 -152s71 -82 123 -116c52 13.333 97.833 28.833 137.5 46.5s73 38.667 100 63s47.5 52.666 61.5 84.999s21 69.833 21 112.5zM813.005 368.996c0 34 -5.83203 66.002 -17.499 96.002s-28.334 57.667 -50.001 83
s-47.5 48.833 -77.5 70.5s-63.667 41.5 -101 59.5c-112.667 -32 -197.5 -74.5 -254.5 -127.5s-85.5 -122.5 -85.5 -208.5c0 -26.667 5.16699 -53.5 15.5 -80.5s26.333 -51.333 48 -73s49.167 -39.334 82.5 -53.001s73 -20.5 119 -20.5c52 0 98 6.33301 138 19
s73.5 30.167 100.5 52.5s47.5 49.166 61.5 80.499s21 65.333 21 102z" />
    <glyph glyph-name="nine" unicode="9" horiz-adv-x="1104" 
d="M1071 961c0 -78.667 -7.33398 -158.831 -22.001 -240.498s-37 -160.334 -67 -236.001s-67.5 -146.167 -112.5 -211.5s-97.833 -121 -158.5 -167c-60 -45.333 -123.333 -78.5 -190 -99.5s-137.334 -31.5 -212.001 -31.5c-52 0 -98.833 4 -140.5 12
s-73.167 17.667 -94.5 29l22 156c23.333 -13.333 53.5 -26.166 90.5 -38.499s80.5 -18.5 130.5 -18.5c56 0 110 9.16699 162 27.5s98.333 43.833 139 76.5c33.333 25.333 64.333 55.666 93 90.999s54.834 74.666 78.501 117.999s44.5 90.333 62.5 141s32.333 104 43 160h-4
c-18.667 -30 -40.334 -57.667 -65.001 -83s-51.667 -47 -81 -65s-61 -32 -95 -42s-69.667 -15 -107 -15c-70 0 -128.833 12.667 -176.5 38s-86 57.5 -115 96.5s-49.833 82.167 -62.5 129.5s-19 92.666 -19 135.999c0 40 4.16699 80.833 12.5 122.5s21.333 82.334 39 122.001
s39.834 77 66.501 112s58.167 65.667 94.5 92s78 47.166 125 62.499s99.167 23 156.5 23c68.667 0 128.5 -12.5 179.5 -37.5s93.333 -59.833 127 -104.5s58.834 -97.167 75.501 -157.5s25 -126.166 25 -197.499zM902.999 1004c0 47.333 -6 90.335 -18 129.002
s-29 71.667 -51 99s-48.333 48.666 -79 63.999s-64.667 23 -102 23c-50 0 -94.5 -10.667 -133.5 -32s-72 -49.5 -99 -84.5s-47.5 -75.333 -61.5 -121s-21 -92.834 -21 -141.501c0 -33.333 4.33301 -66.5 13 -99.5s22.667 -62.5 42 -88.5s44.5 -47.167 75.5 -63.5
s68.833 -24.5 113.5 -24.5c56 0 104.333 10.333 145 31s74 47.5 100 80.5s45.167 69.667 57.5 110s18.5 79.833 18.5 118.5z" />
    <glyph glyph-name="colon" unicode=":" horiz-adv-x="446" 
d="M422 936c0 -15.333 -3.00098 -29.833 -9.00098 -43.5s-14 -25.5 -24 -35.5s-21.667 -17.833 -35 -23.5s-27.666 -8.5 -42.999 -8.5s-29.666 2.83301 -42.999 8.5s-25 13.5 -35 23.5s-17.833 21.833 -23.5 35.5s-8.5 28.167 -8.5 43.5c0 14.667 2.83301 28.667 8.5 42
s13.5 25.166 23.5 35.499s21.667 18.5 35 24.5s27.666 9 42.999 9s29.833 -3 43.5 -9s25.5 -14.167 35.5 -24.5s17.833 -22.166 23.5 -35.499s8.5 -27.333 8.5 -42zM243.999 88c0 -15.333 -2.83301 -29.666 -8.5 -42.999s-13.5 -25 -23.5 -35s-21.833 -18 -35.5 -24
s-28.167 -9 -43.5 -9s-29.666 3 -42.999 9s-25 14 -35 24s-17.833 21.667 -23.5 35s-8.5 27.666 -8.5 42.999s2.83301 29.833 8.5 43.5s13.5 25.5 23.5 35.5s21.667 17.833 35 23.5s27.666 8.5 42.999 8.5s29.833 -2.83301 43.5 -8.5s25.5 -13.5 35.5 -23.5
s17.833 -21.833 23.5 -35.5s8.5 -28.167 8.5 -43.5z" />
    <glyph glyph-name="semicolon" unicode=";" horiz-adv-x="446" 
d="M422 936c0 -15.333 -3.00098 -29.833 -9.00098 -43.5s-14 -25.5 -24 -35.5s-21.667 -17.833 -35 -23.5s-27.666 -8.5 -42.999 -8.5s-29.666 2.83301 -42.999 8.5s-25 13.5 -35 23.5s-17.833 21.833 -23.5 35.5s-8.5 28.167 -8.5 43.5c0 14.667 2.83301 28.667 8.5 42
s13.5 25.166 23.5 35.499s21.667 18.5 35 24.5s27.666 9 42.999 9s29.833 -3 43.5 -9s25.5 -14.167 35.5 -24.5s17.833 -22.166 23.5 -35.499s8.5 -27.333 8.5 -42zM26.999 -264h-129l202 491h164z" />
    <glyph glyph-name="less" unicode="&#x3c;" horiz-adv-x="1403" 
d="M238 559v59l860 482v-150l-643 -356v-4l643 -314v-149z" />
    <glyph glyph-name="equal" unicode="=" horiz-adv-x="1403" 
d="M256 743v134h940v-134h-940zM256 317v134h940v-134h-940z" />
    <glyph glyph-name="greater" unicode="&#x3e;" horiz-adv-x="1403" 
d="M330 127v149l643 312v6l-643 354v152l858 -482v-59z" />
    <glyph glyph-name="question" unicode="?" horiz-adv-x="881" 
d="M922 1145c0 -41.333 -5.16895 -80.0039 -15.502 -116.004s-26.5 -70.5 -48.5 -103.5s-49.833 -65.333 -83.5 -97s-73.5 -63.5 -119.5 -95.5c-35.333 -24.667 -65.166 -48.167 -89.499 -70.5s-45 -46 -62 -71s-31.167 -52.667 -42.5 -83s-21 -65.5 -29 -105.5h-151
c9.33301 48 20.166 91.333 32.499 130s28 74.167 47 106.5s42.333 62.333 70 90s61.5 54.834 101.5 81.501c42 28 77.667 54.833 107 80.5s53.333 51.334 72 77.001s32.167 51.5 40.5 77.5s12.5 53.333 12.5 82c0 24.667 -4.33301 48.834 -13 72.501s-22 44.667 -40 63
s-40.5 33.166 -67.5 44.499s-58.5 17 -94.5 17c-45.333 0 -92.166 -7.33301 -140.499 -22s-95.166 -37.334 -140.499 -68.001l29 168c41.333 18.667 86 33.167 134 43.5s97 15.5 147 15.5c57.333 0 107.5 -8.66699 150.5 -26s78.833 -40.666 107.5 -69.999
s50.167 -63.166 64.5 -101.499s21.5 -78.166 21.5 -119.499zM413.998 91.9961c0 -15.333 -3 -29.666 -9 -42.999s-14.167 -25 -24.5 -35s-22.166 -17.833 -35.499 -23.5s-27.333 -8.5 -42 -8.5c-15.333 0 -29.666 2.83301 -42.999 8.5s-25 13.5 -35 23.5
s-17.833 21.667 -23.5 35s-8.5 27.666 -8.5 42.999s2.83301 29.833 8.5 43.5s13.5 25.5 23.5 35.5s21.667 17.833 35 23.5s27.666 8.5 42.999 8.5c14.667 0 28.667 -2.83301 42 -8.5s25.166 -13.5 35.499 -23.5s18.5 -21.833 24.5 -35.5s9 -28.167 9 -43.5z" />
    <glyph glyph-name="at" unicode="@" horiz-adv-x="1966" 
d="M1825 797c0 -85.333 -11.5059 -165.51 -34.5059 -240.51s-55.333 -140.333 -97 -196s-91.167 -99.667 -148.5 -132s-120.333 -48.5 -189 -48.5c-34 0 -64 4.83301 -90 14.5s-47.833 22.834 -65.5 39.501s-31 36.167 -40 58.5s-13.5 46.5 -13.5 72.5
c0 10 0.5 18.167 1.5 24.5l4.5 28.5h-4c-40 -76.667 -85.167 -135.167 -135.5 -175.5s-108.833 -60.5 -175.5 -60.5c-36 0 -69.167 7.33301 -99.5 22s-56.5 35.5 -78.5 62.5s-39.167 59.5 -51.5 97.5s-18.5 80.667 -18.5 128c0 78 12.667 152.333 38 223
s59.833 133 103.5 187s94.667 97 153 129s120.5 48 186.5 48c28.667 0 54.667 -3.33301 78 -10s43.666 -15.667 60.999 -27s31.833 -24.833 43.5 -40.5s20.5 -32.167 26.5 -49.5h4c0.666992 3.33301 2.5 10.333 5.5 21l10 35l10 35.5c3 11 4.83301 18.167 5.5 21.5h131
l-24.5 -84.5l-34.5 -118l-38 -134l-35 -133c-10.667 -42.333 -19.334 -80.666 -26.001 -114.999s-10 -60.833 -10 -79.5c0 -40 7.83301 -67.667 23.5 -83s39.834 -23 72.501 -23c48 0 91.833 14.167 131.5 42.5s74 65.333 103 111s51.5 96.834 67.5 153.501
s24 113.334 24 170.001c0 47.333 -4.66699 94.166 -14 140.499s-24.166 90.333 -44.499 132s-46.5 80.334 -78.5 116.001s-70.5 66.334 -115.5 92.001s-96.667 45.834 -155 60.501s-124.5 22 -198.5 22c-66.667 0 -131.667 -8.33301 -195 -25s-123.166 -40.667 -179.499 -72
s-107.833 -69.666 -154.5 -114.999s-87 -96.833 -121 -154.5s-60.5 -121 -79.5 -190s-28.5 -142.833 -28.5 -221.5c0 -92 13.167 -176.5 39.5 -253.5s66.5 -143.167 120.5 -198.5s122.167 -98.333 204.5 -129s179.166 -46 290.499 -46c55.333 0 107.833 2.83301 157.5 8.5
s95.334 12.834 137.001 21.501s78.834 18.334 111.501 29.001s59.334 21 80.001 31l-25 -126c-18.667 -8.66699 -42.667 -17.667 -72 -27s-63.333 -18 -102 -26s-82.167 -14.5 -130.5 -19.5s-101.166 -7.5 -158.499 -7.5c-123.333 0 -233.5 17.333 -330.5 52
s-179.167 84.167 -246.5 148.5s-118.666 142.333 -153.999 234s-53 194.5 -53 308.5c0 90.667 11 175.667 33 255s52.833 152.333 92.5 219s87.334 126.167 143.001 178.5s117 96.666 184 132.999s139 64 216 83s156.5 28.5 238.5 28.5c119.333 0 223.5 -17.833 312.5 -53.5
s163.167 -83.667 222.5 -144s103.833 -130.166 133.5 -209.499s44.5 -162.666 44.5 -249.999zM1220.99 810.99c0 50 -13.332 88.8291 -39.999 116.496s-62 41.5 -106 41.5c-46.667 0 -90.834 -12.5 -132.501 -37.5s-78 -59.167 -109 -102.5s-55.5 -93.666 -73.5 -150.999
s-27 -118.666 -27 -183.999c0 -31.333 3.83301 -59.166 11.5 -83.499s18 -44.666 31 -60.999s28.167 -28.833 45.5 -37.5s36 -13 56 -13c40 0 77.333 10.833 112 32.5s66 51.5 94 89.5s52.667 82.333 74 133s38.333 105 51 163c8.66699 34 13 65.333 13 94z" />
    <glyph glyph-name="A" unicode="A" horiz-adv-x="1294" 
d="M999 0l-65 401h-608l-232 -401h-198l854 1434h176l250 -1434h-177zM815 1163c-0.666992 6.66699 -1.16699 14.332 -1.5 22.999s-0.5 17.334 -0.5 26.001v26v22h-4c-2 -6 -4.66699 -13.167 -8 -21.5s-7 -17 -11 -26s-8.16699 -17.833 -12.5 -26.5l-11.5 -23l-354 -610h495
z" />
    <glyph glyph-name="B" unicode="B" horiz-adv-x="1174" 
d="M1126 1124c0 -44.667 -6.33203 -87.5 -18.999 -128.5s-32.167 -78.167 -58.5 -111.5s-60 -62.166 -101 -86.499s-89.833 -41.833 -146.5 -52.5v-4c41.333 -6.66699 77.5 -18.834 108.5 -36.501s56.833 -39.167 77.5 -64.5s36.167 -53.833 46.5 -85.5
s15.5 -65.5 15.5 -101.5c0 -74 -13.5 -139.167 -40.5 -195.5s-64.5 -103.5 -112.5 -141.5s-104.833 -66.833 -170.5 -86.5s-136.834 -29.5 -213.501 -29.5h-438l303 1434h395c57.333 0 108 -8 152 -24s81 -38 111 -66s52.667 -60.833 68 -98.5s23 -78.167 23 -121.5z
M950.001 1092c0 25.333 -4 49.332 -12 71.999s-20.833 42.834 -38.5 60.501s-40.667 31.667 -69 42s-62.833 15.5 -103.5 15.5h-209l-100 -463h188c57.333 0 107.5 6.66699 150.5 20s78.667 32 107 56s49.5 52.667 63.5 86s21 70.333 21 111h2zM872.001 441.999
c0 70 -24.332 125.167 -72.999 165.5s-123.334 60.5 -224.001 60.5h-190l-106 -516h231c62.667 0 116.667 6.83301 162 20.5s82.833 33.167 112.5 58.5s51.667 55.833 66 91.5s21.5 75.5 21.5 119.5z" />
    <glyph glyph-name="C" unicode="C" horiz-adv-x="1309" 
d="M1325 1196c-19.333 12.667 -41.501 25.665 -66.501 38.998s-52.5 25.333 -82.5 36s-62.833 19.334 -98.5 26.001s-73.834 10 -114.501 10c-100 0 -190.167 -17.667 -270.5 -53s-148.5 -84 -204.5 -146s-99.167 -134.833 -129.5 -218.5s-45.5 -174.167 -45.5 -271.5
c0 -79.333 11 -149.5 33 -210.5s53.333 -112.333 94 -154s89.334 -73.167 146.001 -94.5s119.334 -32 188.001 -32c44 0 84 2.5 120 7.5s69.333 12 100 21s59.5 19.667 86.5 32s53.167 25.5 78.5 39.5l-39 -176c-54 -24.667 -111.833 -43.5 -173.5 -56.5
s-130.834 -19.5 -207.501 -19.5c-90.667 0 -173.167 15 -247.5 45s-137.666 72.5 -189.999 127.5s-92.833 121.167 -121.5 198.5s-43 163.333 -43 258c0 125.333 19.833 240.333 59.5 345s96 194.667 169 270s160.667 134 263 176s215.833 63 340.5 63
c85.333 0 160.833 -9.16699 226.5 -27.5s121.167 -39.166 166.5 -62.499z" />
    <glyph glyph-name="D" unicode="D" horiz-adv-x="1458" 
d="M1401 854c0 -70.667 -7.16406 -140.999 -21.4971 -210.999s-36.333 -136.667 -66 -200s-67.834 -122 -114.501 -176s-102.334 -100.833 -167.001 -140.5s-138.834 -70.667 -222.501 -93s-177.5 -33.5 -281.5 -33.5h-454l305 1434h399c93.333 0 178.333 -13.167 255 -39.5
s142.167 -64.5 196.5 -114.5s96.5 -110.833 126.5 -182.5s45 -152.834 45 -243.501zM1225 842.001c0 140 -41 248.332 -123 324.999s-203.667 115 -365 115h-219l-242 -1130h267c112.667 0 211.5 18 296.5 54s156 85.333 213 148s100 135.834 129 219.501
s43.5 173.167 43.5 268.5z" />
    <glyph glyph-name="E" unicode="E" horiz-adv-x="1022" 
d="M1071 1282h-553l-104 -489h512l-33 -152h-512l-105 -489h588l-30 -152h-760l303 1434h727z" />
    <glyph glyph-name="F" unicode="F" horiz-adv-x="1001" 
d="M1071 1278h-553l-106 -490h514l-33 -155h-514l-133 -633h-172l303 1434h727z" />
    <glyph glyph-name="G" unicode="G" horiz-adv-x="1409" 
d="M1350 1190c-22 14.667 -47.165 29.001 -75.498 43.001s-59.5 26.5 -93.5 37.5s-70.833 19.833 -110.5 26.5s-81.834 10 -126.501 10c-99.333 0 -188 -17.667 -266 -53s-144 -83.5 -198 -144.5s-95.333 -132.833 -124 -215.5s-43 -171 -43 -265
c0 -78 10.833 -148 32.5 -210s52.834 -114.667 93.501 -158s89.834 -76.5 147.501 -99.5s122.834 -34.5 195.501 -34.5c50 0 95.167 4.16699 135.5 12.5s77.833 19.166 112.5 32.499l86 418h-332l33 149h504l-141 -661c-56.667 -30 -119.334 -55 -188.001 -75
s-145.334 -30 -230.001 -30c-98 0 -185.667 16.333 -263 49s-142.833 77.5 -196.5 134.5s-94.667 124.333 -123 202s-42.5 161.5 -42.5 251.5c0 77.333 8 152 24 224s39.667 139.5 71 202.5s70.333 120.333 117 172s100.667 96 162 133s129.833 65.667 205.5 86
s158.5 30.5 248.5 30.5c49.333 0 95.166 -3 137.499 -9s81 -13.667 116 -23s66.167 -19.5 93.5 -30.5s50.666 -21.5 69.999 -31.5z" />
    <glyph glyph-name="H" unicode="H" horiz-adv-x="1450" 
d="M1151 0h-172l137 647h-733l-135 -647h-174l303 1434h174l-135 -629h733l135 629h172z" />
    <glyph glyph-name="I" unicode="I" horiz-adv-x="545" 
d="M246 0h-172l303 1434h174z" />
    <glyph glyph-name="J" unicode="J" horiz-adv-x="709" 
d="M535 508c-18.667 -86.667 -41.8291 -163.333 -69.4961 -230s-60.834 -122.334 -99.501 -167.001s-83.334 -78.5 -134.001 -101.5s-108.334 -34.5 -173.001 -34.5c-12 0 -26.333 1 -43 3s-33 4.83301 -49 8.5s-30.667 7.5 -44 11.5s-23 8 -29 12l28 160
c7.33301 -6 16.166 -11.833 26.499 -17.5s21.5 -10.5 33.5 -14.5s24.667 -7.16699 38 -9.5s26.333 -3.5 39 -3.5c36 0 69.333 6.5 100 19.5s58.5 34.333 83.5 64s47.5 68.334 67.5 116.001s37.333 106.167 52 175.5l197 934h172z" />
    <glyph glyph-name="K" unicode="K" horiz-adv-x="1228" 
d="M573 723l498 -723h-209l-434 653l-15 27c-6 10.667 -10.667 19.667 -14 27h-4l-149 -707h-172l303 1434h174l-143 -674h4l23.5 25l23.5 24l659 625h228z" />
    <glyph glyph-name="L" unicode="L" horiz-adv-x="948" 
d="M817 0h-743l303 1434h174l-272 -1278h571z" />
    <glyph glyph-name="M" unicode="M" horiz-adv-x="1675" 
d="M1376 0l-166.999 0.00195312l204 962c8 38 18.333 81.167 31 129.5s27.334 100.166 44.001 155.499h-4c-8 -16 -18 -33.833 -30 -53.5s-24.5 -38.667 -37.5 -57l-35.5 -49.5c-10.667 -14.667 -18.334 -25.667 -23.001 -33l-513 -680h-82l-224 678
c-1.33301 8 -4.5 19.5 -9.5 34.5s-9.83301 31.667 -14.5 50s-8.83398 37.166 -12.501 56.499s-5.5 37.333 -5.5 54h-4c-4 -28.667 -10.5 -67.334 -19.5 -116.001s-20.167 -105.667 -33.5 -171l-204 -960h-162l304 1434h200l227 -682c10 -30 17.833 -58 23.5 -84
s9.16699 -48.667 10.5 -68h6l39 70c15.333 26.667 35 55.334 59 86.001l515 678h222z" />
    <glyph glyph-name="N" unicode="N" horiz-adv-x="1538" 
d="M1241 0l-185.998 -0.000976562l-529 1149l-7 19.5c-2.66699 7.66699 -5.33398 15.834 -8.00098 24.501s-5 17 -7 25s-3.33301 14.333 -4 19h-6l-2.5 -24.5c-1 -9.66699 -2.16699 -19.5 -3.5 -29.5s-2.83301 -19.833 -4.5 -29.5l-4.5 -25.5l-239 -1128h-166l303 1434h201
l507 -1125c3.33301 -6 6.66602 -13.167 9.99902 -21.5l10 -26l9.5 -26.5l7.5 -22h4c0.666992 8 1.66699 17.333 3 28l4 33.5c1.33301 11.667 3 23.167 5 34.5l5 29l233 1096h170z" />
    <glyph glyph-name="O" unicode="O" horiz-adv-x="1544" 
d="M1487 852c0 -62 -5.66797 -123.497 -17.001 -184.497s-27.666 -119.833 -48.999 -176.5s-47.5 -110.334 -78.5 -161.001s-66.167 -96.334 -105.5 -137.001c-32 -33.333 -66.667 -63.5 -104 -90.5s-77.333 -50 -120 -69s-88.334 -33.5 -137.001 -43.5s-101 -15 -157 -15
c-90 0 -171 15.5 -243 46.5s-133.167 73.667 -183.5 128s-88.833 118.833 -115.5 193.5s-40 155.667 -40 243c0 138.667 22.5 263 67.5 373s107.833 205.333 188.5 286c65.333 65.333 140.833 117.166 226.5 155.499s182.834 57.5 291.501 57.5c88 0 167.5 -15 238.5 -45
s131.5 -72 181.5 -126s88.5 -118 115.5 -192s40.5 -155 40.5 -243zM1309 846.003c0 71.333 -9.66602 135.332 -28.999 191.999s-47 105 -83 145s-79.333 70.667 -130 92s-107.334 32 -170.001 32c-74 0 -144.667 -16 -212 -48s-127 -76.333 -179 -133
c-29.333 -32 -55.833 -68.667 -79.5 -110s-44 -85.333 -61 -132s-30 -95.334 -39 -146.001s-13.5 -102 -13.5 -154c0 -66.667 9.16699 -128 27.5 -184s45 -104.167 80 -144.5s78.167 -71.833 129.5 -94.5s110.333 -34 177 -34c74 0 144.833 14.833 212.5 44.5
s127.167 73.5 178.5 131.5c32 36 59.833 76.167 83.5 120.5s43.5 90.333 59.5 138s28 95.834 36 144.501s12 95.334 12 140.001z" />
    <glyph glyph-name="P" unicode="P" horiz-adv-x="1178" 
d="M1176 1057c0 -70.667 -11.999 -137.167 -35.999 -199.5s-60.5 -116.833 -109.5 -163.5s-111.167 -83.5 -186.5 -110.5s-164 -40.5 -266 -40.5h-218l-114 -543h-172l303 1434h371c76.667 0 142.167 -10.5 196.5 -31.5s98.666 -49 132.999 -84s59.333 -75.167 75 -120.5
s23.5 -92.333 23.5 -141zM999.001 1042c0 36 -6.16602 68.833 -18.499 98.5s-30.5 55 -54.5 76s-53.833 37.167 -89.5 48.5s-76.834 17 -123.501 17h-195l-125 -588h201c70.667 0 131.5 8.83301 182.5 26.5s93 42 126 73s57.333 67.667 73 110s23.5 88.5 23.5 138.5z" />
    <glyph glyph-name="Q" unicode="Q" horiz-adv-x="1544" 
d="M1309 842c0 71.333 -9.50098 135.499 -28.501 192.499s-46.167 105.833 -81.5 146.5s-78.166 71.834 -128.499 93.501s-106.833 32.5 -169.5 32.5c-72.667 0 -143 -15.333 -211 -46s-128 -74.334 -180 -131.001c-62.667 -68.667 -111.167 -150 -145.5 -244
s-51.5 -195.333 -51.5 -304c0 -66 9.16699 -126.833 27.5 -182.5s45 -103.667 80 -144s78.167 -71.833 129.5 -94.5s110.333 -34 177 -34c78 0 150.333 15.5 217 46.5s124 73.5 172 127.5c32 36 60 75.667 84 119s44 88.5 60 135.5s28.167 94.833 36.5 143.5
s12.5 96.334 12.5 143.001zM908.999 -0.000976562c26.667 -37.333 52.1748 -70.332 76.5078 -98.999s49.666 -52.834 75.999 -72.501s54.666 -34.5 84.999 -44.5s65.166 -15 104.499 -15c21.333 0 46.166 2.16699 74.499 6.5s53.166 10.5 74.499 18.5l-34 -162
c-23.333 -6 -50 -10.833 -80 -14.5s-56.333 -5.5 -79 -5.5c-64 0 -119.333 9.5 -166 28.5s-88.834 45 -126.501 78s-72.5 71.5 -104.5 115.5l-99 142c-93.333 2 -175.666 19.333 -246.999 52s-131.333 76.334 -180 131.001s-85.334 118.334 -110.001 191.001
s-37 150 -37 232c0 139.333 22.167 264.333 66.5 375s106.833 206 187.5 286c31.333 30.667 65.166 59.167 101.499 85.5s75.833 49 118.5 68s89.167 34 139.5 45s105.166 16.5 164.499 16.5c88 0 167.333 -15.333 238 -46s130.834 -73 180.501 -127
s87.667 -118.333 114 -193s39.5 -156 39.5 -244c0 -63.333 -5.5 -126 -16.5 -188s-27.5 -121.667 -49.5 -179s-49.333 -111.5 -82 -162.5s-70.334 -97.333 -113.001 -139s-90.5 -77.834 -143.5 -108.501s-110.833 -54.334 -173.5 -71.001z" />
    <glyph glyph-name="R" unicode="R" horiz-adv-x="1192" 
d="M1169 1079c0 -62 -10.834 -118 -32.501 -168s-51.5 -93 -89.5 -129s-83.333 -64.833 -136 -86.5s-110 -35.167 -172 -40.5v-4c31.333 -10 58.833 -31 82.5 -63s42.834 -75 57.501 -129l120 -459h-184l-106 428c-15.333 62.667 -39.833 108.667 -73.5 138
s-78.167 44 -133.5 44h-125l-131 -610h-172l303 1434h395c70 0 130 -9.33301 180 -28s91 -44.167 123 -76.5s55.667 -70 71 -113s23 -88.833 23 -137.5zM992.999 1061c0 32 -5 61.501 -15 88.501s-25.333 50.333 -46 70s-47 35 -79 46s-70 16.5 -114 16.5h-221l-110 -520
h198c70 0 129.5 8.33301 178.5 25s89 38.667 120 66s53.5 59.166 67.5 95.499s21 73.833 21 112.5z" />
    <glyph glyph-name="S" unicode="S" horiz-adv-x="1018" 
d="M991 1219c-16.667 12 -36.499 23.3301 -59.499 33.9971s-47.667 20 -74 28s-53.833 14.333 -82.5 19s-57 7 -85 7c-53.333 0 -98.166 -7.5 -134.499 -22.5s-65.5 -34 -87.5 -57s-37.833 -48.167 -47.5 -75.5s-14.5 -53 -14.5 -77c0 -31.333 4.33301 -59.666 13 -84.999
s21.667 -49.666 39 -72.999s39.666 -46.666 66.999 -69.999s59.333 -48.333 96 -75c41.333 -30 78.166 -59.667 110.499 -89s59.833 -59.5 82.5 -90.5s39.834 -63.667 51.501 -98s17.5 -71.5 17.5 -111.5c0 -24.667 -2.5 -51.834 -7.5 -81.501s-14 -59.5 -27 -89.5
s-30.833 -59.333 -53.5 -88s-51.5 -54 -86.5 -76s-77.167 -39.667 -126.5 -53s-107.333 -20 -174 -20c-37.333 0 -74 2.66699 -110 8s-70.167 12.333 -102.5 21s-62 18.5 -89 29.5s-50.167 21.833 -69.5 32.5l29 174c21.333 -15.333 45.666 -29.833 72.999 -43.5
s56.333 -25.667 87 -36s62.334 -18.5 95.001 -24.5s65 -9 97 -9c50.667 0 94.167 6 130.5 18s66.333 28.5 90 49.5s41 45.833 52 74.5s16.5 59.667 16.5 93c0 30 -4.66699 57 -14 81s-23.666 47.5 -42.999 70.5s-43.833 46.333 -73.5 70s-64.834 49.834 -105.501 78.501
c-32.667 23.333 -63.834 48.5 -93.501 75.5s-55.667 56.5 -78 88.5s-40 66.833 -53 104.5s-19.5 78.5 -19.5 122.5c0 54.667 10.167 106.5 30.5 155.5s50.5 92 90.5 129s89.5 66.333 148.5 88s127.5 32.5 205.5 32.5c30 0 59.833 -1.83301 89.5 -5.5s58.5 -8.66699 86.5 -15
s54.5 -13.333 79.5 -21s47.167 -15.5 66.5 -23.5z" />
    <glyph glyph-name="T" unicode="T" horiz-adv-x="1077" 
d="M1190 1282h-408l-270 -1282h-172l272 1282h-417l32 152h996z" />
    <glyph glyph-name="U" unicode="U" horiz-adv-x="1411" 
d="M1247 563c-20 -93.333 -45.167 -176.501 -75.5 -249.501s-69.333 -134.5 -117 -184.5s-105.834 -88.167 -174.501 -114.5s-151 -39.5 -247 -39.5c-74 0 -140 11.667 -198 35s-106.667 55.333 -146 96s-69.333 88.667 -90 144s-31 115.333 -31 180
c0 28.667 1.83301 61 5.5 97s8.5 70 14.5 102l174 805h173l-173 -795l-8.5 -50c-3 -18 -5.66699 -36 -8 -54s-4.16602 -35 -5.49902 -51s-2 -30 -2 -42c0 -53.333 8 -99.666 24 -138.999s38.167 -72 66.5 -98s61.666 -45.5 99.999 -58.5s79.833 -19.5 124.5 -19.5
c56.667 0 107.334 8 152.001 24s84 41 118 75s63.167 77.333 87.5 130s44.5 115.667 60.5 189l191 889h172z" />
    <glyph glyph-name="V" unicode="V" horiz-adv-x="1286" 
d="M596 0l-167.999 0.000976562l-215 1434h174l158 -1123c3.33301 -18.667 5.66602 -39.834 6.99902 -63.501s1 -44.167 -1 -61.5h4l11.5 29c4.33301 10.667 9.33301 21.5 15 32.5l17 33l15.5 30.5l641 1123h193z" />
    <glyph glyph-name="W" unicode="W" horiz-adv-x="1903" 
d="M1362 0h-178.001l-92 1063c-1.33301 20.667 -1.16602 44 0.500977 70s3.5 50.333 5.5 73h-4c-6.66699 -21.333 -15 -45.333 -25 -72s-20.333 -49.667 -31 -69l-544 -1065h-183l-114 1434h178l74 -1092c1.33301 -22.667 1.33301 -47 0 -73s-3.66602 -49.333 -6.99902 -70
h4l12 32l15 37.5l16.5 38.5c5.66699 12.667 11.167 24.334 16.5 35.001l557 1092h154l90 -1100c2 -18.667 2.66699 -40.667 2 -66s-2 -48.333 -4 -69h4c3.33301 10.667 7.16602 22.167 11.499 34.5s9 24.666 14 36.999l15 36c5 11.667 9.83301 22.167 14.5 31.5l526 1096
h187z" />
    <glyph glyph-name="X" unicode="X" horiz-adv-x="1210" 
d="M1364 1434c-4.66699 -6 -16.3359 -19.9961 -35.0029 -41.9961l-69 -82l-92 -108.5l-104 -121.5l-104.5 -122.5l-93.5 -109.5l-71 -83.5c-19.333 -23 -31.666 -38.167 -36.999 -45.5c2 -6.66699 7.66699 -21.334 17 -44.001l35 -83.5l46.5 -110l52 -123l52 -122.5
l46.5 -109.5l35.5 -83c9.66699 -22.333 15.834 -36.833 18.501 -43.5h-195l-213 549c-1.33301 3.33301 -3 8.16602 -5 14.499s-4 13.166 -6 20.499s-3.66699 14.5 -5 21.5s-2.66602 12.833 -3.99902 17.5h-4l-8 -15.5l-11.5 -21
c-4.33301 -7.66699 -8.83301 -15.167 -13.5 -22.5s-9.33398 -13.666 -14.001 -18.999l-455 -545h-215l36 41.5l72 82.5l96 109.5l108 124l109 125l98.5 113l76.5 88l43 49.5c-3.33301 10 -10.166 27.167 -20.499 51.5l-37 86l-47 108l-52 118.5l-51.5 117l-45 103.5
l-33.5 77.5c-9 20.667 -14.5 33.667 -16.5 39h198l203 -535c2 -4.66699 4.16699 -10.167 6.5 -16.5s4.5 -13 6.5 -20l6 -20.5c2 -6.66699 3.33301 -12.334 4 -17.001h4l8 15.5c3.33301 6.33301 7.16602 13 11.499 20l13.5 21.5
c4.66699 7.33301 9.33398 13.666 14.001 18.999l440 533h201z" />
    <glyph glyph-name="Y" unicode="Y" horiz-adv-x="1135" 
d="M651 545l-113.999 -545h-172l114 541l-268 893h182l178 -660c4.66699 -15.333 8.5 -30.833 11.5 -46.5l7.5 -39.5h2c5.33301 10.667 12.666 23.5 21.999 38.5l29 45.5l477 662h193z" />
    <glyph glyph-name="Z" unicode="Z" horiz-adv-x="1167" 
d="M1309 1391l-1082 -1239h799l-33 -152h-1071l10 51l1074 1231h-744l31 152h1026z" />
    <glyph glyph-name="bracketleft" unicode="[" horiz-adv-x="623" 
d="M752 1315h-222l-323 -1522h221l-25 -119h-368l375 1760h368z" />
    <glyph glyph-name="backslash" unicode="\" horiz-adv-x="791" 
d="M506 -240l-348 1674h147l344 -1674h-143z" />
    <glyph glyph-name="bracketright" unicode="]" horiz-adv-x="623" 
d="M215 -326h-367l25 119h221l324 1520h-221l24 121h369z" />
    <glyph glyph-name="asciicircum" unicode="^" horiz-adv-x="1403" 
d="M1055 625l-332 618h-6l-307 -618h-148l422 833h66l456 -833h-151z" />
    <glyph glyph-name="underscore" unicode="_" horiz-adv-x="850" 
d="M-172 -297l25 119h849l-24 -119h-850z" />
    <glyph glyph-name="grave" unicode="`" horiz-adv-x="715" 
d="M528 1219l-239 327h153l207 -327h-121z" />
    <glyph glyph-name="a" unicode="a" horiz-adv-x="1110" 
d="M905 328c-5.33301 -25.333 -10.499 -53.832 -15.499 -85.499s-9.33301 -63 -13 -94s-6.66699 -59.833 -9 -86.5s-3.5 -47.334 -3.5 -62.001h-170c0.666992 13.333 1.66699 29.333 3 48s3.16602 38 5.49902 58l7 59c2.33301 19.333 4.83301 36 7.5 50h-4
c-20.667 -32.667 -41.667 -63.5 -63 -92.5s-45 -54.5 -71 -76.5s-55 -39.333 -87 -52s-69.667 -19 -113 -19c-44.667 0 -85.5 8 -122.5 24s-68.833 39.833 -95.5 71.5s-47.167 71.334 -61.5 119.001s-21.5 103.167 -21.5 166.5c0 38.667 4 82.667 12 132
s21.5 99.666 40.5 150.999s44.333 101.5 76 150.5s71 92.833 118 131.5s102.5 69.667 166.5 93s138 35 222 35c53.333 0 108.333 -4 165 -12s113 -17.667 169 -29zM858.001 889.001c-23.333 5.33301 -50.6699 9.99902 -82.0029 13.999s-60.666 6 -87.999 6
c-58 0 -109.167 -9.16699 -153.5 -27.5s-82.833 -42.333 -115.5 -72s-60.167 -63.834 -82.5 -102.501s-40.166 -78.167 -53.499 -118.5s-22.833 -80.166 -28.5 -119.499s-8.5 -75 -8.5 -107c0 -38 3.33301 -72.167 10 -102.5s17.167 -56.166 31.5 -77.499
s32.666 -37.833 54.999 -49.5s48.833 -17.5 79.5 -17.5c33.333 0 64.5 6.83301 93.5 20.5s56.167 32.167 81.5 55.5s48.333 50.333 69 81s39.334 63.167 56.001 97.5s30.834 69.333 42.501 105s21.167 70.167 28.5 103.5z" />
    <glyph glyph-name="b" unicode="b" horiz-adv-x="1110" 
d="M1032 666c0 -45.333 -4.66602 -93.8311 -13.999 -145.498s-24.333 -103 -45 -154s-47 -100.167 -79 -147.5s-70.5 -89 -115.5 -125s-97 -64.833 -156 -86.5s-125.833 -32.5 -200.5 -32.5c-30.667 0 -62.334 2.16699 -95.001 6.5s-64.667 10.5 -96 18.5
s-61.333 17.667 -90 29s-54.667 24.333 -78 39l308 1448h166l-103 -490l-22.5 -103c-7.66699 -36 -15.167 -68 -22.5 -96h2c21.333 34 44 64.667 68 92s49.833 50.666 77.5 69.999s57.334 34.166 89.001 44.499s66.167 15.5 103.5 15.5
c97.333 0 172.166 -33.333 224.499 -100s78.5 -161 78.5 -283zM864.001 662.002c0 38 -3.49707 72.335 -10.4971 103.002s-18 56.667 -33 78s-34.167 37.666 -57.5 48.999s-51.666 17 -84.999 17c-42 0 -82.333 -12.333 -121 -37s-74 -57.334 -106 -98.001
s-59.667 -86.667 -83 -138s-40.333 -103.666 -51 -156.999l-67 -319c22.667 -12.667 51.167 -23.334 85.5 -32.001s69.833 -13 106.5 -13c47.333 0 90.666 7.83301 129.999 23.5s74.666 37.167 105.999 64.5s58.666 59 81.999 95s42.666 74.167 57.999 114.5
s26.833 82 34.5 125s11.5 84.5 11.5 124.5z" />
    <glyph glyph-name="c" unicode="c" horiz-adv-x="893" 
d="M864 821c-28 24.667 -61.832 45.5039 -101.499 62.5039s-83.5 25.5 -131.5 25.5c-46 0 -87.5 -8 -124.5 -24s-69.833 -37.333 -98.5 -64s-53.334 -57.334 -74.001 -92.001s-37.667 -70.667 -51 -108s-23.166 -74.5 -29.499 -111.5s-9.5 -71.5 -9.5 -103.5
c0 -95.333 21 -167.666 63 -216.999s99.333 -74 172 -74c44 0 89.667 9.16699 137 27.5s92 41.833 134 70.5l-35 -164c-43.333 -23.333 -86.5 -41.5 -129.5 -54.5s-88.5 -19.5 -136.5 -19.5c-62.667 0 -117.167 10.667 -163.5 32s-84.833 50.666 -115.5 87.999
s-53.667 81.5 -69 132.5s-23 106.167 -23 165.5c0 56 5.66699 111.167 17 165.5s28.166 105.666 50.499 153.999s49.833 93.166 82.5 134.499s70.167 76.833 112.5 106.5s89.5 53 141.5 70s108.333 25.5 169 25.5c28.667 0 56 -2 82 -6s49.667 -9.33301 71 -16
s40.333 -13.834 57 -21.501s30 -15.167 40 -22.5z" />
    <glyph glyph-name="d" unicode="d" horiz-adv-x="1110" 
d="M901 315c-4.66699 -21.333 -9.16895 -46.9951 -13.502 -76.9951s-8.16602 -60.167 -11.499 -90.5s-6.16602 -58.833 -8.49902 -85.5s-3.5 -47.334 -3.5 -62.001h-170c0 11.333 0.833008 26.5 2.5 45.5s3.66699 38.833 6 59.5s4.83301 40.5 7.5 59.5s5 34.5 7 46.5h-4
c-24 -38.667 -48 -72.834 -72 -102.501s-49.333 -54.334 -76 -74.001s-55 -34.5 -85 -44.5s-63 -15 -99 -15c-46.667 0 -88.667 8.33301 -126 25s-69.166 41.167 -95.499 73.5s-46.5 72.333 -60.5 120s-21 102.5 -21 164.5c0 49.333 5.16699 100.666 15.5 153.999
s26.333 105.666 48 156.999s49.167 100 82.5 146s73 86.333 119 121s98.667 62.167 158 82.5s125.666 30.5 198.999 30.5c37.333 0 72 -2.5 104 -7.5s59.667 -10.167 83 -15.5l104 490h162zM857.998 885.005c-25.333 7.33301 -51.833 13.1689 -79.5 17.502
s-57.167 6.5 -88.5 6.5c-58 0 -109.167 -9 -153.5 -27s-83 -42 -116 -72s-60.667 -64.167 -83 -102.5s-40.333 -77.666 -54 -117.999s-23.334 -80 -29.001 -119s-8.5 -74.167 -8.5 -105.5c0 -37.333 3.16699 -71.333 9.5 -102s16.666 -57 30.999 -79s32.833 -39 55.5 -51
s50 -18 82 -18c33.333 0 64.5 7 93.5 21s56.167 33 81.5 57s48.333 51.667 69 83s39.334 64.666 56.001 99.999s30.834 71.166 42.501 107.499s21.167 71.166 28.5 104.499z" />
    <glyph glyph-name="e" unicode="e" horiz-adv-x="997" 
d="M958 784c0 -54 -11.9951 -103.168 -35.9951 -147.501s-63.667 -82.333 -119 -114s-128.333 -56.167 -219 -73.5s-202.667 -26.333 -336 -27c-1.33301 -7.33301 -2 -15 -2 -23v-20c0 -36 5 -70 15 -102s25.5 -60 46.5 -84s48 -43 81 -57s72.167 -21 117.5 -21
c46 0 96.5 8.83301 151.5 26.5s107.5 42.834 157.5 75.501l-31 -162c-36.667 -21.333 -80.334 -40 -131.001 -56s-107.334 -24 -170.001 -24c-75.333 0 -138.833 11.667 -190.5 35s-93.334 54.5 -125.001 93.5s-54.5 84 -68.5 135s-21 104.5 -21 160.5
c0 60 6.66699 117.833 20 173.5s32.166 107.5 56.499 155.5s53.5 91.833 87.5 131.5s71.667 73.5 113 101.5s85.666 49.667 132.999 65s96.333 23 147 23c52.667 0 99.167 -7 139.5 -21s74 -33.167 101 -57.5s47.5 -52.5 61.5 -84.5s21 -66 21 -102zM791.005 775.999
c0 42 -15.5 74.666 -46.5 97.999s-72.167 35 -123.5 35c-40.667 0 -80 -8.83301 -118 -26.5s-73 -42 -105 -73s-59.667 -68 -83 -111s-40.333 -89.5 -51 -139.5c95.333 0 176.333 4.83301 243 14.5s121 23.834 163 42.501s72.667 41.5 92 68.5s29 57.5 29 91.5z" />
    <glyph glyph-name="f" unicode="f" horiz-adv-x="604" 
d="M823 1374c-6.66699 3.33301 -14.667 6.5 -24 9.5s-19.333 5.83301 -30 8.5s-21.834 4.83398 -33.501 6.50098s-22.834 2.5 -33.501 2.5c-54.667 0 -96.834 -17.833 -126.501 -53.5s-52.167 -88.834 -67.5 -159.501l-37 -164h242l-33 -139h-242l-262 -1225h-166l264 1225
h-176l31 139h176l41 190c12.667 58.667 30.334 108.667 53.001 150s49.667 75 81 101s66.833 45 106.5 57s83.167 18 130.5 18c24.667 0 48.834 -2 72.501 -6s43.834 -8.66699 60.501 -14z" />
    <glyph glyph-name="g" unicode="g" horiz-adv-x="1110" 
d="M850 74c-16.667 -80 -38.6729 -153.828 -66.0059 -221.495s-63.5 -126.334 -108.5 -176.001s-100.5 -88.334 -166.5 -116.001s-146.333 -41.5 -241 -41.5c-65.333 0 -122.166 7.66699 -170.499 23s-92.5 33.666 -132.5 54.999l31 153
c42 -25.333 86.667 -46.666 134 -63.999s98.333 -26 153 -26c59.333 0 110.833 8.66699 154.5 26s81.334 42.833 113.001 76.5s58 74.834 79 123.501s38.5 104.334 52.5 167.001l35 160h-4c-25.333 -40.667 -50.166 -75.834 -74.499 -105.501s-49.833 -54.334 -76.5 -74.001
s-54.667 -34.334 -84 -44.001s-61.666 -14.5 -96.999 -14.5c-46 0 -87.667 8.16699 -125 24.5s-69.166 40.5 -95.499 72.5s-46.666 72 -60.999 120s-21.5 103.333 -21.5 166c0 59.333 6.5 117.666 19.5 174.999s31.833 111.666 56.5 162.999s54.834 98.5 90.501 141.5
s76.167 80.167 121.5 111.5s95.166 55.833 149.499 73.5s112.5 26.5 174.5 26.5s124 -4 186 -12s119 -17 171 -27zM857.994 889.005c-22.667 5.33301 -50.1689 10.002 -82.502 14.002s-66.833 6 -103.5 6c-62.667 0 -120 -14.5 -172 -43.5s-96.833 -68.333 -134.5 -118
s-67 -107.5 -88 -173.5s-31.5 -135.667 -31.5 -209c0 -36 3.16699 -69.333 9.5 -100s16.333 -57 30 -79s31.334 -39.333 53.001 -52s48.167 -19 79.5 -19c36.667 0 70.5 7.66699 101.5 23s59.5 35.666 85.5 60.999s49.167 54.166 69.5 86.499s38.333 65.5 54 99.5
s28.834 67.5 39.501 100.5s19 62.833 25 89.5z" />
    <glyph glyph-name="h" unicode="h" horiz-adv-x="1141" 
d="M1036 766c0 -8.66699 -1.16602 -21.834 -3.49902 -39.501s-5 -36.5 -8 -56.5s-6.33301 -39.833 -10 -59.5s-7.16699 -36.167 -10.5 -49.5l-119 -561h-166l125 600c2.66699 10.667 5.33398 23 8.00098 37s5 28 7 42s3.66699 26.833 5 38.5s2 20.834 2 27.501
c0 52 -11.833 92.333 -35.5 121s-60.167 43 -109.5 43c-42.667 0 -85.334 -12.5 -128.001 -37.5s-82.334 -57.333 -119.001 -97s-68.5 -84 -95.5 -133s-45.833 -97.5 -56.5 -145.5l-107 -496h-166l324 1516h164l-156 -732h4c24.667 38 51.667 73.167 81 105.5
s60.5 60.333 93.5 84s67.667 42.167 104 55.5s73.833 20 112.5 20c85.333 0 150 -25.167 194 -75.5s66 -119.5 66 -207.5z" />
    <glyph glyph-name="i" unicode="i" horiz-adv-x="530" 
d="M416 4c-16.667 -5.33301 -35.5 -9.66992 -56.5 -13.0029s-41.833 -5 -62.5 -5c-67.333 0 -117.666 16.833 -150.999 50.5s-50 78.834 -50 135.501c0 16.667 1.66699 36.334 5 59.001s8.66602 50.667 15.999 84l149 709h166l-150 -713c-6 -28 -10.167 -49.667 -12.5 -65
s-3.5 -28.333 -3.5 -39c0 -27.333 7.5 -48.166 22.5 -62.499s38.833 -21.5 71.5 -21.5c17.333 0 32.5 1 45.5 3s25.167 5 36.5 9zM533 1389c0 -30 -10.167 -55.667 -30.5 -77s-45.5 -32 -75.5 -32c-29.333 0 -54.833 10.5 -76.5 31.5s-32.5 46.833 -32.5 77.5
s10.833 55.667 32.5 75s47.167 29 76.5 29s54.333 -9.83301 75 -29.5s31 -44.5 31 -74.5z" />
    <glyph glyph-name="j" unicode="j" horiz-adv-x="492" 
d="M225 47c-36.667 -176 -93.5 -308.004 -170.5 -396.004s-176.5 -132 -298.5 -132c-11.333 0 -23.5 0.666992 -36.5 2s-26 3.33301 -39 6s-25.667 5.83398 -38 9.50098s-23.5 7.83398 -33.5 12.501l29 154c8 -5.33301 17.333 -10.666 28 -15.999s22 -10.166 34 -14.499
s24.167 -7.83301 36.5 -10.5s23.833 -4 34.5 -4c68.667 0 126.667 29.667 174 89s83.333 149 108 269l215 1008h164zM533 1389c0 -30 -10.167 -55.667 -30.5 -77s-45.5 -32 -75.5 -32c-29.333 0 -54.833 10.5 -76.5 31.5s-32.5 46.833 -32.5 77.5s10.833 55.667 32.5 75
s47.167 29 76.5 29s54.333 -9.83301 75 -29.5s31 -44.5 31 -74.5z" />
    <glyph glyph-name="k" unicode="k" horiz-adv-x="1004" 
d="M498 551l362 -551h-190l-336 541h-4l-115 -541h-166l324 1516h164l-197 -926h4l510 434h213z" />
    <glyph glyph-name="l" unicode="l" horiz-adv-x="530" 
d="M416 4c-16.667 -5.33301 -35.5 -9.66992 -56.5 -13.0029s-41.833 -5 -62.5 -5c-67.333 0 -117.666 16.833 -150.999 50.5s-50 78.834 -50 135.501c0 16.667 1.66699 36.334 5 59.001s8.66602 50.667 15.999 84l256 1202h166l-257 -1206c-6 -28 -10.167 -49.667 -12.5 -65
s-3.5 -28.333 -3.5 -39c0 -27.333 7.5 -48.166 22.5 -62.499s38.833 -21.5 71.5 -21.5c17.333 0 32.5 1 45.5 3s25.167 5 36.5 9z" />
    <glyph glyph-name="m" unicode="m" horiz-adv-x="1757" 
d="M1653 766c0 -8.66699 -1.16113 -21.8369 -3.49414 -39.5039s-5.33301 -36.5 -9 -56.5l-11 -59.5l-9.5 -49.5l-121 -561h-164l125 600c2.66699 11.333 5.33398 24 8.00098 38s5.16699 27.833 7.5 41.5s4.16602 26.334 5.49902 38.001s2 20.834 2 27.501
c0 52.667 -11.333 93.167 -34 121.5s-58 42.5 -106 42.5c-25.333 0 -51.5 -5.83301 -78.5 -17.5s-53.333 -27.5 -79 -47.5s-50.334 -43.333 -74.001 -70s-45.334 -55.167 -65.001 -85.5s-36.5 -61.333 -50.5 -93s-24.333 -62.834 -31 -93.501l-107 -502h-166l127 600
c2.66699 11.333 5.33398 24 8.00098 38s5.16699 27.833 7.5 41.5s4.16602 26.334 5.49902 38.001s2 20.834 2 27.501c0 52.667 -11.667 93.167 -35 121.5s-58.333 42.5 -105 42.5c-26 0 -52.667 -5.83301 -80 -17.5s-54 -27.667 -80 -48s-50.833 -44 -74.5 -71
s-45.334 -55.667 -65.001 -86s-36.334 -61.333 -50.001 -93s-23.834 -62.834 -30.501 -93.501l-107 -500h-166l158 731l16 81.5l15 82c4.66699 26.333 8.66699 50.833 12 73.5l8 56h160c-3.33301 -26 -7.33301 -53.167 -12 -81.5s-8.66699 -54.5 -12 -78.5
c-4 -28 -8.33301 -55.333 -13 -82h4c24 38.667 50 74.334 78 107.001s57.667 60.834 89 84.501s64 42.167 98 55.5s69.333 20 106 20c42.667 0 79.334 -6.33301 110.001 -19s56.167 -30.5 76.5 -53.5s35.833 -50.833 46.5 -83.5s17 -69 19 -109
c24.667 37.333 51.167 72.166 79.5 104.499s58.666 60.333 90.999 84s66.666 42.334 102.999 56.001s74.833 20.5 115.5 20.5c85.333 0 149.333 -24.833 192 -74.5s64 -119.167 64 -208.5z" />
    <glyph glyph-name="n" unicode="n" horiz-adv-x="1151" 
d="M1046 768c0 -10 -1.16895 -23.665 -3.50195 -40.998s-5.33301 -36 -9 -56l-11 -59.5c-3.66699 -19.667 -7.16699 -36.5 -10.5 -50.5l-119 -561h-166l125 600c2.66699 10.667 5.33398 23 8.00098 37s5 28 7 42s3.66699 26.833 5 38.5s2 20.834 2 27.501
c0 50.667 -12.167 90.667 -36.5 120s-60.5 44 -108.5 44c-44 0 -87.667 -13 -131 -39s-83.333 -59 -120 -99s-68.167 -84 -94.5 -132s-44.166 -94.333 -53.499 -139l-107 -500h-166l158 731l16 81.5l15 82c4.66699 26.333 8.66699 50.833 12 73.5l8 56h160
c-3.33301 -26 -7.33301 -53.167 -12 -81.5s-8.66699 -54.5 -12 -78.5c-4 -28 -8.33301 -55.333 -13 -82h4c23.333 36.667 49.166 71.167 77.499 103.5s59 60.666 92 84.999s68 43.5 105 57.5s75.833 21 116.5 21c45.333 0 84.333 -6.83301 117 -20.5
s59.834 -32.834 81.501 -57.501s37.667 -54.334 48 -89.001s15.5 -72.667 15.5 -114z" />
    <glyph glyph-name="o" unicode="o" horiz-adv-x="1096" 
d="M1018 645c0 -90.667 -12.832 -176.666 -38.499 -257.999s-62.667 -152.5 -111 -213.5s-107 -109.333 -176 -145s-146.833 -53.5 -233.5 -53.5c-58.667 0 -111.5 9.33301 -158.5 28s-87 45.5 -120 80.5s-58.333 77.333 -76 127s-26.5 105.834 -26.5 168.501
c0 94 13.5 181.833 40.5 263.5s65 152.667 114 213s107.667 107.666 176 141.999s143.833 51.5 226.5 51.5c58 0 110.5 -9.33301 157.5 -28s87.167 -45.5 120.5 -80.5s59.166 -77.333 77.499 -127s27.5 -105.834 27.5 -168.501zM850.001 637.001
c0 43.333 -5.33301 81.834 -16 115.501s-25.667 62 -45 85s-42.666 40.667 -69.999 53s-58 18.5 -92 18.5c-58.667 0 -111.667 -15 -159 -45s-87.333 -69.5 -120 -118.5s-57.834 -104.667 -75.501 -167s-26.5 -126.166 -26.5 -191.499
c0 -41.333 5.16699 -78.833 15.5 -112.5s25 -62.334 44 -86.001s42.333 -41.834 70 -54.501s58.834 -19 93.501 -19c59.333 0 112.666 14.833 159.999 44.5s87.333 69 120 118s57.667 104.833 75 167.5s26 126.667 26 192z" />
    <glyph glyph-name="p" unicode="p" horiz-adv-x="1110" 
d="M1032 666c0 -49.333 -5.3291 -100.503 -15.9961 -153.503s-27 -105.167 -49 -156.5s-49.5 -100 -82.5 -146s-71.833 -86.5 -116.5 -121.5s-95.334 -62.667 -152.001 -83s-119.334 -30.5 -188.001 -30.5c-39.333 0 -78.166 3.66699 -116.499 11s-71.833 16 -100.5 26
l-102 -487h-166l250 1184c4.66699 21.333 9 47 13 77s7.5 60.167 10.5 90.5s5.5 58.833 7.5 85.5s3 47.334 3 62.001h168c0 -11.333 -0.833008 -26.666 -2.5 -45.999s-3.83398 -39.5 -6.50098 -60.5l-8 -61c-2.66699 -19.667 -5 -35.5 -7 -47.5h4
c47.333 80.667 100.666 140.834 159.999 180.501s124 59.5 194 59.5c46.667 0 88.667 -8 126 -24s69.166 -40 95.499 -72s46.5 -72 60.5 -120s21 -103.667 21 -167zM864.004 658.997c0 36 -3.16602 69.332 -9.49902 99.999s-16.833 57 -31.5 79s-33.5 39.333 -56.5 52
s-51.167 19 -84.5 19c-34.667 0 -67.167 -7.16699 -97.5 -21.5s-58.5 -33.5 -84.5 -57.5s-49.667 -51.833 -71 -83.5s-40.333 -64.5 -57 -98.5s-30.834 -68.167 -42.501 -102.5s-20.5 -66.5 -26.5 -96.5l-63 -297c12 -5.33301 26.333 -10.166 43 -14.499
s34 -8.16602 52 -11.499s36.333 -6 55 -8s36 -3 52 -3c46 0 88.5 7.66699 127.5 23s74 36.166 105 62.499s58.333 57.333 82 93s43.5 73.667 59.5 114s28 82 36 125s12 85.167 12 126.5z" />
    <glyph glyph-name="q" unicode="q" horiz-adv-x="1110" 
d="M735 -475l-165.998 0.00488281l101 473c6 32.667 13.167 67 21.5 103s16.166 68 23.499 96h-2c-22.667 -34.667 -46.167 -65.834 -70.5 -93.501s-50 -51 -77 -70s-55.667 -33.5 -86 -43.5s-63.166 -15 -98.499 -15c-46.667 0 -88.834 8.33301 -126.501 25
s-69.5 41.334 -95.5 74.001s-46 72.667 -60 120s-21 102 -21 164c0 44 4.5 91.667 13.5 143s23.667 102.666 44 153.999s46.666 100.666 78.999 147.999s71.833 89.166 118.5 125.499s101 65.5 163 87.5s132.333 33 211 33c36 0 70.833 -1.66699 104.5 -5
s65 -7.33301 94 -12s55.5 -9.83398 79.5 -15.501s44.667 -10.834 62 -15.501zM858.002 885.005c-23.333 6 -48.6689 11.501 -76.002 16.501s-58.666 7.5 -93.999 7.5c-56.667 0 -107 -9 -151 -27s-82.5 -41.833 -115.5 -71.5s-60.667 -63.5 -83 -101.5
s-40.333 -77.167 -54 -117.5s-23.5 -80.166 -29.5 -119.499s-9 -75 -9 -107c0 -36 3 -69.333 9 -100s16 -57 30 -79s32.333 -39.333 55 -52s50.667 -19 84 -19c34.667 0 67 7.33301 97 22s57.667 34.167 83 58.5s48.333 52.166 69 83.499s38.834 64.166 54.501 98.499
s29 68.5 40 102.5s19.5 65.667 25.5 95z" />
    <glyph glyph-name="r" unicode="r" horiz-adv-x="727" 
d="M766 850l-3.99805 -0.00195312c-13.333 8 -30.833 15.833 -52.5 23.5s-43.167 11.5 -64.5 11.5c-38.667 0 -75.667 -12.5 -111 -37.5s-67.5 -58 -96.5 -99s-54.333 -87.833 -76 -140.5s-38.5 -106.667 -50.5 -162l-96 -446h-164l144 680l18 88
c6 30.667 11.5 61.334 16.5 92.001s9.5 60 13.5 88s7 53.333 9 76h162c-2 -20 -4.33301 -41.167 -7 -63.5l-8 -65c-2.66699 -21 -5.33398 -40 -8.00098 -57s-4.66699 -30.167 -6 -39.5h4c21.333 38 43 72.333 65 103s45.167 56.834 69.5 78.501s50.166 38.5 77.499 50.5
s57 18 89 18c18.667 0 37.167 -1.83301 55.5 -5.5s34.833 -7.5 49.5 -11.5z" />
    <glyph glyph-name="s" unicode="s" horiz-adv-x="809" 
d="M725 844c-30 19.333 -63.667 34.9941 -101 46.9941s-74.666 18 -111.999 18c-62.667 0 -111.167 -14.333 -145.5 -43s-51.5 -66.667 -51.5 -114c0 -19.333 3.16699 -37 9.5 -53s15.666 -31.167 27.999 -45.5s28 -28.166 47 -41.499s40.833 -27.666 65.5 -42.999
c74.667 -43.333 128.5 -87.833 161.5 -133.5s49.5 -97.167 49.5 -154.5c0 -38.667 -7.16699 -76.5 -21.5 -113.5s-37.166 -69.667 -68.499 -98s-71.833 -51.166 -121.5 -68.499s-110.167 -26 -181.5 -26c-20 0 -42 1.33301 -66 4s-48.167 6.66699 -72.5 12
s-47.666 11.833 -69.999 19.5s-41.833 16.5 -58.5 26.5l33 156c13.333 -9.33301 29.833 -18.666 49.5 -27.999s41 -17.666 64 -24.999s47 -13.333 72 -18s49.833 -7 74.5 -7c66.667 0 116.5 13.333 149.5 40s49.5 63.667 49.5 111c0 17.333 -2.5 33.333 -7.5 48
s-13.833 29.334 -26.5 44.001s-29.334 29.5 -50.001 44.5s-46.667 31.833 -78 50.5c-68 41.333 -118.167 84.5 -150.5 129.5s-48.5 95.833 -48.5 152.5c0 41.333 7.66699 80.833 23 118.5s38.166 71 68.499 100s68.5 52.167 114.5 69.5s99.667 26 161 26
c48 0 93.5 -4.66699 136.5 -14s79.5 -21.333 109.5 -36z" />
    <glyph glyph-name="t" unicode="t" horiz-adv-x="662" 
d="M690 885h-258l-115 -543c-4 -20.667 -8 -43 -12 -67s-6 -43.333 -6 -58c0 -34 7.5 -58.5 22.5 -73.5s38.833 -22.5 71.5 -22.5c8 0 18.333 1.33301 31 4s25.667 6 39 10s26.5 8.5 39.5 13.5l34.5 13.5l-31 -144c-23.333 -10 -49.833 -18.5 -79.5 -25.5
s-57.834 -10.5 -84.501 -10.5c-38 0 -70.333 4.83301 -97 14.5s-48.5 23.5 -65.5 41.5s-29.333 39.833 -37 65.5s-11.5 54.5 -11.5 86.5c0 19.333 1.83301 41.833 5.5 67.5s8.16699 49.167 13.5 70.5l118 557h-170l31 139h168l53 250c2.66699 1.33301 12.834 4.5 30.501 9.5
l58 17l58 17.5c17.667 5.33301 27.5 8.33301 29.5 9l-63 -303h258z" />
    <glyph glyph-name="u" unicode="u" horiz-adv-x="1143" 
d="M930 291c-6 -26 -11.499 -53.0029 -16.499 -81.0029l-14.5 -81c-4.66699 -26 -8.66699 -50.333 -12 -73l-8 -56h-160c3.33301 26 7.16602 53.167 11.499 81.5l12.5 78.5c4.66699 28 9 55.333 13 82h-4c-23.333 -36.667 -49.166 -71.167 -77.499 -103.5
s-59 -60.666 -92 -84.999s-68 -43.5 -105 -57.5s-75.5 -21 -115.5 -21c-44 0 -82.5 6.83301 -115.5 20.5s-60.5 32.834 -82.5 57.501s-38.5 54.334 -49.5 89.001s-16.5 73.334 -16.5 116.001c0 8.66699 1.33301 21.667 4 39l9 56c3.33301 20 7.16602 39.833 11.499 59.5
s7.83301 36.5 10.5 50.5l119 561h166l-127 -600c-2.66699 -10.667 -5.33398 -23 -8.00098 -37s-5.16699 -28 -7.5 -42s-4.16602 -26.833 -5.49902 -38.5s-2 -20.834 -2 -27.501c0 -50 12.167 -89.833 36.5 -119.5s60.833 -44.5 109.5 -44.5c29.333 0 58.666 6 87.999 18
s57.833 28.167 85.5 48.5s53.834 44 78.501 71s47 55.667 67 86s37 61.5 51 93.5s24.333 62.667 31 92l107 500h165z" />
    <glyph glyph-name="v" unicode="v" horiz-adv-x="969" 
d="M438 0l-139.001 0.000976562l-162 1024h166l90 -645c2 -12.667 3.83301 -27 5.5 -43l5 -49c1.66699 -16.667 2.83398 -33 3.50098 -49s1 -30.333 1 -43h4l18.5 41c7 15.333 14.833 31.166 23.5 47.499l26.5 49.5l25.5 46l366 645h187z" />
    <glyph glyph-name="w" unicode="w" horiz-adv-x="1475" 
d="M1024 0l-161.999 0.000976562l-59 727c-0.666992 6 -1 13.667 -1 23s0.166992 18.666 0.5 27.999s1 18.5 2 27.5s1.83301 16.167 2.5 21.5h-4c-2 -6.66699 -4.66699 -14.334 -8 -23.001l-11 -27.5c-4 -9.66699 -8.16699 -19 -12.5 -28l-11.5 -23.5l-383 -725h-162
l-90 1024h158l49 -766c1.33301 -14.667 1.5 -30.5 0.5 -47.5s-2.5 -33.167 -4.5 -48.5h6l18.5 51.5c7 19 13.833 35.167 20.5 48.5l399 762h146l57 -768c1.33301 -15.333 1.16602 -31.833 -0.500977 -49.5s-3.5 -33.167 -5.5 -46.5h8c1.33301 6.66699 3.5 14.167 6.5 22.5
l9.5 26c3.33301 9 6.83301 17.833 10.5 26.5s7.16699 16.334 10.5 23.001l368 766h166z" />
    <glyph glyph-name="x" unicode="x" horiz-adv-x="932" 
d="M559 500l236 -500l-181 -2l-129 321l-16.5 43l-19.5 50h-5l-16.5 -22.5l-18.5 -24.5l-17.5 -22.5l-14.5 -18.5l-268 -324h-195l461 510l-230 514h181l123 -326c6 -16 12 -33.333 18 -52l14 -44h4c4 4.66699 8.66699 10.5 14 17.5l17 22.5l18.5 24
c6.33301 8 12.5 15.333 18.5 22l278 336h187z" />
    <glyph glyph-name="y" unicode="y" horiz-adv-x="991" 
d="M367 -170c-30.667 -50 -61.668 -94.166 -93.001 -132.499s-64.166 -70.833 -98.499 -97.5s-71 -46.834 -110 -60.501s-81.833 -20.5 -128.5 -20.5c-15.333 0 -32.5 1.5 -51.5 4.5s-34.167 6.16699 -45.5 9.5l31 145c10 -5.33301 23 -9.66602 39 -12.999s31.667 -5 47 -5
c46 0 87.5 12.667 124.5 38s71.833 64 104.5 116l123 190l-186 1020h170l119 -786c2 -14.667 3.16699 -28.834 3.5 -42.501s-0.166992 -25.5 -1.5 -35.5h6c3.33301 8 8.5 19.333 15.5 34s14.833 28.667 23.5 42l454 788h181z" />
    <glyph glyph-name="z" unicode="z" horiz-adv-x="926" 
d="M981 975l-768 -836h582l-31 -139h-842l12 53l768 832h-534l31 139h792z" />
    <glyph glyph-name="braceleft" unicode="{" horiz-adv-x="623" 
d="M709 1309c-51.333 0 -93.8301 -15.0029 -127.497 -45.0029s-58.167 -80.667 -73.5 -152l-62 -283c-16 -74.667 -40.333 -135.167 -73 -181.5s-73.667 -77.166 -123 -92.499v-4c25.333 -12.667 46.666 -33.167 63.999 -61.5s26 -67.166 26 -116.499
c0 -14.667 -0.666992 -29.667 -2 -45s-4 -31.666 -8 -48.999l-56 -259c-3.33301 -17.333 -6.16602 -33.666 -8.49902 -48.999s-3.5 -29.666 -3.5 -42.999c0 -40 10.5 -69.167 31.5 -87.5s53.5 -28.5 97.5 -30.5l-26 -121c-44 0.666992 -81.833 6.66699 -113.5 18
s-57.667 26.833 -78 46.5s-35.166 42.667 -44.499 69s-14 55.5 -14 87.5c0 14.667 0.833008 29.167 2.5 43.5s4.16699 29.166 7.5 44.499l61 285c3.33301 14 5.66602 27.667 6.99902 41s2 26 2 38c0 42 -10 75.333 -30 100s-51 38.667 -93 42l26 114
c55.333 3.33301 99.166 21.5 131.499 54.5s56.166 85.167 71.499 156.5l61 289c13.333 63.333 32 115.166 56 155.499s52.167 72.333 84.5 96s68.166 40.167 107.499 49.5s81 14.333 125 15z" />
    <glyph glyph-name="bar" unicode="|" horiz-adv-x="492" 
d="M174 -481v2048h145v-2048h-145z" />
    <glyph glyph-name="braceright" unicode="}" horiz-adv-x="623" 
d="M524 504c-27.333 -1.33301 -51.833 -6.33496 -73.5 -15.002s-40.834 -21.5 -57.501 -38.5s-30.834 -38.5 -42.501 -64.5s-21.167 -57 -28.5 -93l-62 -287c-13.333 -63.333 -31.833 -115.333 -55.5 -156s-51.5 -72.667 -83.5 -96s-67.667 -39.666 -107 -48.999
s-81 -14 -125 -14l25 123c52 0.666992 95 16 129 46s58.667 80.667 74 152l59 281c16.667 74.667 41.334 135.5 74.001 182.5s74.334 78.167 125.001 93.5v4c-25.333 12.667 -47 33.167 -65 61.5s-27 67.5 -27 117.5c0 13.333 0.833008 28 2.5 44s4.16699 32.667 7.5 50
l55 258c8 33.333 12 63.333 12 90c0 40 -10 69.5 -30 88.5s-52.333 29.167 -97 30.5l25 121c44.667 -0.666992 82.834 -6.5 114.501 -17.5s57.5 -26.167 77.5 -45.5s34.667 -42.333 44 -69s14 -56 14 -88c0 -14 -0.833008 -28.333 -2.5 -43s-4.16699 -29.667 -7.5 -45
l-60 -284c-3.33301 -15.333 -5.83301 -29.5 -7.5 -42.5s-2.5 -25.5 -2.5 -37.5c0 -43.333 10.167 -77.166 30.5 -101.499s51.166 -37.5 92.499 -39.5z" />
    <glyph glyph-name="asciitilde" unicode="~" horiz-adv-x="1403" 
d="M1210 750c-2 -44.667 -9.17285 -86 -21.5059 -124s-30 -70.667 -53 -98s-51.667 -48.833 -86 -64.5s-74.166 -23.5 -119.499 -23.5c-26 0 -50.333 2.83301 -73 8.5s-44.5 13.5 -65.5 23.5s-41.5 21.667 -61.5 35l-62 42c-12 8 -24.5 15.833 -37.5 23.5
s-26.333 14.834 -40 21.501s-27.667 12 -42 16s-28.5 6 -42.5 6c-46 0 -81.167 -15.167 -105.5 -45.5s-37.833 -73.833 -40.5 -130.5h-135c2 45.333 9.33301 87 22 125s30.667 70.667 54 98s52.166 48.666 86.499 63.999s73.833 23 118.5 23c25.333 0 49 -2.5 71 -7.5
s42.5 -11.667 61.5 -20s36.833 -17.833 53.5 -28.5l49 -32l58.5 -39.5c17 -11.667 32.833 -21.167 47.5 -28.5s29.334 -13 44.001 -17s30.334 -6 47.001 -6c20.667 0 39.334 4.33301 56.001 13s30.834 21 42.501 37s20.834 35 27.501 57s10.334 46 11.001 72h135z" />
    <glyph glyph-name="nonbreakingspace" unicode="&#xa0;" horiz-adv-x="563" 
 />
    <glyph glyph-name="exclamdown" unicode="&#xa1;" horiz-adv-x="653" 
d="M520 942c0 -15.333 -2.83301 -29.833 -8.5 -43.5s-13.5 -25.667 -23.5 -36s-21.5 -18.5 -34.5 -24.5s-26.833 -9 -41.5 -9c-15.333 0 -29.833 3 -43.5 9s-25.5 14.167 -35.5 24.5s-17.833 22.333 -23.5 36s-8.5 28.167 -8.5 43.5s2.83301 29.833 8.5 43.5
s13.5 25.5 23.5 35.5s21.833 17.833 35.5 23.5s28.167 8.5 43.5 8.5c14.667 0 28.5 -2.83301 41.5 -8.5s24.5 -13.5 34.5 -23.5s17.833 -21.833 23.5 -35.5s8.5 -28.167 8.5 -43.5zM221 -399h-172l238 1030h135z" />
    <glyph glyph-name="cent" unicode="&#xa2;" horiz-adv-x="1104" 
d="M999 993c-19.333 21.333 -44 40.166 -74 56.499s-64 27.5 -102 33.5l-166 -780c40 4 78.5 14 115.5 30s74.5 38 112.5 66l-33 -168c-28.667 -18 -61.834 -33.833 -99.501 -47.5s-79.5 -22.167 -125.5 -25.5l-43 -207h-127l43 211c-50 8.66699 -94.167 25.167 -132.5 49.5
s-70.666 54.5 -96.999 90.5s-46.333 77 -60 123s-20.5 95.333 -20.5 148c0 57.333 4.83301 110.5 14.5 159.5s23.167 94.5 40.5 136.5s38 80.667 62 116s50 67.333 78 96c22.667 22.667 47.5 42.667 74.5 60s55.333 32 85 44s60 21.5 91 28.5s61.5 11.5 91.5 13.5l39 186
h127l-39 -190c41.333 -5.33301 78.333 -13.166 111 -23.499s57 -21.833 73 -34.5zM696 1079c-40 -8 -76.999 -21.834 -110.999 -41.501s-64.333 -44.5 -91 -74.5c-20.667 -23.333 -39.334 -49.5 -56.001 -78.5s-30.5 -59.833 -41.5 -92.5s-19.5 -66.5 -25.5 -101.5
s-9 -69.833 -9 -104.5c0 -75.333 15.5 -135.666 46.5 -180.999s72.167 -75.333 123.5 -90z" />
    <glyph glyph-name="sterling" unicode="&#xa3;" horiz-adv-x="1104" 
d="M1100 1262c-28 18 -58.501 32.001 -91.501 42.001s-67.5 15 -103.5 15c-73.333 0 -135.333 -24.833 -186 -74.5s-87.667 -129.834 -111 -240.501l-49 -228h297l-31 -141h-295l-41 -184c-15.333 -75.333 -43 -138.833 -83 -190.5s-91.333 -92.167 -154 -121.5h688
l-29 -139h-901l31 135c79.333 22.667 142.5 61 189.5 115s78.833 120.333 95.5 199l39 186h-197l29 141h198l56 260c15.333 70.667 37.5 132.5 66.5 185.5s63.333 97 103 132s84.334 61.167 134.001 78.5s102.5 26 158.5 26c46.667 0 89 -4 127 -12s69 -17.667 93 -29z" />
    <glyph glyph-name="currency" unicode="&#xa4;" horiz-adv-x="1139" 
d="M983 258l-138.999 137.001c-37.333 -26.667 -76.333 -46 -117 -58s-81 -18 -121 -18c-37.333 0 -76.833 5.5 -118.5 16.5s-81.834 30.833 -120.501 59.5l-138 -137l-92 96l137 133c-29.333 44 -49.166 86.833 -59.499 128.5s-15.5 78.167 -15.5 109.5
c0 33.333 5.16699 70.666 15.5 111.999s30.166 83.333 59.499 126l-137 135l92 96l138 -137c40 28.667 80.5 48.834 121.5 60.501s80.167 17.5 117.5 17.5s77 -6.33301 119 -19s81.667 -32.334 119 -59.001l139 137l92 -96l-137 -135c30.667 -46 51 -89.5 61 -130.5
s15 -76.833 15 -107.5c0 -32 -5.16699 -68.167 -15.5 -108.5s-30.5 -83.5 -60.5 -129.5l137 -133zM883.001 727.001c0 40 -7.83301 76.832 -23.5 110.499s-36.5 62.5 -62.5 86.5s-55.667 42.833 -89 56.5s-67.333 20.5 -102 20.5c-38 0 -73.667 -7.16699 -107 -21.5
s-62.333 -34 -87 -59s-44.167 -54.167 -58.5 -87.5s-21.5 -68.666 -21.5 -105.999c0 -38 7.16699 -73.667 21.5 -107s34 -62.333 59 -87s54 -44.167 87 -58.5s68.5 -21.5 106.5 -21.5s73.833 7.16699 107.5 21.5s63 33.833 88 58.5s44.833 53.667 59.5 87s22 69 22 107z" />
    <glyph glyph-name="yen" unicode="&#xa5;" horiz-adv-x="1104" 
d="M741 778l285.001 -0.000976562l-29 -139h-335l-44 -207h334l-28 -139h-334l-64 -293h-164l64 293h-342l29 139h342l43 207h-342l30 139h291l-213 656h174l146 -525c7.33301 -25.333 13 -46.5 17 -63.5s7 -32.5 9 -46.5h6c9.33301 18.667 20.166 37.334 32.499 56.001
l41.5 60l359 519h190z" />
    <glyph glyph-name="brokenbar" unicode="&#xa6;" horiz-adv-x="492" 
d="M174 715v852h145v-852h-145zM174 -481v852h145v-852h-145z" />
    <glyph glyph-name="section" unicode="&#xa7;" horiz-adv-x="918" 
d="M893 1305c-24.667 15.333 -54.502 28.6699 -89.502 40.0029s-70.167 17 -105.5 17c-30.667 0 -59 -3.33301 -85 -10s-48.333 -16.834 -67 -30.501s-33.167 -30.5 -43.5 -50.5s-15.5 -43 -15.5 -69c0 -24.667 4.5 -46.667 13.5 -66s21 -37 36 -53s32.5 -30.833 52.5 -44.5
l62 -41.5c38.667 -24.667 70.334 -48.667 95.001 -72s44.167 -46.666 58.5 -69.999s24.166 -46.833 29.499 -70.5s8 -48.167 8 -73.5c0 -33.333 -5.83301 -65.333 -17.5 -96s-27.667 -59 -48 -85s-44.166 -48.833 -71.499 -68.5s-57 -35.5 -89 -47.5
c19.333 -27.333 33.833 -53.5 43.5 -78.5s14.5 -53.5 14.5 -85.5c0 -40.667 -7 -80 -21 -118s-36.333 -71.667 -67 -101s-70.5 -52.833 -119.5 -70.5s-108.167 -26.5 -177.5 -26.5c-24 0 -48.167 1.5 -72.5 4.5s-47.5 6.83301 -69.5 11.5s-42 10 -60 16s-32.667 12 -44 18
l31 151c15.333 -10 32.5 -19.5 51.5 -28.5s38.667 -16.667 59 -23s40.833 -11.333 61.5 -15s40.334 -5.5 59.001 -5.5c68.667 0 121.334 13.667 158.001 41s55 65.666 55 114.999c0 22 -3.83301 42.167 -11.5 60.5s-18.834 35.666 -33.501 51.999s-33 32.666 -55 48.999
s-47.333 33.5 -76 51.5c-23.333 15.333 -45.333 32.166 -66 50.499s-38.667 38.5 -54 60.5s-27.5 46 -36.5 72s-13.5 54.333 -13.5 85c0 37.333 6.33301 71.333 19 102s29.5 58.167 50.5 82.5s45.333 45.5 73 63.5s56.5 33 86.5 45c-18 23.333 -34 50 -48 80
s-21 61.333 -21 94c0 58.667 10.833 108.5 32.5 149.5s50 74.5 85 100.5s74.667 44.833 119 56.5s88.833 17.5 133.5 17.5c17.333 0 35.833 -1 55.5 -3s39.5 -4.66699 59.5 -8s39.167 -7.66602 57.5 -12.999s34.833 -11 49.5 -17zM683.998 688.004
c0 14 -1.66699 28.1689 -5 42.502s-9.66602 29.166 -18.999 44.499s-22 30.666 -38 45.999s-37 31 -63 47c-14.667 9.33301 -27.834 18.166 -39.501 26.499l-40.5 29.5c-45.333 -18.667 -81.5 -44.167 -108.5 -76.5s-40.5 -70.5 -40.5 -114.5c0 -18.667 1.5 -35.5 4.5 -50.5
s9.33301 -29.833 19 -44.5s23.167 -29.667 40.5 -45s40.333 -32.666 69 -51.999c13.333 -9.33301 26.833 -18.166 40.5 -26.499s26.167 -18.833 37.5 -31.5c49.333 22.667 85.5 52.667 108.5 90s34.5 75.666 34.5 114.999z" />
    <glyph glyph-name="dieresis" unicode="&#xa8;" horiz-adv-x="715" 
d="M799 1317c0 -28 -9.66992 -51.333 -29.0029 -70s-42.666 -28 -69.999 -28c-26.667 0 -49.667 9.16699 -69 27.5s-29 41.833 -29 70.5c0 14 2.66699 27 8 39s12.333 22.333 21 31s18.834 15.5 30.501 20.5s23.834 7.5 36.501 7.5c14 0 27.167 -2.5 39.5 -7.5
s23 -12 32 -21s16.167 -19.333 21.5 -31s8 -24.5 8 -38.5zM413.997 1317c0 -14 -2.66699 -26.833 -8 -38.5s-12.5 -22 -21.5 -31s-19.667 -16 -32 -21s-25.5 -7.5 -39.5 -7.5c-12.667 0 -25 2.5 -37 7.5s-22.5 11.833 -31.5 20.5s-16.167 19 -21.5 31s-8 25 -8 39
s2.66699 27 8 39s12.5 22.333 21.5 31s19.5 15.5 31.5 20.5s24.333 7.5 37 7.5c14 0 27.167 -2.5 39.5 -7.5s23 -12 32 -21s16.167 -19.333 21.5 -31s8 -24.5 8 -38.5z" />
    <glyph glyph-name="copyright" unicode="&#xa9;" horiz-adv-x="1862" 
d="M1720 719c0 -70 -8.66602 -137.167 -25.999 -201.5s-42.166 -124 -74.499 -179s-71 -104.833 -116 -149.5s-95.333 -82.834 -151 -114.501s-115.834 -56.167 -180.501 -73.5s-132.334 -26 -203.001 -26c-107.333 0 -206.833 18.5 -298.5 55.5s-171 88.333 -238 154
s-119.333 143.5 -157 233.5s-56.5 188.333 -56.5 295c0 69.333 8.66699 136 26 200s42 123.5 74 178.5s70.667 105 116 150s95.833 83.667 151.5 116s116.167 57.166 181.5 74.499s133.666 26 204.999 26c103.333 0 200.333 -18 291 -54s169.834 -86.667 237.501 -152
s121 -143.166 160 -233.499s58.5 -190.166 58.5 -299.499zM1630 715c0 95.333 -17.3301 183.335 -51.9971 264.002s-81.667 150.5 -141 209.5s-129 105 -209 138s-165.667 49.5 -257 49.5c-96 0 -184.667 -17 -266 -51s-151.5 -80.833 -210.5 -140.5
s-105 -129.667 -138 -210s-49.5 -166.833 -49.5 -259.5c0 -64 7.83301 -124.833 23.5 -182.5s38 -111.167 67 -160.5s63.667 -93.833 104 -133.5s85.166 -73.334 134.499 -101.001s102.166 -49 158.499 -64s115.166 -22.5 176.499 -22.5c90 0 175 16.667 255 50
s149.833 79.666 209.5 138.999s107 129.5 142 210.5s52.5 169.167 52.5 264.5zM1270 266.002c-12 -6.66699 -26.834 -14.166 -44.501 -22.499s-38 -15.833 -61 -22.5s-48.167 -12.334 -75.5 -17.001s-56.666 -7 -87.999 -7c-68.667 0 -133 12.333 -193 37s-112 59 -156 103
s-78.667 96.333 -104 157s-38 126.667 -38 198c0 86.667 13.5 163.5 40.5 230.5s64 123.5 111 169.5s102.167 81 165.5 105s131 36 203 36c24 0 47.667 -1.66699 71 -5s45.333 -7.5 66 -12.5s39.5 -10.667 56.5 -17s31.167 -12.5 42.5 -18.5v-150
c-14 10.667 -30.5 20.5 -49.5 29.5s-39.5 16.667 -61.5 23s-45.167 11.166 -69.5 14.499s-48.833 5 -73.5 5c-46 0 -90.5 -8 -133.5 -24s-81.167 -40.167 -114.5 -72.5s-60.166 -73.166 -80.499 -122.499s-30.5 -107.333 -30.5 -174c0 -61.333 9.83301 -116 29.5 -164
s46.334 -88.333 80.001 -121s72.667 -57.5 117 -74.5s91.166 -25.5 140.499 -25.5c21.333 0 43.666 2 66.999 6s46.166 9.5 68.499 16.5s43.333 15.167 63 24.5s36.834 19.333 51.501 30v-135z" />
    <glyph glyph-name="ordfeminine" unicode="&#xaa;" horiz-adv-x="893" 
d="M817 942c-3.33301 -17.333 -6.8291 -36.999 -10.4961 -58.999s-7 -43.833 -10 -65.5s-5.5 -41.667 -7.5 -60s-3 -32.5 -3 -42.5h-137l2.5 32c1 12.667 2.33301 25.5 4 38.5s3.16699 25.833 4.5 38.5s2.66602 23.334 3.99902 32.001h-2
c-31.333 -46 -68.333 -84.167 -111 -114.5s-91 -45.5 -145 -45.5c-66.667 0 -118.167 23.667 -154.5 71s-54.5 114.666 -54.5 201.999c0 26 2.83301 56 8.5 90s15.167 69 28.5 105s31 71.5 53 106.5s49.667 66.167 83 93.5s72.666 49.5 117.999 66.5
s97.666 25.5 156.999 25.5c19.333 0 40.666 -0.833008 63.999 -2.5s47 -3.83398 71 -6.50098s47.5 -6 70.5 -10s44.5 -8 64.5 -12zM764.004 1331c-17.333 4 -37.835 7.5 -61.502 10.5s-44.834 4.5 -63.501 4.5c-38 0 -72 -6 -102 -18s-56.333 -28.167 -79 -48.5
s-41.834 -43.333 -57.501 -69s-28.5 -52.167 -38.5 -79.5s-17.167 -54.333 -21.5 -81s-6.5 -51 -6.5 -73c0 -24.667 2.16699 -47.667 6.5 -69s11.333 -39.5 21 -54.5s22.334 -26.833 38.001 -35.5s34.834 -13 57.501 -13c34 0 65.667 10.833 95 32.5s55.333 48.5 78 80.5
s41.834 66.5 57.501 103.5s26.834 70.5 33.501 100.5z" />
    <glyph glyph-name="guillemotleft" unicode="&#xab;" horiz-adv-x="1053" 
d="M655 526l222 -325h-156l-227 336l364 344h176zM250 526l223 -325h-158l-227 336l365 344h176z" />
    <glyph glyph-name="logicalnot" unicode="&#xac;" horiz-adv-x="1403" 
d="M1055 254v432h-809v131h940v-563h-131z" />
    <glyph glyph-name="sfthyphen" unicode="&#xad;" horiz-adv-x="819" 
d="M678 506h-547l29 129h547z" />
    <glyph glyph-name="registered" unicode="&#xae;" horiz-adv-x="1862" 
d="M1720 719c0 -70 -8.66602 -137.167 -25.999 -201.5s-42.166 -124 -74.499 -179s-71 -104.833 -116 -149.5s-95.333 -82.834 -151 -114.501s-115.834 -56.167 -180.501 -73.5s-132.334 -26 -203.001 -26c-107.333 0 -206.833 18.5 -298.5 55.5s-171 88.333 -238 154
s-119.333 143.5 -157 233.5s-56.5 188.333 -56.5 295c0 69.333 8.66699 136 26 200s42 123.5 74 178.5s70.667 105 116 150s95.833 83.667 151.5 116s116.167 57.166 181.5 74.499s133.666 26 204.999 26c103.333 0 200.333 -18 291 -54s169.834 -86.667 237.501 -152
s121 -143.166 160 -233.499s58.5 -190.166 58.5 -299.499zM1630 715c0 95.333 -17.3301 183.335 -51.9971 264.002s-81.667 150.5 -141 209.5s-129 105 -209 138s-165.667 49.5 -257 49.5c-96 0 -184.667 -17 -266 -51s-151.5 -80.833 -210.5 -140.5
s-105 -129.667 -138 -210s-49.5 -166.833 -49.5 -259.5c0 -64 7.83301 -124.833 23.5 -182.5s38 -111.167 67 -160.5s63.667 -93.833 104 -133.5s85.166 -73.334 134.499 -101.001s102.166 -49 158.499 -64s115.166 -22.5 176.499 -22.5c90 0 175 16.667 255 50
s149.833 79.666 209.5 138.999s107 129.5 142 210.5s52.5 169.167 52.5 264.5zM1171 248.002l-104.001 228.999c-10 22.667 -20.833 44.334 -32.5 65.001s-24.5 39 -38.5 55s-29.167 28.667 -45.5 38s-34.166 14 -53.499 14h-88v-401h-133v954h266
c64 0 118.167 -7.33301 162.5 -22s80.5 -34 108.5 -58s48.167 -51.667 60.5 -83s18.5 -63.666 18.5 -96.999c0 -32 -5.33301 -62 -16 -90s-26.167 -53.333 -46.5 -76s-45.5 -42 -75.5 -58s-64.333 -28 -103 -36v-4c14 -2.66699 27.5 -7.83398 40.5 -15.501
s25.667 -18.5 38 -32.5s25 -31.333 38 -52s26.5 -46 40.5 -76l125 -254h-162zM1149 926.001c0 26 -3.50195 49 -10.502 69s-18.833 36.833 -35.5 50.5s-39.167 24 -67.5 31s-64.166 10.5 -107.499 10.5h-119v-325h143c28.667 0 55 3.5 79 10.5s44.833 17.5 62.5 31.5
s31.334 31.167 41.001 51.5s14.5 43.833 14.5 70.5z" />
    <glyph glyph-name="uni00AF" unicode="&#xaf;" horiz-adv-x="715" 
d="M240 1219l16 108h508l-16 -108h-508z" />
    <glyph glyph-name="degree" unicode="&#xb0;" horiz-adv-x="772" 
d="M801 1176c0 -38.667 -7.33301 -74.834 -22 -108.501s-34.667 -63.167 -60 -88.5s-54.833 -45.333 -88.5 -60s-69.834 -22 -108.501 -22c-38 0 -73.833 7.33301 -107.5 22s-63 34.667 -88 60s-44.667 54.833 -59 88.5s-21.5 69.834 -21.5 108.501
c0 38 7.16699 73.667 21.5 107s34 62.333 59 87s54.333 44.167 88 58.5s69.5 21.5 107.5 21.5c38.667 0 74.834 -7.16699 108.501 -21.5s63.167 -33.833 88.5 -58.5s45.333 -53.667 60 -87s22 -69 22 -107zM682 1176c0 22 -4.16699 42.5 -12.5 61.5s-19.833 35.667 -34.5 50
s-31.667 25.5 -51 33.5s-40 12 -62 12c-21.333 0 -41.5 -4 -60.5 -12s-35.667 -19.167 -50 -33.5s-25.666 -31 -33.999 -50s-12.5 -39.5 -12.5 -61.5s4.16699 -42.833 12.5 -62.5s19.666 -36.834 33.999 -51.501s31 -26.334 50 -35.001s39.167 -13 60.5 -13
s41.666 4.33301 60.999 13s36.333 20.334 51 35.001s26.334 31.834 35.001 51.501s13 40.5 13 62.5z" />
    <glyph glyph-name="plusminus" unicode="&#xb1;" horiz-adv-x="1403" 
d="M793 651v-403h-131v403h-406v133h406v404h131v-404h403v-133h-403zM256 0v133h940v-133h-940z" />
    <glyph glyph-name="twosuperior" unicode="&#xb2;" horiz-adv-x="793" 
d="M184 884l24 110.001l297 250l83.5 72.5c25.667 23 47.834 46 66.501 69s33.167 46.167 43.5 69.5s15.5 48 15.5 74c0 28.667 -10.333 52.834 -31 72.501s-50 29.5 -88 29.5c-36.667 0 -74.667 -8.5 -114 -25.5s-75.666 -37.167 -108.999 -60.5l33 152
c23.333 13.333 53 26.166 89 38.499s78 18.5 126 18.5c39.333 0 73.666 -5.33301 102.999 -16s53.666 -25.334 72.999 -44.001s33.833 -40.667 43.5 -66s14.5 -52.333 14.5 -81c0 -40.667 -7.66699 -78 -23 -112s-35.833 -66.333 -61.5 -97s-55 -60 -88 -88l-102.5 -84
l-197 -155l-2 -4h381l-28 -123h-549z" />
    <glyph glyph-name="threesuperior" unicode="&#xb3;" horiz-adv-x="788" 
d="M790 1127c0 -29.333 -5.66504 -59.6621 -16.998 -90.9951s-30 -59.833 -56 -85.5s-60.333 -46.667 -103 -63s-95.334 -24.5 -158.001 -24.5c-18 0 -38.333 1.16699 -61 3.5s-45.334 5.5 -68.001 9.5s-43.667 9 -63 15s-34.333 12.333 -45 19l28 133
c12 -8 26.5 -15.5 43.5 -22.5s35.167 -13.333 54.5 -19s39.333 -10 60 -13s40.334 -4.5 59.001 -4.5c35.333 0 65.166 4.16699 89.499 12.5s44 19.333 59 33s25.833 29 32.5 46s10 34.167 10 51.5c0 20 -3.5 38 -10.5 54s-18.333 29.833 -34 41.5s-35.667 20.5 -60 26.5
s-53.833 9 -88.5 9h-84l27 121h84c36.667 0 69 4.33301 97 13s51.333 20.167 70 34.5s32.667 30.666 42 48.999s14 36.833 14 55.5c0 28.667 -10.333 52.834 -31 72.501s-54 29.5 -100 29.5c-36 0 -70.167 -5.33301 -102.5 -16s-63.5 -24.334 -93.5 -41.001l30 141
c12.667 5.33301 27 10.166 43 14.499s32.5 8.16602 49.5 11.499s34.167 6 51.5 8s33.666 3 48.999 3c36.667 0 69.834 -4.66699 99.501 -14s55 -22.5 76 -39.5s37.167 -37.833 48.5 -62.5s17 -52.334 17 -83.001c0 -57.333 -19.333 -105.333 -58 -144
s-91 -66.334 -157 -83.001v-4c104 -27.333 156 -93 156 -197z" />
    <glyph glyph-name="acute" unicode="&#xb4;" horiz-adv-x="715" 
d="M455 1219h-123l289 327h161z" />
    <glyph glyph-name="mu1" unicode="&#xb5;" horiz-adv-x="1175" 
d="M114 -395h-161.998l300 1419h166l-127 -600c-2.66699 -10.667 -5.33398 -23 -8.00098 -37s-5.16699 -28 -7.5 -42s-4.16602 -26.833 -5.49902 -38.5s-2 -20.834 -2 -27.501c0 -50 12.167 -89.833 36.5 -119.5s60.833 -44.5 109.5 -44.5c29.333 0 58.666 6 87.999 18
s57.833 28.167 85.5 48.5s53.667 44 78 71s46.5 55.667 66.5 86s37.167 61.5 51.5 93.5s24.833 62.667 31.5 92l107 500h165l-153 -713c-4.66699 -20.667 -8.66699 -42.334 -12 -65.001s-5 -40.667 -5 -54c0 -14.667 2.66699 -27 8 -37s12 -18 20 -24s17 -10.167 27 -12.5
s20 -3.5 30 -3.5c12 0 24.167 1 36.5 3s24.166 5 35.499 9l-26 -131c-16.667 -5.33301 -35.667 -9.66602 -57 -12.999s-42.333 -5 -63 -5c-64 0 -110 15.167 -138 45.5s-42 70.5 -42 120.5c0 6 0.166992 13.5 0.5 22.5s1 18.167 2 27.5l3 27l2.5 21h-4
c-20.667 -37.333 -44.167 -72.166 -70.5 -104.499s-55 -60.5 -86 -84.5s-64.5 -43 -100.5 -57s-74 -21 -114 -21s-75 9 -105 27s-50.667 41.667 -62 71z" />
    <glyph glyph-name="paragraph" unicode="&#xb6;" horiz-adv-x="938" 
d="M778 1331l-0.000976562 -1331h-106v1331h-158v-1331h-108v903c-34.667 0 -67.167 6.5 -97.5 19.5s-56.833 31.167 -79.5 54.5s-40.5 51.333 -53.5 84s-19.5 68.667 -19.5 108c0 42 7.16699 79.5 21.5 112.5s33.5 60.667 57.5 83s51.333 39.5 82 51.5s62.334 18 95.001 18
h493v-103h-127z" />
    <glyph glyph-name="periodcentered" unicode="&#xb7;" horiz-adv-x="446" 
d="M354 623c0 -15.333 -2.83203 -29.833 -8.49902 -43.5s-13.5 -25.5 -23.5 -35.5s-21.5 -17.833 -34.5 -23.5s-26.833 -8.5 -41.5 -8.5c-15.333 0 -29.833 2.83301 -43.5 8.5s-25.5 13.5 -35.5 23.5s-17.833 21.833 -23.5 35.5s-8.5 28.167 -8.5 43.5
c0 14.667 2.83301 28.667 8.5 42s13.5 25 23.5 35s21.667 18 35 24s27.333 9 42 9c15.333 0 29.666 -3 42.999 -9s25 -14 35 -24s17.833 -21.667 23.5 -35s8.5 -27.333 8.5 -42z" />
    <glyph glyph-name="cedilla" unicode="&#xb8;" horiz-adv-x="715" 
d="M418 -238c0 -59.333 -25.001 -106.833 -75.001 -142.5s-122.667 -53.5 -218 -53.5c-13.333 0 -27.666 0.5 -42.999 1.5s-30.333 2.5 -45 4.5l18 88c27.333 -4 52.666 -6 75.999 -6c58 0 100.833 8.33301 128.5 25s41.5 39 41.5 67c0 23.333 -9.5 41.833 -28.5 55.5
s-49.167 20.5 -90.5 20.5c-9.33301 0 -18.5 -0.333008 -27.5 -1s-18.167 -1.66699 -27.5 -3l39 182h96l-24 -104c24.667 0 47.834 -2.83301 69.501 -8.5s40.667 -14.167 57 -25.5s29.333 -25.333 39 -42s14.5 -36 14.5 -58z" />
    <glyph glyph-name="onesuperior" unicode="&#xb9;" horiz-adv-x="795" 
d="M237 884l25 112h182l127 592l-207 -55l27 125l348 96l-164 -758h190l-24 -112h-504z" />
    <glyph glyph-name="ordmasculine" unicode="&#xba;" horiz-adv-x="915" 
d="M938 1151c0 -54.667 -7.66699 -109.168 -23 -163.501s-39.5 -103 -72.5 -146s-75.333 -78 -127 -105s-113.5 -40.5 -185.5 -40.5c-48.667 0 -92.334 7.83301 -131.001 23.5s-71.667 37.5 -99 65.5s-48.333 61.5 -63 100.5s-22 81.833 -22 128.5
c0 60.667 9.33301 117.667 28 171s45.5 100 80.5 140s77.833 71.5 128.5 94.5s108.334 34.5 173.001 34.5c50.667 0 95.5 -7.66699 134.5 -23s71.667 -36.666 98 -63.999s46.333 -59.333 60 -96s20.5 -76.667 20.5 -120zM803 1141c0 27.333 -3.66797 53.334 -11.001 78.001
s-18.666 46.167 -33.999 64.5s-34.833 32.833 -58.5 43.5s-51.5 16 -83.5 16c-44 0 -82.667 -9 -116 -27s-61 -42.167 -83 -72.5s-38.667 -65 -50 -104s-17 -79.5 -17 -121.5c0 -32 4.33301 -60.833 13 -86.5s21 -47.834 37 -66.501s35.5 -33 58.5 -43s48.5 -15 76.5 -15
c50 0 92.167 10.333 126.5 31s62 47 83 79s36 67.833 45 107.5s13.5 78.5 13.5 116.5z" />
    <glyph glyph-name="guillemotright" unicode="&#xbb;" horiz-adv-x="1053" 
d="M600 203h-176l381 354l-225 326h155l230 -336zM195 203h-177l381 354l-223 326h156l227 -336z" />
    <glyph glyph-name="onequarter" unicode="&#xbc;" horiz-adv-x="1876" 
d="M174 584l25 112h182l127 592l-207 -55l27 125l348 96l-164 -758h190l-24 -112h-504zM1571 206l-45 -205h-131l45 205h-391l18 92l481 553h160l-115 -537h113l-23 -108h-112zM1552 732c-5.33301 -10 -12.332 -21.001 -20.999 -33.001s-18.667 -24 -30 -36l-293 -349h254
l70 326c3.33301 14.667 7.16602 30.334 11.499 47.001s8.5 31 12.5 43zM497.001 -0.000976562h-148l1164 1434h145z" />
    <glyph glyph-name="onehalf" unicode="&#xbd;" horiz-adv-x="1939" 
d="M174 584l25 112h182l127 592l-207 -55l27 125l348 96l-164 -758h190l-24 -112h-504zM1129 1l24 110.001l297 250l83.5 72.5c25.667 23 47.834 46 66.501 69s33.167 46.167 43.5 69.5s15.5 48 15.5 74c0 28.667 -10.333 52.834 -31 72.501s-50 29.5 -88 29.5
c-36.667 0 -74.667 -8.5 -114 -25.5s-75.666 -37.167 -108.999 -60.5l33 152c23.333 13.333 53 26.166 89 38.499s78 18.5 126 18.5c39.333 0 73.666 -5.33301 102.999 -16s53.666 -25.334 72.999 -44.001s33.833 -40.667 43.5 -66s14.5 -52.333 14.5 -81
c0 -40.667 -7.66699 -78 -23 -112s-35.833 -66.333 -61.5 -97s-55 -60 -88 -88l-102.5 -84l-197 -155l-2 -4h381l-28 -123h-549zM477 0.000976562h-148l1164 1434h145z" />
    <glyph glyph-name="threequarters" unicode="&#xbe;" horiz-adv-x="1968" 
d="M727 827c0 -29.333 -5.66504 -59.6621 -16.998 -90.9951s-30 -59.833 -56 -85.5s-60.333 -46.667 -103 -63s-95.334 -24.5 -158.001 -24.5c-18 0 -38.333 1.16699 -61 3.5s-45.334 5.5 -68.001 9.5s-43.667 9 -63 15s-34.333 12.333 -45 19l28 133
c12 -8 26.5 -15.5 43.5 -22.5s35.167 -13.333 54.5 -19s39.333 -10 60 -13s40.334 -4.5 59.001 -4.5c35.333 0 65.166 4.16699 89.499 12.5s44 19.333 59 33s25.833 29 32.5 46s10 34.167 10 51.5c0 20 -3.5 38 -10.5 54s-18.333 29.833 -34 41.5s-35.667 20.5 -60 26.5
s-53.833 9 -88.5 9h-84l27 121h84c36.667 0 69 4.33301 97 13s51.333 20.167 70 34.5s32.667 30.666 42 48.999s14 36.833 14 55.5c0 28.667 -10.333 52.834 -31 72.501s-54 29.5 -100 29.5c-36 0 -70.167 -5.33301 -102.5 -16s-63.5 -24.334 -93.5 -41.001l30 141
c12.667 5.33301 27 10.166 43 14.499s32.5 8.16602 49.5 11.499s34.167 6 51.5 8s33.666 3 48.999 3c36.667 0 69.834 -4.66699 99.501 -14s55 -22.5 76 -39.5s37.167 -37.833 48.5 -62.5s17 -52.334 17 -83.001c0 -57.333 -19.333 -105.333 -58 -144
s-91 -66.334 -157 -83.001v-4c104 -27.333 156 -93 156 -197zM1657 206.004l-45 -205h-131l45 205h-391l18 92l481 553h160l-115 -537h113l-23 -108h-112zM1638 732.004c-5.33301 -10 -12.332 -21.001 -20.999 -33.001s-18.667 -24 -30 -36l-293 -349h254l70 326
c3.33301 14.667 7.16602 30.334 11.499 47.001s8.5 31 12.5 43zM535.003 0.00292969h-148l1164 1434h145z" />
    <glyph glyph-name="questiondown" unicode="&#xbf;" horiz-adv-x="881" 
d="M698 942c0 -15.333 -2.83301 -29.833 -8.5 -43.5s-13.5 -25.667 -23.5 -36s-21.667 -18.5 -35 -24.5s-27.666 -9 -42.999 -9c-14.667 0 -28.834 3 -42.501 9s-25.5 14.167 -35.5 24.5s-18 22.333 -24 36s-9 28.167 -9 43.5s3 29.833 9 43.5s14 25.5 24 35.5
s21.833 17.833 35.5 23.5s27.834 8.5 42.501 8.5c15.333 0 29.666 -2.83301 42.999 -8.5s25 -13.5 35 -23.5s17.833 -21.833 23.5 -35.5s8.5 -28.167 8.5 -43.5zM598 -367c-41.333 -18 -86.666 -32.667 -135.999 -44s-99 -17 -149 -17c-52 0 -99.167 8 -141.5 24
s-78.5 38.333 -108.5 67s-53.167 62.167 -69.5 100.5s-24.5 80.166 -24.5 125.499c0 41.333 5.16699 80 15.5 116s26.5 70.5 48.5 103.5s49.833 65.333 83.5 97s73.5 63.5 119.5 95.5c35.333 24.667 65.333 48.167 90 70.5s45.5 46 62.5 71s31 52.667 42 83
s20.5 65.5 28.5 105.5h149c-9.33301 -48 -19.833 -91.333 -31.5 -130s-26.834 -74.167 -45.501 -106.5s-41.667 -62.333 -69 -90s-61.333 -54.834 -102 -81.501c-42 -27.333 -77.5 -54 -106.5 -80s-52.833 -51.667 -71.5 -77s-32.167 -51.166 -40.5 -77.499
s-12.5 -53.833 -12.5 -82.5c0 -30 5 -57 15 -81s24 -44.667 42 -62s39.667 -30.666 65 -39.999s53 -14 83 -14c45.333 0 92.333 7.33301 141 22s95.667 38 141 70z" />
    <glyph glyph-name="Agrave" unicode="&#xc0;" horiz-adv-x="1294" 
d="M999 0l-65 401h-608l-232 -401h-198l854 1434h176l250 -1434h-177zM815 1163c-0.666992 6.66699 -1.16699 14.332 -1.5 22.999s-0.5 17.334 -0.5 26.001v26v22h-4c-2 -6 -4.66699 -13.167 -8 -21.5s-7 -17 -11 -26s-8.16699 -17.833 -12.5 -26.5l-11.5 -23l-354 -610h495
zM897 1567l-239 327h153l207 -327h-121z" />
    <glyph glyph-name="Aacute" unicode="&#xc1;" horiz-adv-x="1294" 
d="M999 0l-65 401h-608l-232 -401h-198l854 1434h176l250 -1434h-177zM815 1163c-0.666992 6.66699 -1.16699 14.332 -1.5 22.999s-0.5 17.334 -0.5 26.001v26v22h-4c-2 -6 -4.66699 -13.167 -8 -21.5s-7 -17 -11 -26s-8.16699 -17.833 -12.5 -26.5l-11.5 -23l-354 -610h495
zM801 1567h-123l289 327h161z" />
    <glyph glyph-name="Acircumflex" unicode="&#xc2;" horiz-adv-x="1294" 
d="M999 0l-65 401h-608l-232 -401h-198l854 1434h176l250 -1434h-177zM815 1163c-0.666992 6.66699 -1.16699 14.332 -1.5 22.999s-0.5 17.334 -0.5 26.001v26v22h-4c-2 -6 -4.66699 -13.167 -8 -21.5s-7 -17 -11 -26s-8.16699 -17.833 -12.5 -26.5l-11.5 -23l-354 -610h495
zM1022 1567l-114 231l-213 -231h-121l283 331h133l145 -331h-113z" />
    <glyph glyph-name="Atilde" unicode="&#xc3;" horiz-adv-x="1294" 
d="M999 0l-65 401h-608l-232 -401h-198l854 1434h176l250 -1434h-177zM815 1163c-0.666992 6.66699 -1.16699 14.332 -1.5 22.999s-0.5 17.334 -0.5 26.001v26v22h-4c-2 -6 -4.66699 -13.167 -8 -21.5s-7 -17 -11 -26s-8.16699 -17.833 -12.5 -26.5l-11.5 -23l-354 -610h495
zM1198 1806c-2 -30 -8.83398 -58.332 -20.501 -84.999s-27 -50 -46 -70s-41.333 -35.667 -67 -47s-53.5 -17 -83.5 -17c-32 0 -58.833 4.83301 -80.5 14.5s-41 20.167 -58 31.5l-49 31.5c-15.667 9.66699 -33.834 14.5 -54.501 14.5c-34 0 -60.833 -11 -80.5 -33
s-31.167 -48.333 -34.5 -79h-96c2 32 9.16699 61.667 21.5 89s28.5 50.666 48.5 69.999s43.5 34.5 70.5 45.5s56.167 16.5 87.5 16.5c29.333 0 53.833 -5 73.5 -15s37.834 -21.167 54.501 -33.5s33.167 -23.5 49.5 -33.5s35.5 -15 57.5 -15c14.667 0 28.334 3 41.001 9
s24 14.167 34 24.5s18 22.5 24 36.5s10 29 12 45h96z" />
    <glyph glyph-name="Adieresis" unicode="&#xc4;" horiz-adv-x="1294" 
d="M999 0l-65 401h-608l-232 -401h-198l854 1434h176l250 -1434h-177zM815 1163c-0.666992 6.66699 -1.16699 14.332 -1.5 22.999s-0.5 17.334 -0.5 26.001v26v22h-4c-2 -6 -4.66699 -13.167 -8 -21.5s-7 -17 -11 -26s-8.16699 -17.833 -12.5 -26.5l-11.5 -23l-354 -610h495
zM1151 1665c0 -28 -9.66992 -51.333 -29.0029 -70s-42.666 -28 -69.999 -28c-26.667 0 -49.667 9.16699 -69 27.5s-29 41.833 -29 70.5c0 14 2.66699 27 8 39s12.333 22.333 21 31s18.834 15.5 30.501 20.5s23.834 7.5 36.501 7.5c14 0 27.167 -2.5 39.5 -7.5s23 -12 32 -21
s16.167 -19.333 21.5 -31s8 -24.5 8 -38.5zM765.997 1665c0 -14 -2.66699 -26.833 -8 -38.5s-12.5 -22 -21.5 -31s-19.667 -16 -32 -21s-25.5 -7.5 -39.5 -7.5c-12.667 0 -25 2.5 -37 7.5s-22.5 11.833 -31.5 20.5s-16.167 19 -21.5 31s-8 25 -8 39s2.66699 27 8 39
s12.5 22.333 21.5 31s19.5 15.5 31.5 20.5s24.333 7.5 37 7.5c14 0 27.167 -2.5 39.5 -7.5s23 -12 32 -21s16.167 -19.333 21.5 -31s8 -24.5 8 -38.5z" />
    <glyph glyph-name="Aring" unicode="&#xc5;" horiz-adv-x="1294" 
d="M999 0l-64.999 401.001h-608l-232 -401h-198l825 1384c-25.333 15.333 -46 36.5 -62 63.5s-24 58.5 -24 94.5c0 30 5.5 57.333 16.5 82s26 45.667 45 63s41.167 30.666 66.5 39.999s52.333 14 81 14c30 0 57.333 -4.83301 82 -14.5s46 -23 64 -40s32 -37.333 42 -61
s15 -49.5 15 -77.5c0 -39.333 -10.333 -74 -31 -104s-47.334 -52.667 -80.001 -68l240 -1376h-177zM954.001 1548c0 16.667 -3.00098 31.832 -9.00098 45.499s-14.167 25.334 -24.5 35.001s-22.333 17.167 -36 22.5s-28.5 8 -44.5 8c-34 0 -61.333 -10.5 -82 -31.5
s-31 -47.5 -31 -79.5c0 -36.667 10.5 -64.834 31.5 -84.501s48.167 -29.5 81.5 -29.5c32.667 0 59.834 10.833 81.501 32.5s32.5 48.834 32.5 81.501zM815 1163c-0.666992 6.66699 -1.16699 14.332 -1.5 22.999s-0.5 17.334 -0.5 26.001v26v22h-4
c-2 -6 -4.66699 -13.167 -8 -21.5s-7 -17 -11 -26s-8.16699 -17.833 -12.5 -26.5l-11.5 -23l-354 -610h495z" />
    <glyph glyph-name="AE" unicode="&#xc6;" horiz-adv-x="1751" 
d="M1800 1280h-555l-104 -487h514l-33 -152h-514l-104 -489h587l-30 -152h-760l86 401h-508l-293 -401h-207l1067 1434h887zM1016 1280l-522 -723h426l151 723h-55z" />
    <glyph glyph-name="Ccedilla" unicode="&#xc7;" horiz-adv-x="1309" 
d="M1116 51c-58 -25.333 -116.503 -44.335 -175.503 -57.002s-122.5 -19 -190.5 -19l-17 -79c24 0 46.833 -2.83301 68.5 -8.5s40.5 -14.167 56.5 -25.5s28.833 -25.333 38.5 -42s14.5 -36 14.5 -58c0 -59.333 -24.833 -106.833 -74.5 -142.5s-122.5 -53.5 -218.5 -53.5
c-13.333 0 -27.666 0.5 -42.999 1.5s-30.333 2.5 -45 4.5l19 88c26 -4 51.333 -6 76 -6c57.333 0 100 8.33301 128 25s42 39 42 67c0 23.333 -9.5 41.833 -28.5 55.5s-49.167 20.5 -90.5 20.5c-8.66699 0 -17.667 -0.333008 -27 -1s-18.666 -1.66699 -27.999 -3l34 162
c-79.333 8.66699 -151.166 29.667 -215.499 63s-119.166 77 -164.499 131s-80.333 117.333 -105 190s-37 152.667 -37 240c0 125.333 19.833 240.333 59.5 345s96 194.667 169 270s160.667 134 263 176s215.833 63 340.5 63c85.333 0 160.833 -9.16699 226.5 -27.5
s121.167 -39.166 166.5 -62.499l-37 -172c-19.333 12.667 -41.333 25.667 -66 39s-52.167 25.333 -82.5 36s-63.333 19.334 -99 26.001s-74.167 10 -115.5 10c-100 0 -189.833 -17.667 -269.5 -53s-147.5 -84 -203.5 -146s-99 -134.833 -129 -218.5s-45 -174.167 -45 -271.5
c0 -79.333 11 -149.5 33 -210.5s53.167 -112.333 93.5 -154s88.666 -73.167 144.999 -94.5s118.833 -32 187.5 -32c44 0 84 2.5 120 7.5s69.333 12 100 21s59.5 19.667 86.5 32s53.167 25.5 78.5 39.5z" />
    <glyph glyph-name="Egrave" unicode="&#xc8;" horiz-adv-x="1022" 
d="M1071 1282h-553l-104 -489h512l-33 -152h-512l-105 -489h588l-30 -152h-760l303 1434h727zM800 1567l-239 327h153l207 -327h-121z" />
    <glyph glyph-name="Eacute" unicode="&#xc9;" horiz-adv-x="1022" 
d="M1071 1282h-553l-104 -489h512l-33 -152h-512l-105 -489h588l-30 -152h-760l303 1434h727zM768 1567h-123l289 327h161z" />
    <glyph glyph-name="Ecircumflex" unicode="&#xca;" horiz-adv-x="1022" 
d="M1071 1282h-553l-104 -489h512l-33 -152h-512l-105 -489h588l-30 -152h-760l303 1434h727zM940 1567l-114 231l-213 -231h-121l283 331h133l145 -331h-113z" />
    <glyph glyph-name="Edieresis" unicode="&#xcb;" horiz-adv-x="1022" 
d="M1071 1282h-553l-104 -489h512l-33 -152h-512l-105 -489h588l-30 -152h-760l303 1434h727zM1065 1665c0 -28 -9.66992 -51.333 -29.0029 -70s-42.666 -28 -69.999 -28c-26.667 0 -49.667 9.16699 -69 27.5s-29 41.833 -29 70.5c0 14 2.66699 27 8 39s12.333 22.333 21 31
s18.834 15.5 30.501 20.5s23.834 7.5 36.501 7.5c14 0 27.167 -2.5 39.5 -7.5s23 -12 32 -21s16.167 -19.333 21.5 -31s8 -24.5 8 -38.5zM679.997 1665c0 -14 -2.66699 -26.833 -8 -38.5s-12.5 -22 -21.5 -31s-19.667 -16 -32 -21s-25.5 -7.5 -39.5 -7.5
c-12.667 0 -25 2.5 -37 7.5s-22.5 11.833 -31.5 20.5s-16.167 19 -21.5 31s-8 25 -8 39s2.66699 27 8 39s12.5 22.333 21.5 31s19.5 15.5 31.5 20.5s24.333 7.5 37 7.5c14 0 27.167 -2.5 39.5 -7.5s23 -12 32 -21s16.167 -19.333 21.5 -31s8 -24.5 8 -38.5z" />
    <glyph glyph-name="Igrave" unicode="&#xcc;" horiz-adv-x="545" 
d="M246 0h-172l303 1434h174zM548 1567l-239 327h153l207 -327h-121z" />
    <glyph glyph-name="Iacute" unicode="&#xcd;" horiz-adv-x="545" 
d="M246 0h-172l303 1434h174zM434 1567h-123l289 327h161z" />
    <glyph glyph-name="Icircumflex" unicode="&#xce;" horiz-adv-x="545" 
d="M246 0h-172l303 1434h174zM653 1567l-114 231l-213 -231h-121l283 331h133l145 -331h-113z" />
    <glyph glyph-name="Idieresis" unicode="&#xcf;" horiz-adv-x="545" 
d="M246 0h-172l303 1434h174zM787 1665c0 -28 -9.66992 -51.333 -29.0029 -70s-42.666 -28 -69.999 -28c-26.667 0 -49.667 9.16699 -69 27.5s-29 41.833 -29 70.5c0 14 2.66699 27 8 39s12.333 22.333 21 31s18.834 15.5 30.501 20.5s23.834 7.5 36.501 7.5
c14 0 27.167 -2.5 39.5 -7.5s23 -12 32 -21s16.167 -19.333 21.5 -31s8 -24.5 8 -38.5zM401.997 1665c0 -14 -2.66699 -26.833 -8 -38.5s-12.5 -22 -21.5 -31s-19.667 -16 -32 -21s-25.5 -7.5 -39.5 -7.5c-12.667 0 -25 2.5 -37 7.5s-22.5 11.833 -31.5 20.5
s-16.167 19 -21.5 31s-8 25 -8 39s2.66699 27 8 39s12.5 22.333 21.5 31s19.5 15.5 31.5 20.5s24.333 7.5 37 7.5c14 0 27.167 -2.5 39.5 -7.5s23 -12 32 -21s16.167 -19.333 21.5 -31s8 -24.5 8 -38.5z" />
    <glyph glyph-name="Eth" unicode="&#xd0;" horiz-adv-x="1458" 
d="M1401 844c0 -72 -7.33301 -142.999 -22 -212.999s-37.167 -136.167 -67.5 -198.5s-69 -120 -116 -173s-103 -98.667 -168 -137s-139.333 -68.333 -223 -90s-177.167 -32.5 -280.5 -32.5h-450l139 649h-166l29 152h168l135 633h391c95.333 0 181.833 -13.833 259.5 -41.5
s144 -67 199 -118s97.5 -112.833 127.5 -185.5s45 -154.334 45 -245.001zM1225 831.001c0 70 -10.3301 132.999 -30.9971 188.999s-51.5 103.333 -92.5 142s-91.833 68.334 -152.5 89.001s-131.334 31 -212.001 31h-219l-104 -481h342l-31 -152h-342l-107 -497h252
c119.333 0 222.666 17.167 309.999 51.5s159.666 81.833 216.999 142.5s100 132.5 128 215.5s42 172.833 42 269.5z" />
    <glyph glyph-name="Ntilde" unicode="&#xd1;" horiz-adv-x="1538" 
d="M1241 0l-185.998 -0.000976562l-529 1149l-7 19.5c-2.66699 7.66699 -5.33398 15.834 -8.00098 24.501s-5 17 -7 25s-3.33301 14.333 -4 19h-6l-2.5 -24.5c-1 -9.66699 -2.16699 -19.5 -3.5 -29.5s-2.83301 -19.833 -4.5 -29.5l-4.5 -25.5l-239 -1128h-166l303 1434h201
l507 -1125c3.33301 -6 6.66602 -13.167 9.99902 -21.5l10 -26l9.5 -26.5l7.5 -22h4c0.666992 8 1.66699 17.333 3 28l4 33.5c1.33301 11.667 3 23.167 5 34.5l5 29l233 1096h170zM1325 1806c-2 -30 -8.83398 -58.332 -20.501 -84.999s-27 -50 -46 -70
s-41.333 -35.667 -67 -47s-53.5 -17 -83.5 -17c-32 0 -58.833 4.83301 -80.5 14.5s-41 20.167 -58 31.5l-49 31.5c-15.667 9.66699 -33.834 14.5 -54.501 14.5c-34 0 -60.833 -11 -80.5 -33s-31.167 -48.333 -34.5 -79h-96c2 32 9.16699 61.667 21.5 89
s28.5 50.666 48.5 69.999s43.5 34.5 70.5 45.5s56.167 16.5 87.5 16.5c29.333 0 53.833 -5 73.5 -15s37.834 -21.167 54.501 -33.5s33.167 -23.5 49.5 -33.5s35.5 -15 57.5 -15c14.667 0 28.334 3 41.001 9s24 14.167 34 24.5s18 22.5 24 36.5s10 29 12 45h96z" />
    <glyph glyph-name="Ograve" unicode="&#xd2;" horiz-adv-x="1544" 
d="M1487 852c0 -62 -5.66797 -123.497 -17.001 -184.497s-27.666 -119.833 -48.999 -176.5s-47.5 -110.334 -78.5 -161.001s-66.167 -96.334 -105.5 -137.001c-32 -33.333 -66.667 -63.5 -104 -90.5s-77.333 -50 -120 -69s-88.334 -33.5 -137.001 -43.5s-101 -15 -157 -15
c-90 0 -171 15.5 -243 46.5s-133.167 73.667 -183.5 128s-88.833 118.833 -115.5 193.5s-40 155.667 -40 243c0 138.667 22.5 263 67.5 373s107.833 205.333 188.5 286c65.333 65.333 140.833 117.166 226.5 155.499s182.834 57.5 291.501 57.5c88 0 167.5 -15 238.5 -45
s131.5 -72 181.5 -126s88.5 -118 115.5 -192s40.5 -155 40.5 -243zM1309 846.003c0 71.333 -9.66602 135.332 -28.999 191.999s-47 105 -83 145s-79.333 70.667 -130 92s-107.334 32 -170.001 32c-74 0 -144.667 -16 -212 -48s-127 -76.333 -179 -133
c-29.333 -32 -55.833 -68.667 -79.5 -110s-44 -85.333 -61 -132s-30 -95.334 -39 -146.001s-13.5 -102 -13.5 -154c0 -66.667 9.16699 -128 27.5 -184s45 -104.167 80 -144.5s78.167 -71.833 129.5 -94.5s110.333 -34 177 -34c74 0 144.833 14.833 212.5 44.5
s127.167 73.5 178.5 131.5c32 36 59.833 76.167 83.5 120.5s43.5 90.333 59.5 138s28 95.834 36 144.501s12 95.334 12 140.001zM985 1567l-239 327h153l207 -327h-121z" />
    <glyph glyph-name="Oacute" unicode="&#xd3;" horiz-adv-x="1544" 
d="M1487 852c0 -62 -5.66797 -123.497 -17.001 -184.497s-27.666 -119.833 -48.999 -176.5s-47.5 -110.334 -78.5 -161.001s-66.167 -96.334 -105.5 -137.001c-32 -33.333 -66.667 -63.5 -104 -90.5s-77.333 -50 -120 -69s-88.334 -33.5 -137.001 -43.5s-101 -15 -157 -15
c-90 0 -171 15.5 -243 46.5s-133.167 73.667 -183.5 128s-88.833 118.833 -115.5 193.5s-40 155.667 -40 243c0 138.667 22.5 263 67.5 373s107.833 205.333 188.5 286c65.333 65.333 140.833 117.166 226.5 155.499s182.834 57.5 291.501 57.5c88 0 167.5 -15 238.5 -45
s131.5 -72 181.5 -126s88.5 -118 115.5 -192s40.5 -155 40.5 -243zM1309 846.003c0 71.333 -9.66602 135.332 -28.999 191.999s-47 105 -83 145s-79.333 70.667 -130 92s-107.334 32 -170.001 32c-74 0 -144.667 -16 -212 -48s-127 -76.333 -179 -133
c-29.333 -32 -55.833 -68.667 -79.5 -110s-44 -85.333 -61 -132s-30 -95.334 -39 -146.001s-13.5 -102 -13.5 -154c0 -66.667 9.16699 -128 27.5 -184s45 -104.167 80 -144.5s78.167 -71.833 129.5 -94.5s110.333 -34 177 -34c74 0 144.833 14.833 212.5 44.5
s127.167 73.5 178.5 131.5c32 36 59.833 76.167 83.5 120.5s43.5 90.333 59.5 138s28 95.834 36 144.501s12 95.334 12 140.001zM863 1567h-123l289 327h161z" />
    <glyph glyph-name="Ocircumflex" unicode="&#xd4;" horiz-adv-x="1544" 
d="M1487 852c0 -62 -5.66797 -123.497 -17.001 -184.497s-27.666 -119.833 -48.999 -176.5s-47.5 -110.334 -78.5 -161.001s-66.167 -96.334 -105.5 -137.001c-32 -33.333 -66.667 -63.5 -104 -90.5s-77.333 -50 -120 -69s-88.334 -33.5 -137.001 -43.5s-101 -15 -157 -15
c-90 0 -171 15.5 -243 46.5s-133.167 73.667 -183.5 128s-88.833 118.833 -115.5 193.5s-40 155.667 -40 243c0 138.667 22.5 263 67.5 373s107.833 205.333 188.5 286c65.333 65.333 140.833 117.166 226.5 155.499s182.834 57.5 291.501 57.5c88 0 167.5 -15 238.5 -45
s131.5 -72 181.5 -126s88.5 -118 115.5 -192s40.5 -155 40.5 -243zM1309 846.003c0 71.333 -9.66602 135.332 -28.999 191.999s-47 105 -83 145s-79.333 70.667 -130 92s-107.334 32 -170.001 32c-74 0 -144.667 -16 -212 -48s-127 -76.333 -179 -133
c-29.333 -32 -55.833 -68.667 -79.5 -110s-44 -85.333 -61 -132s-30 -95.334 -39 -146.001s-13.5 -102 -13.5 -154c0 -66.667 9.16699 -128 27.5 -184s45 -104.167 80 -144.5s78.167 -71.833 129.5 -94.5s110.333 -34 177 -34c74 0 144.833 14.833 212.5 44.5
s127.167 73.5 178.5 131.5c32 36 59.833 76.167 83.5 120.5s43.5 90.333 59.5 138s28 95.834 36 144.501s12 95.334 12 140.001zM1075 1567l-114 231l-213 -231h-121l283 331h133l145 -331h-113z" />
    <glyph glyph-name="Otilde" unicode="&#xd5;" horiz-adv-x="1544" 
d="M1487 852c0 -62 -5.66797 -123.497 -17.001 -184.497s-27.666 -119.833 -48.999 -176.5s-47.5 -110.334 -78.5 -161.001s-66.167 -96.334 -105.5 -137.001c-32 -33.333 -66.667 -63.5 -104 -90.5s-77.333 -50 -120 -69s-88.334 -33.5 -137.001 -43.5s-101 -15 -157 -15
c-90 0 -171 15.5 -243 46.5s-133.167 73.667 -183.5 128s-88.833 118.833 -115.5 193.5s-40 155.667 -40 243c0 138.667 22.5 263 67.5 373s107.833 205.333 188.5 286c65.333 65.333 140.833 117.166 226.5 155.499s182.834 57.5 291.501 57.5c88 0 167.5 -15 238.5 -45
s131.5 -72 181.5 -126s88.5 -118 115.5 -192s40.5 -155 40.5 -243zM1309 846.003c0 71.333 -9.66602 135.332 -28.999 191.999s-47 105 -83 145s-79.333 70.667 -130 92s-107.334 32 -170.001 32c-74 0 -144.667 -16 -212 -48s-127 -76.333 -179 -133
c-29.333 -32 -55.833 -68.667 -79.5 -110s-44 -85.333 -61 -132s-30 -95.334 -39 -146.001s-13.5 -102 -13.5 -154c0 -66.667 9.16699 -128 27.5 -184s45 -104.167 80 -144.5s78.167 -71.833 129.5 -94.5s110.333 -34 177 -34c74 0 144.833 14.833 212.5 44.5
s127.167 73.5 178.5 131.5c32 36 59.833 76.167 83.5 120.5s43.5 90.333 59.5 138s28 95.834 36 144.501s12 95.334 12 140.001zM1286 1806c-2 -30 -8.83398 -58.332 -20.501 -84.999s-27 -50 -46 -70s-41.333 -35.667 -67 -47s-53.5 -17 -83.5 -17
c-32 0 -58.833 4.83301 -80.5 14.5s-41 20.167 -58 31.5l-49 31.5c-15.667 9.66699 -33.834 14.5 -54.501 14.5c-34 0 -60.833 -11 -80.5 -33s-31.167 -48.333 -34.5 -79h-96c2 32 9.16699 61.667 21.5 89s28.5 50.666 48.5 69.999s43.5 34.5 70.5 45.5
s56.167 16.5 87.5 16.5c29.333 0 53.833 -5 73.5 -15s37.834 -21.167 54.501 -33.5s33.167 -23.5 49.5 -33.5s35.5 -15 57.5 -15c14.667 0 28.334 3 41.001 9s24 14.167 34 24.5s18 22.5 24 36.5s10 29 12 45h96z" />
    <glyph glyph-name="Odieresis" unicode="&#xd6;" horiz-adv-x="1544" 
d="M1487 852c0 -62 -5.66797 -123.497 -17.001 -184.497s-27.666 -119.833 -48.999 -176.5s-47.5 -110.334 -78.5 -161.001s-66.167 -96.334 -105.5 -137.001c-32 -33.333 -66.667 -63.5 -104 -90.5s-77.333 -50 -120 -69s-88.334 -33.5 -137.001 -43.5s-101 -15 -157 -15
c-90 0 -171 15.5 -243 46.5s-133.167 73.667 -183.5 128s-88.833 118.833 -115.5 193.5s-40 155.667 -40 243c0 138.667 22.5 263 67.5 373s107.833 205.333 188.5 286c65.333 65.333 140.833 117.166 226.5 155.499s182.834 57.5 291.501 57.5c88 0 167.5 -15 238.5 -45
s131.5 -72 181.5 -126s88.5 -118 115.5 -192s40.5 -155 40.5 -243zM1309 846.003c0 71.333 -9.66602 135.332 -28.999 191.999s-47 105 -83 145s-79.333 70.667 -130 92s-107.334 32 -170.001 32c-74 0 -144.667 -16 -212 -48s-127 -76.333 -179 -133
c-29.333 -32 -55.833 -68.667 -79.5 -110s-44 -85.333 -61 -132s-30 -95.334 -39 -146.001s-13.5 -102 -13.5 -154c0 -66.667 9.16699 -128 27.5 -184s45 -104.167 80 -144.5s78.167 -71.833 129.5 -94.5s110.333 -34 177 -34c74 0 144.833 14.833 212.5 44.5
s127.167 73.5 178.5 131.5c32 36 59.833 76.167 83.5 120.5s43.5 90.333 59.5 138s28 95.834 36 144.501s12 95.334 12 140.001zM1237 1665c0 -28 -9.66992 -51.333 -29.0029 -70s-42.666 -28 -69.999 -28c-26.667 0 -49.667 9.16699 -69 27.5s-29 41.833 -29 70.5
c0 14 2.66699 27 8 39s12.333 22.333 21 31s18.834 15.5 30.501 20.5s23.834 7.5 36.501 7.5c14 0 27.167 -2.5 39.5 -7.5s23 -12 32 -21s16.167 -19.333 21.5 -31s8 -24.5 8 -38.5zM851.997 1665c0 -14 -2.66699 -26.833 -8 -38.5s-12.5 -22 -21.5 -31s-19.667 -16 -32 -21
s-25.5 -7.5 -39.5 -7.5c-12.667 0 -25 2.5 -37 7.5s-22.5 11.833 -31.5 20.5s-16.167 19 -21.5 31s-8 25 -8 39s2.66699 27 8 39s12.5 22.333 21.5 31s19.5 15.5 31.5 20.5s24.333 7.5 37 7.5c14 0 27.167 -2.5 39.5 -7.5s23 -12 32 -21s16.167 -19.333 21.5 -31
s8 -24.5 8 -38.5z" />
    <glyph glyph-name="multiply" unicode="&#xd7;" horiz-adv-x="1403" 
d="M1055 164l-338 340l-340 -340l-94 94l340 338l-340 340l94 94l340 -340l338 340l94 -94l-340 -340l340 -338z" />
    <glyph glyph-name="Oslash" unicode="&#xd8;" horiz-adv-x="1544" 
d="M1384 1219c34 -52.667 59.6709 -110.167 77.0039 -172.5s26 -128.5 26 -198.5c0 -62.667 -5.83301 -125.334 -17.5 -188.001s-29.167 -123.5 -52.5 -182.5s-52.5 -115.167 -87.5 -168.5s-75.5 -101.666 -121.5 -144.999c-62.667 -60 -134.334 -106.5 -215.001 -139.5
s-174 -49.5 -280 -49.5c-45.333 0 -88 4.16699 -128 12.5s-77.333 19.833 -112 34.5s-66.334 32 -95.001 52s-54.334 41.667 -77.001 65l-170 -168l-82 78l180 180c-28.667 50.667 -51.167 105.667 -67.5 165s-24.5 123.333 -24.5 192c0 138.667 23 262.667 69 372
s108.333 203.666 187 282.999c66.667 66.667 142.167 118.834 226.5 156.501s182.166 56.5 293.499 56.5c86.667 0 163.167 -13.833 229.5 -41.5s122.5 -63.5 168.5 -107.5l159 161l80 -80zM1190 1186c-34 34.667 -75.334 62.8311 -124.001 84.498s-103 32.5 -163 32.5
c-40.667 0 -79.834 -4.33301 -117.501 -13s-73.167 -20.667 -106.5 -36s-64.666 -33.5 -93.999 -54.5s-55.666 -44.167 -78.999 -69.5c-30.667 -34 -58 -71.833 -82 -113.5s-44.167 -86 -60.5 -133s-28.833 -96.167 -37.5 -147.5s-13 -104 -13 -158
c0 -41.333 4 -80.666 12 -117.999s19 -72.666 33 -105.999zM1309 849.997c0 47.333 -4.83398 91.5 -14.501 132.5s-22.834 78.167 -39.501 111.5l-833 -838c34 -42 76.333 -74 127 -96s110 -33 178 -33c70.667 0 136.834 12.333 198.501 37s116.5 60.667 164.5 108
c34.667 34 65.667 73 93 117s50.333 91 69 141s32.834 102.167 42.501 156.5s14.5 108.833 14.5 163.5z" />
    <glyph glyph-name="Ugrave" unicode="&#xd9;" horiz-adv-x="1411" 
d="M1247 563c-20 -93.333 -45.167 -176.501 -75.5 -249.501s-69.333 -134.5 -117 -184.5s-105.834 -88.167 -174.501 -114.5s-151 -39.5 -247 -39.5c-74 0 -140 11.667 -198 35s-106.667 55.333 -146 96s-69.333 88.667 -90 144s-31 115.333 -31 180
c0 28.667 1.83301 61 5.5 97s8.5 70 14.5 102l174 805h173l-173 -795l-8.5 -50c-3 -18 -5.66699 -36 -8 -54s-4.16602 -35 -5.49902 -51s-2 -30 -2 -42c0 -53.333 8 -99.666 24 -138.999s38.167 -72 66.5 -98s61.666 -45.5 99.999 -58.5s79.833 -19.5 124.5 -19.5
c56.667 0 107.334 8 152.001 24s84 41 118 75s63.167 77.333 87.5 130s44.5 115.667 60.5 189l191 889h172zM974 1567l-239 327h153l207 -327h-121z" />
    <glyph glyph-name="Uacute" unicode="&#xda;" horiz-adv-x="1411" 
d="M1247 563c-20 -93.333 -45.167 -176.501 -75.5 -249.501s-69.333 -134.5 -117 -184.5s-105.834 -88.167 -174.501 -114.5s-151 -39.5 -247 -39.5c-74 0 -140 11.667 -198 35s-106.667 55.333 -146 96s-69.333 88.667 -90 144s-31 115.333 -31 180
c0 28.667 1.83301 61 5.5 97s8.5 70 14.5 102l174 805h173l-173 -795l-8.5 -50c-3 -18 -5.66699 -36 -8 -54s-4.16602 -35 -5.49902 -51s-2 -30 -2 -42c0 -53.333 8 -99.666 24 -138.999s38.167 -72 66.5 -98s61.666 -45.5 99.999 -58.5s79.833 -19.5 124.5 -19.5
c56.667 0 107.334 8 152.001 24s84 41 118 75s63.167 77.333 87.5 130s44.5 115.667 60.5 189l191 889h172zM881 1567h-123l289 327h161z" />
    <glyph glyph-name="Ucircumflex" unicode="&#xdb;" horiz-adv-x="1411" 
d="M1247 563c-20 -93.333 -45.167 -176.501 -75.5 -249.501s-69.333 -134.5 -117 -184.5s-105.834 -88.167 -174.501 -114.5s-151 -39.5 -247 -39.5c-74 0 -140 11.667 -198 35s-106.667 55.333 -146 96s-69.333 88.667 -90 144s-31 115.333 -31 180
c0 28.667 1.83301 61 5.5 97s8.5 70 14.5 102l174 805h173l-173 -795l-8.5 -50c-3 -18 -5.66699 -36 -8 -54s-4.16602 -35 -5.49902 -51s-2 -30 -2 -42c0 -53.333 8 -99.666 24 -138.999s38.167 -72 66.5 -98s61.666 -45.5 99.999 -58.5s79.833 -19.5 124.5 -19.5
c56.667 0 107.334 8 152.001 24s84 41 118 75s63.167 77.333 87.5 130s44.5 115.667 60.5 189l191 889h172zM1081 1567l-114 231l-213 -231h-121l283 331h133l145 -331h-113z" />
    <glyph glyph-name="Udieresis" unicode="&#xdc;" horiz-adv-x="1411" 
d="M1247 563c-20 -93.333 -45.167 -176.501 -75.5 -249.501s-69.333 -134.5 -117 -184.5s-105.834 -88.167 -174.501 -114.5s-151 -39.5 -247 -39.5c-74 0 -140 11.667 -198 35s-106.667 55.333 -146 96s-69.333 88.667 -90 144s-31 115.333 -31 180
c0 28.667 1.83301 61 5.5 97s8.5 70 14.5 102l174 805h173l-173 -795l-8.5 -50c-3 -18 -5.66699 -36 -8 -54s-4.16602 -35 -5.49902 -51s-2 -30 -2 -42c0 -53.333 8 -99.666 24 -138.999s38.167 -72 66.5 -98s61.666 -45.5 99.999 -58.5s79.833 -19.5 124.5 -19.5
c56.667 0 107.334 8 152.001 24s84 41 118 75s63.167 77.333 87.5 130s44.5 115.667 60.5 189l191 889h172zM1209 1665c0 -28 -9.66992 -51.333 -29.0029 -70s-42.666 -28 -69.999 -28c-26.667 0 -49.667 9.16699 -69 27.5s-29 41.833 -29 70.5c0 14 2.66699 27 8 39
s12.333 22.333 21 31s18.834 15.5 30.501 20.5s23.834 7.5 36.501 7.5c14 0 27.167 -2.5 39.5 -7.5s23 -12 32 -21s16.167 -19.333 21.5 -31s8 -24.5 8 -38.5zM823.997 1665c0 -14 -2.66699 -26.833 -8 -38.5s-12.5 -22 -21.5 -31s-19.667 -16 -32 -21
s-25.5 -7.5 -39.5 -7.5c-12.667 0 -25 2.5 -37 7.5s-22.5 11.833 -31.5 20.5s-16.167 19 -21.5 31s-8 25 -8 39s2.66699 27 8 39s12.5 22.333 21.5 31s19.5 15.5 31.5 20.5s24.333 7.5 37 7.5c14 0 27.167 -2.5 39.5 -7.5s23 -12 32 -21s16.167 -19.333 21.5 -31
s8 -24.5 8 -38.5z" />
    <glyph glyph-name="Yacute" unicode="&#xdd;" horiz-adv-x="1135" 
d="M651 545l-113.999 -545h-172l114 541l-268 893h182l178 -660c4.66699 -15.333 8.5 -30.833 11.5 -46.5l7.5 -39.5h2c5.33301 10.667 12.666 23.5 21.999 38.5l29 45.5l477 662h193zM750.001 1567h-123l289 327h161z" />
    <glyph glyph-name="Thorn" unicode="&#xde;" horiz-adv-x="1178" 
d="M1128 834c0 -70.667 -11.833 -137.332 -35.5 -199.999s-60 -117.5 -109 -164.5s-111 -84.167 -186 -111.5s-164.167 -41 -267.5 -41h-215l-69 -317h-172l303 1434h174l-47 -226h196c77.333 0 143 -10.333 197 -31s98.167 -48.334 132.5 -83.001s59.333 -74.5 75 -119.5
s23.5 -91.833 23.5 -140.5zM952 819.002c0 32.667 -5.66699 63.5 -17 92.5s-29 54.167 -53 75.5s-54.833 38.333 -92.5 51s-83.167 19 -136.5 19h-182l-125 -588h201c70.667 0 131.5 8.83301 182.5 26.5s93 42 126 73s57.333 68 73 111s23.5 89.5 23.5 139.5z" />
    <glyph glyph-name="germandbls" unicode="&#xdf;" horiz-adv-x="1106" 
d="M1077 1221c0 -58.667 -10.332 -111.16 -30.999 -157.493s-47.167 -86.833 -79.5 -121.5s-68.5 -63 -108.5 -85s-79.667 -38 -119 -48v-4c48 -10 89.667 -26.333 125 -49s64.666 -50.167 87.999 -82.5s40.833 -68.5 52.5 -108.5s17.5 -81.667 17.5 -125
c0 -58.667 -9.5 -115.834 -28.5 -171.501s-48 -105.334 -87 -149.001s-88.5 -78.667 -148.5 -105s-131 -39.5 -213 -39.5c-15.333 0 -32 0.833008 -50 2.5s-35.5 4 -52.5 7s-32.833 6.33301 -47.5 10s-26.334 7.5 -35.001 11.5l35 156c10.667 -7.33301 23 -13.833 37 -19.5
s28.333 -10.5 43 -14.5s29 -7.16699 43 -9.5s26.333 -3.5 37 -3.5c56 0 102.833 10 140.5 30s68.167 45.667 91.5 77s40 66.166 50 104.499s15 75.5 15 111.5c0 42 -5.83301 80.667 -17.5 116s-29.667 66.166 -54 92.499s-55.333 47.5 -93 63.5s-82.5 25.667 -134.5 29
l27 133c51.333 8 97.333 21.667 138 41s75.167 43.5 103.5 72.5s50 62.5 65 100.5s22.5 79.333 22.5 124c0 26 -3.83301 50.667 -11.5 74s-19 43.666 -34 60.999s-33.167 31 -54.5 41s-46 15 -74 15c-34.667 0 -66.5 -5.66699 -95.5 -17s-55.167 -29.5 -78.5 -54.5
s-43.833 -57.667 -61.5 -98s-32.5 -89.166 -44.5 -146.499l-232 -1085h-166l242 1137c13.333 62 32 117.833 56 167.5s54.333 92 91 127s80 61.833 130 80.5s107.333 28 172 28c52.667 0 99.334 -8.33301 140.001 -25s75 -39.334 103 -68.001s49.333 -62.334 64 -101.001
s22 -80.334 22 -125.001z" />
    <glyph glyph-name="agrave" unicode="&#xe0;" horiz-adv-x="1110" 
d="M905 328c-5.33301 -25.333 -10.499 -53.832 -15.499 -85.499s-9.33301 -63 -13 -94s-6.66699 -59.833 -9 -86.5s-3.5 -47.334 -3.5 -62.001h-170c0.666992 13.333 1.66699 29.333 3 48s3.16602 38 5.49902 58l7 59c2.33301 19.333 4.83301 36 7.5 50h-4
c-20.667 -32.667 -41.667 -63.5 -63 -92.5s-45 -54.5 -71 -76.5s-55 -39.333 -87 -52s-69.667 -19 -113 -19c-44.667 0 -85.5 8 -122.5 24s-68.833 39.833 -95.5 71.5s-47.167 71.334 -61.5 119.001s-21.5 103.167 -21.5 166.5c0 38.667 4 82.667 12 132
s21.5 99.666 40.5 150.999s44.333 101.5 76 150.5s71 92.833 118 131.5s102.5 69.667 166.5 93s138 35 222 35c53.333 0 108.333 -4 165 -12s113 -17.667 169 -29zM858.001 889.001c-23.333 5.33301 -50.6699 9.99902 -82.0029 13.999s-60.666 6 -87.999 6
c-58 0 -109.167 -9.16699 -153.5 -27.5s-82.833 -42.333 -115.5 -72s-60.167 -63.834 -82.5 -102.501s-40.166 -78.167 -53.499 -118.5s-22.833 -80.166 -28.5 -119.499s-8.5 -75 -8.5 -107c0 -38 3.33301 -72.167 10 -102.5s17.167 -56.166 31.5 -77.499
s32.666 -37.833 54.999 -49.5s48.833 -17.5 79.5 -17.5c33.333 0 64.5 6.83301 93.5 20.5s56.167 32.167 81.5 55.5s48.333 50.333 69 81s39.334 63.167 56.001 97.5s30.834 69.333 42.501 105s21.167 70.167 28.5 103.5zM773.997 1219l-239 327h153l207 -327h-121z" />
    <glyph glyph-name="aacute" unicode="&#xe1;" horiz-adv-x="1110" 
d="M905 328c-5.33301 -25.333 -10.499 -53.832 -15.499 -85.499s-9.33301 -63 -13 -94s-6.66699 -59.833 -9 -86.5s-3.5 -47.334 -3.5 -62.001h-170c0.666992 13.333 1.66699 29.333 3 48s3.16602 38 5.49902 58l7 59c2.33301 19.333 4.83301 36 7.5 50h-4
c-20.667 -32.667 -41.667 -63.5 -63 -92.5s-45 -54.5 -71 -76.5s-55 -39.333 -87 -52s-69.667 -19 -113 -19c-44.667 0 -85.5 8 -122.5 24s-68.833 39.833 -95.5 71.5s-47.167 71.334 -61.5 119.001s-21.5 103.167 -21.5 166.5c0 38.667 4 82.667 12 132
s21.5 99.666 40.5 150.999s44.333 101.5 76 150.5s71 92.833 118 131.5s102.5 69.667 166.5 93s138 35 222 35c53.333 0 108.333 -4 165 -12s113 -17.667 169 -29zM858.001 889.001c-23.333 5.33301 -50.6699 9.99902 -82.0029 13.999s-60.666 6 -87.999 6
c-58 0 -109.167 -9.16699 -153.5 -27.5s-82.833 -42.333 -115.5 -72s-60.167 -63.834 -82.5 -102.501s-40.166 -78.167 -53.499 -118.5s-22.833 -80.166 -28.5 -119.499s-8.5 -75 -8.5 -107c0 -38 3.33301 -72.167 10 -102.5s17.167 -56.166 31.5 -77.499
s32.666 -37.833 54.999 -49.5s48.833 -17.5 79.5 -17.5c33.333 0 64.5 6.83301 93.5 20.5s56.167 32.167 81.5 55.5s48.333 50.333 69 81s39.334 63.167 56.001 97.5s30.834 69.333 42.501 105s21.167 70.167 28.5 103.5zM698.997 1219h-123l289 327h161z" />
    <glyph glyph-name="acircumflex" unicode="&#xe2;" horiz-adv-x="1110" 
d="M905 328c-5.33301 -25.333 -10.499 -53.832 -15.499 -85.499s-9.33301 -63 -13 -94s-6.66699 -59.833 -9 -86.5s-3.5 -47.334 -3.5 -62.001h-170c0.666992 13.333 1.66699 29.333 3 48s3.16602 38 5.49902 58l7 59c2.33301 19.333 4.83301 36 7.5 50h-4
c-20.667 -32.667 -41.667 -63.5 -63 -92.5s-45 -54.5 -71 -76.5s-55 -39.333 -87 -52s-69.667 -19 -113 -19c-44.667 0 -85.5 8 -122.5 24s-68.833 39.833 -95.5 71.5s-47.167 71.334 -61.5 119.001s-21.5 103.167 -21.5 166.5c0 38.667 4 82.667 12 132
s21.5 99.666 40.5 150.999s44.333 101.5 76 150.5s71 92.833 118 131.5s102.5 69.667 166.5 93s138 35 222 35c53.333 0 108.333 -4 165 -12s113 -17.667 169 -29zM858.001 889.001c-23.333 5.33301 -50.6699 9.99902 -82.0029 13.999s-60.666 6 -87.999 6
c-58 0 -109.167 -9.16699 -153.5 -27.5s-82.833 -42.333 -115.5 -72s-60.167 -63.834 -82.5 -102.501s-40.166 -78.167 -53.499 -118.5s-22.833 -80.166 -28.5 -119.499s-8.5 -75 -8.5 -107c0 -38 3.33301 -72.167 10 -102.5s17.167 -56.166 31.5 -77.499
s32.666 -37.833 54.999 -49.5s48.833 -17.5 79.5 -17.5c33.333 0 64.5 6.83301 93.5 20.5s56.167 32.167 81.5 55.5s48.333 50.333 69 81s39.334 63.167 56.001 97.5s30.834 69.333 42.501 105s21.167 70.167 28.5 103.5zM879.997 1219l-114 231l-213 -231h-121l283 331h133
l145 -331h-113z" />
    <glyph glyph-name="atilde" unicode="&#xe3;" horiz-adv-x="1110" 
d="M905 328c-5.33301 -25.333 -10.499 -53.832 -15.499 -85.499s-9.33301 -63 -13 -94s-6.66699 -59.833 -9 -86.5s-3.5 -47.334 -3.5 -62.001h-170c0.666992 13.333 1.66699 29.333 3 48s3.16602 38 5.49902 58l7 59c2.33301 19.333 4.83301 36 7.5 50h-4
c-20.667 -32.667 -41.667 -63.5 -63 -92.5s-45 -54.5 -71 -76.5s-55 -39.333 -87 -52s-69.667 -19 -113 -19c-44.667 0 -85.5 8 -122.5 24s-68.833 39.833 -95.5 71.5s-47.167 71.334 -61.5 119.001s-21.5 103.167 -21.5 166.5c0 38.667 4 82.667 12 132
s21.5 99.666 40.5 150.999s44.333 101.5 76 150.5s71 92.833 118 131.5s102.5 69.667 166.5 93s138 35 222 35c53.333 0 108.333 -4 165 -12s113 -17.667 169 -29zM858.001 889.001c-23.333 5.33301 -50.6699 9.99902 -82.0029 13.999s-60.666 6 -87.999 6
c-58 0 -109.167 -9.16699 -153.5 -27.5s-82.833 -42.333 -115.5 -72s-60.167 -63.834 -82.5 -102.501s-40.166 -78.167 -53.499 -118.5s-22.833 -80.166 -28.5 -119.499s-8.5 -75 -8.5 -107c0 -38 3.33301 -72.167 10 -102.5s17.167 -56.166 31.5 -77.499
s32.666 -37.833 54.999 -49.5s48.833 -17.5 79.5 -17.5c33.333 0 64.5 6.83301 93.5 20.5s56.167 32.167 81.5 55.5s48.333 50.333 69 81s39.334 63.167 56.001 97.5s30.834 69.333 42.501 105s21.167 70.167 28.5 103.5zM1041 1458
c-2 -30 -8.83398 -58.332 -20.501 -84.999s-27 -50 -46 -70s-41.333 -35.667 -67 -47s-53.5 -17 -83.5 -17c-32 0 -58.833 4.83301 -80.5 14.5s-41 20.167 -58 31.5l-49 31.5c-15.667 9.66699 -33.834 14.5 -54.501 14.5c-34 0 -60.833 -11 -80.5 -33
s-31.167 -48.333 -34.5 -79h-96c2 32 9.16699 61.667 21.5 89s28.5 50.666 48.5 69.999s43.5 34.5 70.5 45.5s56.167 16.5 87.5 16.5c29.333 0 53.833 -5 73.5 -15s37.834 -21.167 54.501 -33.5s33.167 -23.5 49.5 -33.5s35.5 -15 57.5 -15c14.667 0 28.334 3 41.001 9
s24 14.167 34 24.5s18 22.5 24 36.5s10 29 12 45h96z" />
    <glyph glyph-name="adieresis" unicode="&#xe4;" horiz-adv-x="1110" 
d="M905 328c-5.33301 -25.333 -10.499 -53.832 -15.499 -85.499s-9.33301 -63 -13 -94s-6.66699 -59.833 -9 -86.5s-3.5 -47.334 -3.5 -62.001h-170c0.666992 13.333 1.66699 29.333 3 48s3.16602 38 5.49902 58l7 59c2.33301 19.333 4.83301 36 7.5 50h-4
c-20.667 -32.667 -41.667 -63.5 -63 -92.5s-45 -54.5 -71 -76.5s-55 -39.333 -87 -52s-69.667 -19 -113 -19c-44.667 0 -85.5 8 -122.5 24s-68.833 39.833 -95.5 71.5s-47.167 71.334 -61.5 119.001s-21.5 103.167 -21.5 166.5c0 38.667 4 82.667 12 132
s21.5 99.666 40.5 150.999s44.333 101.5 76 150.5s71 92.833 118 131.5s102.5 69.667 166.5 93s138 35 222 35c53.333 0 108.333 -4 165 -12s113 -17.667 169 -29zM858.001 889.001c-23.333 5.33301 -50.6699 9.99902 -82.0029 13.999s-60.666 6 -87.999 6
c-58 0 -109.167 -9.16699 -153.5 -27.5s-82.833 -42.333 -115.5 -72s-60.167 -63.834 -82.5 -102.501s-40.166 -78.167 -53.499 -118.5s-22.833 -80.166 -28.5 -119.499s-8.5 -75 -8.5 -107c0 -38 3.33301 -72.167 10 -102.5s17.167 -56.166 31.5 -77.499
s32.666 -37.833 54.999 -49.5s48.833 -17.5 79.5 -17.5c33.333 0 64.5 6.83301 93.5 20.5s56.167 32.167 81.5 55.5s48.333 50.333 69 81s39.334 63.167 56.001 97.5s30.834 69.333 42.501 105s21.167 70.167 28.5 103.5zM1002 1317c0 -28 -9.66992 -51.333 -29.0029 -70
s-42.666 -28 -69.999 -28c-26.667 0 -49.667 9.16699 -69 27.5s-29 41.833 -29 70.5c0 14 2.66699 27 8 39s12.333 22.333 21 31s18.834 15.5 30.501 20.5s23.834 7.5 36.501 7.5c14 0 27.167 -2.5 39.5 -7.5s23 -12 32 -21s16.167 -19.333 21.5 -31s8 -24.5 8 -38.5z
M616.994 1317c0 -14 -2.66699 -26.833 -8 -38.5s-12.5 -22 -21.5 -31s-19.667 -16 -32 -21s-25.5 -7.5 -39.5 -7.5c-12.667 0 -25 2.5 -37 7.5s-22.5 11.833 -31.5 20.5s-16.167 19 -21.5 31s-8 25 -8 39s2.66699 27 8 39s12.5 22.333 21.5 31s19.5 15.5 31.5 20.5
s24.333 7.5 37 7.5c14 0 27.167 -2.5 39.5 -7.5s23 -12 32 -21s16.167 -19.333 21.5 -31s8 -24.5 8 -38.5z" />
    <glyph glyph-name="aring" unicode="&#xe5;" horiz-adv-x="1110" 
d="M905 328c-5.33301 -25.333 -10.499 -53.832 -15.499 -85.499s-9.33301 -63 -13 -94s-6.66699 -59.833 -9 -86.5s-3.5 -47.334 -3.5 -62.001h-170c0.666992 13.333 1.66699 29.333 3 48s3.16602 38 5.49902 58l7 59c2.33301 19.333 4.83301 36 7.5 50h-4
c-20.667 -32.667 -41.667 -63.5 -63 -92.5s-45 -54.5 -71 -76.5s-55 -39.333 -87 -52s-69.667 -19 -113 -19c-44.667 0 -85.5 8 -122.5 24s-68.833 39.833 -95.5 71.5s-47.167 71.334 -61.5 119.001s-21.5 103.167 -21.5 166.5c0 38.667 4 82.667 12 132
s21.5 99.666 40.5 150.999s44.333 101.5 76 150.5s71 92.833 118 131.5s102.5 69.667 166.5 93s138 35 222 35c53.333 0 108.333 -4 165 -12s113 -17.667 169 -29zM858.001 889.001c-23.333 5.33301 -50.6699 9.99902 -82.0029 13.999s-60.666 6 -87.999 6
c-58 0 -109.167 -9.16699 -153.5 -27.5s-82.833 -42.333 -115.5 -72s-60.167 -63.834 -82.5 -102.501s-40.166 -78.167 -53.499 -118.5s-22.833 -80.166 -28.5 -119.499s-8.5 -75 -8.5 -107c0 -38 3.33301 -72.167 10 -102.5s17.167 -56.166 31.5 -77.499
s32.666 -37.833 54.999 -49.5s48.833 -17.5 79.5 -17.5c33.333 0 64.5 6.83301 93.5 20.5s56.167 32.167 81.5 55.5s48.333 50.333 69 81s39.334 63.167 56.001 97.5s30.834 69.333 42.501 105s21.167 70.167 28.5 103.5zM933.997 1374
c0 -28 -5.33594 -54.001 -16.0029 -78.001s-25.334 -45 -44.001 -63s-40.667 -32 -66 -42s-52.333 -15 -81 -15s-55.334 4.5 -80.001 13.5s-46.167 21.833 -64.5 38.5s-32.666 36.667 -42.999 60s-15.5 49.333 -15.5 78c0 30.667 5.5 58.334 16.5 83.001
s25.833 45.5 44.5 62.5s40.834 30.167 66.501 39.5s52.834 14 81.501 14c30 0 57.333 -4.66699 82 -14s45.834 -22.5 63.501 -39.5s31.334 -37.167 41.001 -60.5s14.5 -49 14.5 -77zM841.994 1372c0 16.667 -3 31.8311 -9 45.498s-14.167 25.334 -24.5 35.001
s-22.5 17.167 -36.5 22.5s-29 8 -45 8c-32.667 0 -59.5 -10.5 -80.5 -31.5s-31.5 -47.5 -31.5 -79.5c0 -36 10.667 -64.167 32 -84.5s48 -30.5 80 -30.5c16.667 0 32 3 46 9s26.167 14.333 36.5 25s18.333 22.834 24 36.501s8.5 28.5 8.5 44.5z" />
    <glyph glyph-name="ae" unicode="&#xe6;" horiz-adv-x="1692" 
d="M1655 784c0 -54 -11.999 -103.168 -35.999 -147.501s-63.667 -82.333 -119 -114s-128.666 -56.167 -219.999 -73.5s-204 -26.333 -338 -27c0 -7.33301 -0.333008 -14.166 -1 -20.499s-1 -12.5 -1 -18.5c0 -36 4.83301 -70.167 14.5 -102.5s25 -60.666 46 -84.999
s48.167 -43.833 81.5 -58.5s73.333 -22 120 -22c46 0 96.5 8.83301 151.5 26.5s107.5 42.834 157.5 75.501l-30 -162c-37.333 -21.333 -81.166 -40 -131.499 -56s-106.833 -24 -169.5 -24c-60 0 -113 8.5 -159 25.5s-85 40.5 -117 70.5s-57 65.833 -75 107.5
s-29.333 87.167 -34 136.5h-4c-24 -42.667 -50.667 -84.334 -80 -125.001s-61.833 -77 -97.5 -109s-74.5 -57.667 -116.5 -77s-87.667 -29 -137 -29c-50.667 0 -93.834 9.16699 -129.501 27.5s-64.834 43.833 -87.501 76.5s-39.167 71.5 -49.5 116.5
s-15.5 93.833 -15.5 146.5c0 47.333 5.5 97.666 16.5 150.999s28 106.166 51 158.499s52.5 102.5 88.5 150.5s79.167 90.333 129.5 127s108.333 65.834 174 87.501s139.167 32.5 220.5 32.5c64 0 121.5 -7.5 172.5 -22.5s96.5 -32.167 136.5 -51.5
c37.333 23.333 78.166 41.5 122.499 54.5s93.5 19.5 147.5 19.5c42.667 0 83.167 -6 121.5 -18s72 -29.333 101 -52s52.167 -50.5 69.5 -83.5s26 -70.167 26 -111.5zM1487 773.999c0 22 -4.33301 41.332 -13 57.999s-20.834 30.834 -36.501 42.501s-34 20.334 -55 26.001
s-44.167 8.5 -69.5 8.5c-40.667 0 -79.834 -8 -117.501 -24s-72.167 -39 -103.5 -69s-58.666 -66.5 -81.999 -109.5s-40.666 -91.5 -51.999 -145.5c96 0 177.667 5 245 15s122 24.167 164 42.5s72.5 40.666 91.5 66.999s28.5 55.833 28.5 88.5zM942.001 867.998
c-11.333 5.33301 -24.6699 10.498 -40.0029 15.498s-31.666 9.33301 -48.999 13s-35.333 6.66699 -54 9s-36.667 3.5 -54 3.5c-59.333 0 -113 -9 -161 -27s-90.667 -41.833 -128 -71.5s-69.333 -64 -96 -103s-48.5 -79.333 -65.5 -121s-29.667 -83.334 -38 -125.001
s-12.5 -80.167 -12.5 -115.5c0 -34 2.83301 -65.167 8.5 -93.5s14.167 -52.666 25.5 -72.999s25.833 -36.166 43.5 -47.499s38.834 -17 63.501 -17c28 0 57.333 6.83301 88 20.5s62.167 36.334 94.5 68.001s65.333 73.5 99 125.5s67.5 116.333 101.5 193l30 69l40 90
c14.667 32 30.834 64.333 48.501 97s36.167 62.667 55.5 90z" />
    <glyph glyph-name="ccedilla" unicode="&#xe7;" horiz-adv-x="893" 
d="M715 49c-42 -22.667 -84.499 -40.6641 -127.499 -53.9971s-89.167 -20 -138.5 -20l-17 -79c24 0 46.833 -2.83301 68.5 -8.5s40.5 -14.167 56.5 -25.5s28.833 -25.333 38.5 -42s14.5 -36 14.5 -58c0 -59.333 -24.833 -106.833 -74.5 -142.5s-122.5 -53.5 -218.5 -53.5
c-13.333 0 -27.666 0.5 -42.999 1.5s-30.333 2.5 -45 4.5l19 88c26 -4 51.333 -6 76 -6c57.333 0 100 8.33301 128 25s42 39 42 67c0 23.333 -9.5 41.833 -28.5 55.5s-49.167 20.5 -90.5 20.5c-8.66699 0 -17.834 -0.333008 -27.501 -1s-19.167 -1.66699 -28.5 -3l37 168
c-46.667 10 -87.5 27 -122.5 51s-64 53.833 -87 89.5s-40.167 76 -51.5 121s-17 93.5 -17 145.5c0 56 5.66699 111.167 17 165.5s28.166 105.666 50.499 153.999s49.833 93.166 82.5 134.499s70.167 76.833 112.5 106.5s89.5 53 141.5 70s108.333 25.5 169 25.5
c28.667 0 56 -2 82 -6s49.667 -9.33301 71 -16s40.333 -13.834 57 -21.501s30 -15.167 40 -22.5l-37 -162c-28 24.667 -61.833 45.5 -101.5 62.5s-83.5 25.5 -131.5 25.5c-46 0 -87.5 -8 -124.5 -24s-69.833 -37.333 -98.5 -64s-53.334 -57.334 -74.001 -92.001
s-37.667 -70.667 -51 -108s-23.166 -74.5 -29.499 -111.5s-9.5 -71.5 -9.5 -103.5c0 -95.333 21 -167.666 63 -216.999s99.333 -74 172 -74c44 0 89.667 9.16699 137 27.5s92 41.833 134 70.5z" />
    <glyph glyph-name="egrave" unicode="&#xe8;" horiz-adv-x="997" 
d="M958 784c0 -54 -11.9951 -103.168 -35.9951 -147.501s-63.667 -82.333 -119 -114s-128.333 -56.167 -219 -73.5s-202.667 -26.333 -336 -27c-1.33301 -7.33301 -2 -15 -2 -23v-20c0 -36 5 -70 15 -102s25.5 -60 46.5 -84s48 -43 81 -57s72.167 -21 117.5 -21
c46 0 96.5 8.83301 151.5 26.5s107.5 42.834 157.5 75.501l-31 -162c-36.667 -21.333 -80.334 -40 -131.001 -56s-107.334 -24 -170.001 -24c-75.333 0 -138.833 11.667 -190.5 35s-93.334 54.5 -125.001 93.5s-54.5 84 -68.5 135s-21 104.5 -21 160.5
c0 60 6.66699 117.833 20 173.5s32.166 107.5 56.499 155.5s53.5 91.833 87.5 131.5s71.667 73.5 113 101.5s85.666 49.667 132.999 65s96.333 23 147 23c52.667 0 99.167 -7 139.5 -21s74 -33.167 101 -57.5s47.5 -52.5 61.5 -84.5s21 -66 21 -102zM791.005 775.999
c0 42 -15.5 74.666 -46.5 97.999s-72.167 35 -123.5 35c-40.667 0 -80 -8.83301 -118 -26.5s-73 -42 -105 -73s-59.667 -68 -83 -111s-40.333 -89.5 -51 -139.5c95.333 0 176.333 4.83301 243 14.5s121 23.834 163 42.501s72.667 41.5 92 68.5s29 57.5 29 91.5z
M700.005 1219l-239 327h153l207 -327h-121z" />
    <glyph glyph-name="eacute" unicode="&#xe9;" horiz-adv-x="997" 
d="M958 784c0 -54 -11.9951 -103.168 -35.9951 -147.501s-63.667 -82.333 -119 -114s-128.333 -56.167 -219 -73.5s-202.667 -26.333 -336 -27c-1.33301 -7.33301 -2 -15 -2 -23v-20c0 -36 5 -70 15 -102s25.5 -60 46.5 -84s48 -43 81 -57s72.167 -21 117.5 -21
c46 0 96.5 8.83301 151.5 26.5s107.5 42.834 157.5 75.501l-31 -162c-36.667 -21.333 -80.334 -40 -131.001 -56s-107.334 -24 -170.001 -24c-75.333 0 -138.833 11.667 -190.5 35s-93.334 54.5 -125.001 93.5s-54.5 84 -68.5 135s-21 104.5 -21 160.5
c0 60 6.66699 117.833 20 173.5s32.166 107.5 56.499 155.5s53.5 91.833 87.5 131.5s71.667 73.5 113 101.5s85.666 49.667 132.999 65s96.333 23 147 23c52.667 0 99.167 -7 139.5 -21s74 -33.167 101 -57.5s47.5 -52.5 61.5 -84.5s21 -66 21 -102zM791.005 775.999
c0 42 -15.5 74.666 -46.5 97.999s-72.167 35 -123.5 35c-40.667 0 -80 -8.83301 -118 -26.5s-73 -42 -105 -73s-59.667 -68 -83 -111s-40.333 -89.5 -51 -139.5c95.333 0 176.333 4.83301 243 14.5s121 23.834 163 42.501s72.667 41.5 92 68.5s29 57.5 29 91.5z
M623.005 1219h-123l289 327h161z" />
    <glyph glyph-name="ecircumflex" unicode="&#xea;" horiz-adv-x="997" 
d="M958 784c0 -54 -11.9951 -103.168 -35.9951 -147.501s-63.667 -82.333 -119 -114s-128.333 -56.167 -219 -73.5s-202.667 -26.333 -336 -27c-1.33301 -7.33301 -2 -15 -2 -23v-20c0 -36 5 -70 15 -102s25.5 -60 46.5 -84s48 -43 81 -57s72.167 -21 117.5 -21
c46 0 96.5 8.83301 151.5 26.5s107.5 42.834 157.5 75.501l-31 -162c-36.667 -21.333 -80.334 -40 -131.001 -56s-107.334 -24 -170.001 -24c-75.333 0 -138.833 11.667 -190.5 35s-93.334 54.5 -125.001 93.5s-54.5 84 -68.5 135s-21 104.5 -21 160.5
c0 60 6.66699 117.833 20 173.5s32.166 107.5 56.499 155.5s53.5 91.833 87.5 131.5s71.667 73.5 113 101.5s85.666 49.667 132.999 65s96.333 23 147 23c52.667 0 99.167 -7 139.5 -21s74 -33.167 101 -57.5s47.5 -52.5 61.5 -84.5s21 -66 21 -102zM791.005 775.999
c0 42 -15.5 74.666 -46.5 97.999s-72.167 35 -123.5 35c-40.667 0 -80 -8.83301 -118 -26.5s-73 -42 -105 -73s-59.667 -68 -83 -111s-40.333 -89.5 -51 -139.5c95.333 0 176.333 4.83301 243 14.5s121 23.834 163 42.501s72.667 41.5 92 68.5s29 57.5 29 91.5z
M815.005 1219l-114 231l-213 -231h-121l283 331h133l145 -331h-113z" />
    <glyph glyph-name="edieresis" unicode="&#xeb;" horiz-adv-x="997" 
d="M958 784c0 -54 -11.9951 -103.168 -35.9951 -147.501s-63.667 -82.333 -119 -114s-128.333 -56.167 -219 -73.5s-202.667 -26.333 -336 -27c-1.33301 -7.33301 -2 -15 -2 -23v-20c0 -36 5 -70 15 -102s25.5 -60 46.5 -84s48 -43 81 -57s72.167 -21 117.5 -21
c46 0 96.5 8.83301 151.5 26.5s107.5 42.834 157.5 75.501l-31 -162c-36.667 -21.333 -80.334 -40 -131.001 -56s-107.334 -24 -170.001 -24c-75.333 0 -138.833 11.667 -190.5 35s-93.334 54.5 -125.001 93.5s-54.5 84 -68.5 135s-21 104.5 -21 160.5
c0 60 6.66699 117.833 20 173.5s32.166 107.5 56.499 155.5s53.5 91.833 87.5 131.5s71.667 73.5 113 101.5s85.666 49.667 132.999 65s96.333 23 147 23c52.667 0 99.167 -7 139.5 -21s74 -33.167 101 -57.5s47.5 -52.5 61.5 -84.5s21 -66 21 -102zM791.005 775.999
c0 42 -15.5 74.666 -46.5 97.999s-72.167 35 -123.5 35c-40.667 0 -80 -8.83301 -118 -26.5s-73 -42 -105 -73s-59.667 -68 -83 -111s-40.333 -89.5 -51 -139.5c95.333 0 176.333 4.83301 243 14.5s121 23.834 163 42.501s72.667 41.5 92 68.5s29 57.5 29 91.5z
M940.005 1317c0 -28 -9.66992 -51.333 -29.0029 -70s-42.666 -28 -69.999 -28c-26.667 0 -49.667 9.16699 -69 27.5s-29 41.833 -29 70.5c0 14 2.66699 27 8 39s12.333 22.333 21 31s18.834 15.5 30.501 20.5s23.834 7.5 36.501 7.5c14 0 27.167 -2.5 39.5 -7.5
s23 -12 32 -21s16.167 -19.333 21.5 -31s8 -24.5 8 -38.5zM555.002 1317c0 -14 -2.66699 -26.833 -8 -38.5s-12.5 -22 -21.5 -31s-19.667 -16 -32 -21s-25.5 -7.5 -39.5 -7.5c-12.667 0 -25 2.5 -37 7.5s-22.5 11.833 -31.5 20.5s-16.167 19 -21.5 31s-8 25 -8 39
s2.66699 27 8 39s12.5 22.333 21.5 31s19.5 15.5 31.5 20.5s24.333 7.5 37 7.5c14 0 27.167 -2.5 39.5 -7.5s23 -12 32 -21s16.167 -19.333 21.5 -31s8 -24.5 8 -38.5z" />
    <glyph glyph-name="igrave" unicode="&#xec;" horiz-adv-x="530" 
d="M416 4c-16.667 -5.33301 -35.5 -9.66992 -56.5 -13.0029s-41.833 -5 -62.5 -5c-67.333 0 -117.666 16.833 -150.999 50.5s-50 78.834 -50 135.501c0 16.667 1.66699 36.334 5 59.001s8.66602 50.667 15.999 84l149 709h166l-150 -713c-6 -28 -10.167 -49.667 -12.5 -65
s-3.5 -28.333 -3.5 -39c0 -27.333 7.5 -48.166 22.5 -62.499s38.833 -21.5 71.5 -21.5c17.333 0 32.5 1 45.5 3s25.167 5 36.5 9zM437 1219l-239 327h153l207 -327h-121z" />
    <glyph glyph-name="iacute" unicode="&#xed;" horiz-adv-x="530" 
d="M416 4c-16.667 -5.33301 -35.5 -9.66992 -56.5 -13.0029s-41.833 -5 -62.5 -5c-67.333 0 -117.666 16.833 -150.999 50.5s-50 78.834 -50 135.501c0 16.667 1.66699 36.334 5 59.001s8.66602 50.667 15.999 84l149 709h166l-150 -713c-6 -28 -10.167 -49.667 -12.5 -65
s-3.5 -28.333 -3.5 -39c0 -27.333 7.5 -48.166 22.5 -62.499s38.833 -21.5 71.5 -21.5c17.333 0 32.5 1 45.5 3s25.167 5 36.5 9zM335 1219h-123l289 327h161z" />
    <glyph glyph-name="icircumflex" unicode="&#xee;" horiz-adv-x="530" 
d="M416 4c-16.667 -5.33301 -35.5 -9.66992 -56.5 -13.0029s-41.833 -5 -62.5 -5c-67.333 0 -117.666 16.833 -150.999 50.5s-50 78.834 -50 135.501c0 16.667 1.66699 36.334 5 59.001s8.66602 50.667 15.999 84l149 709h166l-150 -713c-6 -28 -10.167 -49.667 -12.5 -65
s-3.5 -28.333 -3.5 -39c0 -27.333 7.5 -48.166 22.5 -62.499s38.833 -21.5 71.5 -21.5c17.333 0 32.5 1 45.5 3s25.167 5 36.5 9zM547 1219l-114 231l-213 -231h-121l283 331h133l145 -331h-113z" />
    <glyph glyph-name="idieresis" unicode="&#xef;" horiz-adv-x="530" 
d="M416 4c-16.667 -5.33301 -35.5 -9.66992 -56.5 -13.0029s-41.833 -5 -62.5 -5c-67.333 0 -117.666 16.833 -150.999 50.5s-50 78.834 -50 135.501c0 16.667 1.66699 36.334 5 59.001s8.66602 50.667 15.999 84l149 709h166l-150 -713c-6 -28 -10.167 -49.667 -12.5 -65
s-3.5 -28.333 -3.5 -39c0 -27.333 7.5 -48.166 22.5 -62.499s38.833 -21.5 71.5 -21.5c17.333 0 32.5 1 45.5 3s25.167 5 36.5 9zM687 1317c0 -28 -9.66992 -51.333 -29.0029 -70s-42.666 -28 -69.999 -28c-26.667 0 -49.667 9.16699 -69 27.5s-29 41.833 -29 70.5
c0 14 2.66699 27 8 39s12.333 22.333 21 31s18.834 15.5 30.501 20.5s23.834 7.5 36.501 7.5c14 0 27.167 -2.5 39.5 -7.5s23 -12 32 -21s16.167 -19.333 21.5 -31s8 -24.5 8 -38.5zM301.997 1317c0 -14 -2.66699 -26.833 -8 -38.5s-12.5 -22 -21.5 -31s-19.667 -16 -32 -21
s-25.5 -7.5 -39.5 -7.5c-12.667 0 -25 2.5 -37 7.5s-22.5 11.833 -31.5 20.5s-16.167 19 -21.5 31s-8 25 -8 39s2.66699 27 8 39s12.5 22.333 21.5 31s19.5 15.5 31.5 20.5s24.333 7.5 37 7.5c14 0 27.167 -2.5 39.5 -7.5s23 -12 32 -21s16.167 -19.333 21.5 -31
s8 -24.5 8 -38.5z" />
    <glyph glyph-name="eth" unicode="&#xf0;" horiz-adv-x="1069" 
d="M799 1303c60.667 -77.333 108.168 -167.001 142.501 -269.001s51.5 -216 51.5 -342c0 -53.333 -4.83301 -108.166 -14.5 -164.499s-24.334 -111 -44.001 -164s-44.5 -103.167 -74.5 -150.5s-65.5 -88.5 -106.5 -123.5s-87.5 -62.833 -139.5 -83.5s-110 -31 -174 -31
c-54 0 -103.333 8.83301 -148 26.5s-82.834 43.5 -114.501 77.5s-56.167 75.667 -73.5 125s-26 105.666 -26 168.999c0 59.333 5.83301 117.166 17.5 173.499s28.334 109.666 50.001 159.999s48 96.333 79 138s65.667 77.667 104 108s79.833 54 124.5 71
s91.667 25.5 141 25.5c50 0 92.333 -9.66699 127 -29s61.334 -42.666 80.001 -69.999h4c-6.66699 27.333 -15.5 54.833 -26.5 82.5s-23 54.334 -36 80.001s-26.833 49.5 -41.5 71.5s-29.334 41 -44.001 57l-295 -123l-40 96l268 111c-14 16.667 -30 33.5 -48 50.5
s-37 33.833 -57 50.5l-60 48l-56 42h219c21.333 -16.667 44.833 -36.167 70.5 -58.5s49.167 -46.166 70.5 -71.499l287 121l43 -94zM825.001 652.999c0 32.667 -3.66797 64.3359 -11.001 95.0029s-19.5 58 -36.5 82s-39.333 43.167 -67 57.5s-61.834 21.5 -102.501 21.5
c-56 0 -106.333 -15.833 -151 -47.5s-82.667 -72.834 -114 -123.501s-55.333 -107.334 -72 -170.001s-25 -125 -25 -187c0 -40.667 4.33301 -77.334 13 -110.001s21.834 -60.5 39.501 -83.5s39.334 -40.833 65.001 -53.5s55.5 -19 89.5 -19c42.667 0 81.5 8.5 116.5 25.5
s66.333 39.5 94 67.5s51.5 60.5 71.5 97.5s36.667 75.333 50 115s23.333 79.667 30 120s10 77.833 10 112.5z" />
    <glyph glyph-name="ntilde" unicode="&#xf1;" horiz-adv-x="1151" 
d="M1046 768c0 -10 -1.16895 -23.665 -3.50195 -40.998s-5.33301 -36 -9 -56l-11 -59.5c-3.66699 -19.667 -7.16699 -36.5 -10.5 -50.5l-119 -561h-166l125 600c2.66699 10.667 5.33398 23 8.00098 37s5 28 7 42s3.66699 26.833 5 38.5s2 20.834 2 27.501
c0 50.667 -12.167 90.667 -36.5 120s-60.5 44 -108.5 44c-44 0 -87.667 -13 -131 -39s-83.333 -59 -120 -99s-68.167 -84 -94.5 -132s-44.166 -94.333 -53.499 -139l-107 -500h-166l158 731l16 81.5l15 82c4.66699 26.333 8.66699 50.833 12 73.5l8 56h160
c-3.33301 -26 -7.33301 -53.167 -12 -81.5s-8.66699 -54.5 -12 -78.5c-4 -28 -8.33301 -55.333 -13 -82h4c23.333 36.667 49.166 71.167 77.499 103.5s59 60.666 92 84.999s68 43.5 105 57.5s75.833 21 116.5 21c45.333 0 84.333 -6.83301 117 -20.5
s59.834 -32.834 81.501 -57.501s37.667 -54.334 48 -89.001s15.5 -72.667 15.5 -114zM1041 1458c-2 -30 -8.83398 -58.332 -20.501 -84.999s-27 -50 -46 -70s-41.333 -35.667 -67 -47s-53.5 -17 -83.5 -17c-32 0 -58.833 4.83301 -80.5 14.5s-41 20.167 -58 31.5l-49 31.5
c-15.667 9.66699 -33.834 14.5 -54.501 14.5c-34 0 -60.833 -11 -80.5 -33s-31.167 -48.333 -34.5 -79h-96c2 32 9.16699 61.667 21.5 89s28.5 50.666 48.5 69.999s43.5 34.5 70.5 45.5s56.167 16.5 87.5 16.5c29.333 0 53.833 -5 73.5 -15s37.834 -21.167 54.501 -33.5
s33.167 -23.5 49.5 -33.5s35.5 -15 57.5 -15c14.667 0 28.334 3 41.001 9s24 14.167 34 24.5s18 22.5 24 36.5s10 29 12 45h96z" />
    <glyph glyph-name="ograve" unicode="&#xf2;" horiz-adv-x="1096" 
d="M1018 645c0 -90.667 -12.832 -176.666 -38.499 -257.999s-62.667 -152.5 -111 -213.5s-107 -109.333 -176 -145s-146.833 -53.5 -233.5 -53.5c-58.667 0 -111.5 9.33301 -158.5 28s-87 45.5 -120 80.5s-58.333 77.333 -76 127s-26.5 105.834 -26.5 168.501
c0 94 13.5 181.833 40.5 263.5s65 152.667 114 213s107.667 107.666 176 141.999s143.833 51.5 226.5 51.5c58 0 110.5 -9.33301 157.5 -28s87.167 -45.5 120.5 -80.5s59.166 -77.333 77.499 -127s27.5 -105.834 27.5 -168.501zM850.001 637.001
c0 43.333 -5.33301 81.834 -16 115.501s-25.667 62 -45 85s-42.666 40.667 -69.999 53s-58 18.5 -92 18.5c-58.667 0 -111.667 -15 -159 -45s-87.333 -69.5 -120 -118.5s-57.834 -104.667 -75.501 -167s-26.5 -126.166 -26.5 -191.499
c0 -41.333 5.16699 -78.833 15.5 -112.5s25 -62.334 44 -86.001s42.333 -41.834 70 -54.501s58.834 -19 93.501 -19c59.333 0 112.666 14.833 159.999 44.5s87.333 69 120 118s57.667 104.833 75 167.5s26 126.667 26 192zM745.001 1219l-239 327h153l207 -327h-121z" />
    <glyph glyph-name="oacute" unicode="&#xf3;" horiz-adv-x="1096" 
d="M1018 645c0 -90.667 -12.832 -176.666 -38.499 -257.999s-62.667 -152.5 -111 -213.5s-107 -109.333 -176 -145s-146.833 -53.5 -233.5 -53.5c-58.667 0 -111.5 9.33301 -158.5 28s-87 45.5 -120 80.5s-58.333 77.333 -76 127s-26.5 105.834 -26.5 168.501
c0 94 13.5 181.833 40.5 263.5s65 152.667 114 213s107.667 107.666 176 141.999s143.833 51.5 226.5 51.5c58 0 110.5 -9.33301 157.5 -28s87.167 -45.5 120.5 -80.5s59.166 -77.333 77.499 -127s27.5 -105.834 27.5 -168.501zM850.001 637.001
c0 43.333 -5.33301 81.834 -16 115.501s-25.667 62 -45 85s-42.666 40.667 -69.999 53s-58 18.5 -92 18.5c-58.667 0 -111.667 -15 -159 -45s-87.333 -69.5 -120 -118.5s-57.834 -104.667 -75.501 -167s-26.5 -126.166 -26.5 -191.499
c0 -41.333 5.16699 -78.833 15.5 -112.5s25 -62.334 44 -86.001s42.333 -41.834 70 -54.501s58.834 -19 93.501 -19c59.333 0 112.666 14.833 159.999 44.5s87.333 69 120 118s57.667 104.833 75 167.5s26 126.667 26 192zM639.001 1219h-123l289 327h161z" />
    <glyph glyph-name="ocircumflex" unicode="&#xf4;" horiz-adv-x="1096" 
d="M1018 645c0 -90.667 -12.832 -176.666 -38.499 -257.999s-62.667 -152.5 -111 -213.5s-107 -109.333 -176 -145s-146.833 -53.5 -233.5 -53.5c-58.667 0 -111.5 9.33301 -158.5 28s-87 45.5 -120 80.5s-58.333 77.333 -76 127s-26.5 105.834 -26.5 168.501
c0 94 13.5 181.833 40.5 263.5s65 152.667 114 213s107.667 107.666 176 141.999s143.833 51.5 226.5 51.5c58 0 110.5 -9.33301 157.5 -28s87.167 -45.5 120.5 -80.5s59.166 -77.333 77.499 -127s27.5 -105.834 27.5 -168.501zM850.001 637.001
c0 43.333 -5.33301 81.834 -16 115.501s-25.667 62 -45 85s-42.666 40.667 -69.999 53s-58 18.5 -92 18.5c-58.667 0 -111.667 -15 -159 -45s-87.333 -69.5 -120 -118.5s-57.834 -104.667 -75.501 -167s-26.5 -126.166 -26.5 -191.499
c0 -41.333 5.16699 -78.833 15.5 -112.5s25 -62.334 44 -86.001s42.333 -41.834 70 -54.501s58.834 -19 93.501 -19c59.333 0 112.666 14.833 159.999 44.5s87.333 69 120 118s57.667 104.833 75 167.5s26 126.667 26 192zM827.001 1219l-114 231l-213 -231h-121l283 331
h133l145 -331h-113z" />
    <glyph glyph-name="otilde" unicode="&#xf5;" horiz-adv-x="1096" 
d="M1018 645c0 -90.667 -12.832 -176.666 -38.499 -257.999s-62.667 -152.5 -111 -213.5s-107 -109.333 -176 -145s-146.833 -53.5 -233.5 -53.5c-58.667 0 -111.5 9.33301 -158.5 28s-87 45.5 -120 80.5s-58.333 77.333 -76 127s-26.5 105.834 -26.5 168.501
c0 94 13.5 181.833 40.5 263.5s65 152.667 114 213s107.667 107.666 176 141.999s143.833 51.5 226.5 51.5c58 0 110.5 -9.33301 157.5 -28s87.167 -45.5 120.5 -80.5s59.166 -77.333 77.499 -127s27.5 -105.834 27.5 -168.501zM850.001 637.001
c0 43.333 -5.33301 81.834 -16 115.501s-25.667 62 -45 85s-42.666 40.667 -69.999 53s-58 18.5 -92 18.5c-58.667 0 -111.667 -15 -159 -45s-87.333 -69.5 -120 -118.5s-57.834 -104.667 -75.501 -167s-26.5 -126.166 -26.5 -191.499
c0 -41.333 5.16699 -78.833 15.5 -112.5s25 -62.334 44 -86.001s42.333 -41.834 70 -54.501s58.834 -19 93.501 -19c59.333 0 112.666 14.833 159.999 44.5s87.333 69 120 118s57.667 104.833 75 167.5s26 126.667 26 192zM1020 1458
c-2 -30 -8.83398 -58.332 -20.501 -84.999s-27 -50 -46 -70s-41.333 -35.667 -67 -47s-53.5 -17 -83.5 -17c-32 0 -58.833 4.83301 -80.5 14.5s-41 20.167 -58 31.5l-49 31.5c-15.667 9.66699 -33.834 14.5 -54.501 14.5c-34 0 -60.833 -11 -80.5 -33
s-31.167 -48.333 -34.5 -79h-96c2 32 9.16699 61.667 21.5 89s28.5 50.666 48.5 69.999s43.5 34.5 70.5 45.5s56.167 16.5 87.5 16.5c29.333 0 53.833 -5 73.5 -15s37.834 -21.167 54.501 -33.5s33.167 -23.5 49.5 -33.5s35.5 -15 57.5 -15c14.667 0 28.334 3 41.001 9
s24 14.167 34 24.5s18 22.5 24 36.5s10 29 12 45h96z" />
    <glyph glyph-name="odieresis" unicode="&#xf6;" horiz-adv-x="1096" 
d="M1018 645c0 -90.667 -12.832 -176.666 -38.499 -257.999s-62.667 -152.5 -111 -213.5s-107 -109.333 -176 -145s-146.833 -53.5 -233.5 -53.5c-58.667 0 -111.5 9.33301 -158.5 28s-87 45.5 -120 80.5s-58.333 77.333 -76 127s-26.5 105.834 -26.5 168.501
c0 94 13.5 181.833 40.5 263.5s65 152.667 114 213s107.667 107.666 176 141.999s143.833 51.5 226.5 51.5c58 0 110.5 -9.33301 157.5 -28s87.167 -45.5 120.5 -80.5s59.166 -77.333 77.499 -127s27.5 -105.834 27.5 -168.501zM850.001 637.001
c0 43.333 -5.33301 81.834 -16 115.501s-25.667 62 -45 85s-42.666 40.667 -69.999 53s-58 18.5 -92 18.5c-58.667 0 -111.667 -15 -159 -45s-87.333 -69.5 -120 -118.5s-57.834 -104.667 -75.501 -167s-26.5 -126.166 -26.5 -191.499
c0 -41.333 5.16699 -78.833 15.5 -112.5s25 -62.334 44 -86.001s42.333 -41.834 70 -54.501s58.834 -19 93.501 -19c59.333 0 112.666 14.833 159.999 44.5s87.333 69 120 118s57.667 104.833 75 167.5s26 126.667 26 192zM971.001 1317
c0 -28 -9.66992 -51.333 -29.0029 -70s-42.666 -28 -69.999 -28c-26.667 0 -49.667 9.16699 -69 27.5s-29 41.833 -29 70.5c0 14 2.66699 27 8 39s12.333 22.333 21 31s18.834 15.5 30.501 20.5s23.834 7.5 36.501 7.5c14 0 27.167 -2.5 39.5 -7.5s23 -12 32 -21
s16.167 -19.333 21.5 -31s8 -24.5 8 -38.5zM585.998 1317c0 -14 -2.66699 -26.833 -8 -38.5s-12.5 -22 -21.5 -31s-19.667 -16 -32 -21s-25.5 -7.5 -39.5 -7.5c-12.667 0 -25 2.5 -37 7.5s-22.5 11.833 -31.5 20.5s-16.167 19 -21.5 31s-8 25 -8 39s2.66699 27 8 39
s12.5 22.333 21.5 31s19.5 15.5 31.5 20.5s24.333 7.5 37 7.5c14 0 27.167 -2.5 39.5 -7.5s23 -12 32 -21s16.167 -19.333 21.5 -31s8 -24.5 8 -38.5z" />
    <glyph glyph-name="divide" unicode="&#xf7;" horiz-adv-x="1403" 
d="M836 975c0 -31.333 -10.167 -56.999 -30.5 -76.999s-44.166 -30 -71.499 -30c-30 0 -55 10.167 -75 30.5s-30 45.166 -30 74.499c0 30 9.66699 55.5 29 76.5s44.666 31.5 75.999 31.5c68 0 102 -35.333 102 -106zM1196 530.001h-940v134h940v-134zM830 217.001
c0 -31.333 -9.83301 -56.502 -29.5 -75.502s-43.167 -28.5 -70.5 -28.5c-30 0 -55.333 9.83301 -76 29.5s-31 43.834 -31 72.501c0 30.667 10 56.834 30 78.501s45.667 32.5 77 32.5c66.667 0 100 -36.333 100 -109z" />
    <glyph glyph-name="oslash" unicode="&#xf8;" horiz-adv-x="1096" 
d="M979 838c12.667 -26 22.333 -55.332 29 -87.999s10 -67.667 10 -105c0 -94.667 -13.5 -182.834 -40.5 -264.501s-65 -152.5 -114 -212.5s-107.833 -107.167 -176.5 -141.5s-144.667 -51.5 -228 -51.5c-60 0 -113.833 9.83301 -161.5 29.5s-88.167 48.167 -121.5 85.5
l-156 -145l-75 82l170 157c-11.333 29.333 -20.333 59.833 -27 91.5s-10 66.167 -10 103.5c0 93.333 13.5 180.666 40.5 261.999s65 152.333 114 213s107.833 108.334 176.5 143.001s144.667 52 228 52c60.667 0 114.167 -10 160.5 -30s86.5 -47.667 120.5 -83l180 168
l78 -82zM798.999 823.001c-19.333 29.333 -43.666 50.999 -72.999 64.999s-62.333 21 -99 21c-58.667 0 -111.667 -15 -159 -45s-87.333 -69.5 -120 -118.5s-57.834 -105 -75.501 -168s-26.5 -127.833 -26.5 -194.5c0 -25.333 2 -48.666 6 -69.999zM849.999 643
c0 26 -1.99805 49.332 -5.99805 69.999l-549 -512c17.333 -25.333 41.166 -46 71.499 -62s64.5 -24 102.5 -24c59.333 0 112.666 15 159.999 45s87.333 69.5 120 118.5s57.667 105.333 75 169s26 128.834 26 195.501z" />
    <glyph glyph-name="ugrave" unicode="&#xf9;" horiz-adv-x="1143" 
d="M930 291c-6 -26 -11.499 -53.0029 -16.499 -81.0029l-14.5 -81c-4.66699 -26 -8.66699 -50.333 -12 -73l-8 -56h-160c3.33301 26 7.16602 53.167 11.499 81.5l12.5 78.5c4.66699 28 9 55.333 13 82h-4c-23.333 -36.667 -49.166 -71.167 -77.499 -103.5
s-59 -60.666 -92 -84.999s-68 -43.5 -105 -57.5s-75.5 -21 -115.5 -21c-44 0 -82.5 6.83301 -115.5 20.5s-60.5 32.834 -82.5 57.501s-38.5 54.334 -49.5 89.001s-16.5 73.334 -16.5 116.001c0 8.66699 1.33301 21.667 4 39l9 56c3.33301 20 7.16602 39.833 11.499 59.5
s7.83301 36.5 10.5 50.5l119 561h166l-127 -600c-2.66699 -10.667 -5.33398 -23 -8.00098 -37s-5.16699 -28 -7.5 -42s-4.16602 -26.833 -5.49902 -38.5s-2 -20.834 -2 -27.501c0 -50 12.167 -89.833 36.5 -119.5s60.833 -44.5 109.5 -44.5c29.333 0 58.666 6 87.999 18
s57.833 28.167 85.5 48.5s53.834 44 78.501 71s47 55.667 67 86s37 61.5 51 93.5s24.333 62.667 31 92l107 500h165zM743.001 1219l-239 327h153l207 -327h-121z" />
    <glyph glyph-name="uacute" unicode="&#xfa;" horiz-adv-x="1143" 
d="M930 291c-6 -26 -11.499 -53.0029 -16.499 -81.0029l-14.5 -81c-4.66699 -26 -8.66699 -50.333 -12 -73l-8 -56h-160c3.33301 26 7.16602 53.167 11.499 81.5l12.5 78.5c4.66699 28 9 55.333 13 82h-4c-23.333 -36.667 -49.166 -71.167 -77.499 -103.5
s-59 -60.666 -92 -84.999s-68 -43.5 -105 -57.5s-75.5 -21 -115.5 -21c-44 0 -82.5 6.83301 -115.5 20.5s-60.5 32.834 -82.5 57.501s-38.5 54.334 -49.5 89.001s-16.5 73.334 -16.5 116.001c0 8.66699 1.33301 21.667 4 39l9 56c3.33301 20 7.16602 39.833 11.499 59.5
s7.83301 36.5 10.5 50.5l119 561h166l-127 -600c-2.66699 -10.667 -5.33398 -23 -8.00098 -37s-5.16699 -28 -7.5 -42s-4.16602 -26.833 -5.49902 -38.5s-2 -20.834 -2 -27.501c0 -50 12.167 -89.833 36.5 -119.5s60.833 -44.5 109.5 -44.5c29.333 0 58.666 6 87.999 18
s57.833 28.167 85.5 48.5s53.834 44 78.501 71s47 55.667 67 86s37 61.5 51 93.5s24.333 62.667 31 92l107 500h165zM678.001 1219h-123l289 327h161z" />
    <glyph glyph-name="ucircumflex" unicode="&#xfb;" horiz-adv-x="1143" 
d="M930 291c-6 -26 -11.499 -53.0029 -16.499 -81.0029l-14.5 -81c-4.66699 -26 -8.66699 -50.333 -12 -73l-8 -56h-160c3.33301 26 7.16602 53.167 11.499 81.5l12.5 78.5c4.66699 28 9 55.333 13 82h-4c-23.333 -36.667 -49.166 -71.167 -77.499 -103.5
s-59 -60.666 -92 -84.999s-68 -43.5 -105 -57.5s-75.5 -21 -115.5 -21c-44 0 -82.5 6.83301 -115.5 20.5s-60.5 32.834 -82.5 57.501s-38.5 54.334 -49.5 89.001s-16.5 73.334 -16.5 116.001c0 8.66699 1.33301 21.667 4 39l9 56c3.33301 20 7.16602 39.833 11.499 59.5
s7.83301 36.5 10.5 50.5l119 561h166l-127 -600c-2.66699 -10.667 -5.33398 -23 -8.00098 -37s-5.16699 -28 -7.5 -42s-4.16602 -26.833 -5.49902 -38.5s-2 -20.834 -2 -27.501c0 -50 12.167 -89.833 36.5 -119.5s60.833 -44.5 109.5 -44.5c29.333 0 58.666 6 87.999 18
s57.833 28.167 85.5 48.5s53.834 44 78.501 71s47 55.667 67 86s37 61.5 51 93.5s24.333 62.667 31 92l107 500h165zM852.001 1219l-114 231l-213 -231h-121l283 331h133l145 -331h-113z" />
    <glyph glyph-name="udieresis" unicode="&#xfc;" horiz-adv-x="1143" 
d="M930 291c-6 -26 -11.499 -53.0029 -16.499 -81.0029l-14.5 -81c-4.66699 -26 -8.66699 -50.333 -12 -73l-8 -56h-160c3.33301 26 7.16602 53.167 11.499 81.5l12.5 78.5c4.66699 28 9 55.333 13 82h-4c-23.333 -36.667 -49.166 -71.167 -77.499 -103.5
s-59 -60.666 -92 -84.999s-68 -43.5 -105 -57.5s-75.5 -21 -115.5 -21c-44 0 -82.5 6.83301 -115.5 20.5s-60.5 32.834 -82.5 57.501s-38.5 54.334 -49.5 89.001s-16.5 73.334 -16.5 116.001c0 8.66699 1.33301 21.667 4 39l9 56c3.33301 20 7.16602 39.833 11.499 59.5
s7.83301 36.5 10.5 50.5l119 561h166l-127 -600c-2.66699 -10.667 -5.33398 -23 -8.00098 -37s-5.16699 -28 -7.5 -42s-4.16602 -26.833 -5.49902 -38.5s-2 -20.834 -2 -27.501c0 -50 12.167 -89.833 36.5 -119.5s60.833 -44.5 109.5 -44.5c29.333 0 58.666 6 87.999 18
s57.833 28.167 85.5 48.5s53.834 44 78.501 71s47 55.667 67 86s37 61.5 51 93.5s24.333 62.667 31 92l107 500h165zM1000 1317c0 -28 -9.66992 -51.333 -29.0029 -70s-42.666 -28 -69.999 -28c-26.667 0 -49.667 9.16699 -69 27.5s-29 41.833 -29 70.5
c0 14 2.66699 27 8 39s12.333 22.333 21 31s18.834 15.5 30.501 20.5s23.834 7.5 36.501 7.5c14 0 27.167 -2.5 39.5 -7.5s23 -12 32 -21s16.167 -19.333 21.5 -31s8 -24.5 8 -38.5zM614.998 1317c0 -14 -2.66699 -26.833 -8 -38.5s-12.5 -22 -21.5 -31s-19.667 -16 -32 -21
s-25.5 -7.5 -39.5 -7.5c-12.667 0 -25 2.5 -37 7.5s-22.5 11.833 -31.5 20.5s-16.167 19 -21.5 31s-8 25 -8 39s2.66699 27 8 39s12.5 22.333 21.5 31s19.5 15.5 31.5 20.5s24.333 7.5 37 7.5c14 0 27.167 -2.5 39.5 -7.5s23 -12 32 -21s16.167 -19.333 21.5 -31
s8 -24.5 8 -38.5z" />
    <glyph glyph-name="yacute" unicode="&#xfd;" horiz-adv-x="991" 
d="M367 -170c-30.667 -50 -61.668 -94.166 -93.001 -132.499s-64.166 -70.833 -98.499 -97.5s-71 -46.834 -110 -60.501s-81.833 -20.5 -128.5 -20.5c-15.333 0 -32.5 1.5 -51.5 4.5s-34.167 6.16699 -45.5 9.5l31 145c10 -5.33301 23 -9.66602 39 -12.999s31.667 -5 47 -5
c46 0 87.5 12.667 124.5 38s71.833 64 104.5 116l123 190l-186 1020h170l119 -786c2 -14.667 3.16699 -28.834 3.5 -42.501s-0.166992 -25.5 -1.5 -35.5h6c3.33301 8 8.5 19.333 15.5 34s14.833 28.667 23.5 42l454 788h181zM608.999 1219h-123l289 327h161z" />
    <glyph glyph-name="thorn" unicode="&#xfe;" horiz-adv-x="1110" 
d="M1032 666c0 -49.333 -5.33203 -100.501 -15.999 -153.501s-27 -105.167 -49 -156.5s-49.5 -100 -82.5 -146s-71.833 -86.5 -116.5 -121.5s-95.334 -62.667 -152.001 -83s-119.334 -30.5 -188.001 -30.5c-39.333 0 -78.166 3.66699 -116.499 11s-71.833 16 -100.5 26
l-102 -487h-166l422 1991h163l-106 -502c-8 -37.333 -16.167 -73.166 -24.5 -107.499s-17.166 -66.833 -26.499 -97.5h4c96 160 214 240 354 240c46.667 0 88.667 -8 126 -24s69.166 -40 95.499 -72s46.5 -72 60.5 -120s21 -103.667 21 -167zM864.001 658.999
c0 36 -3.16602 69.332 -9.49902 99.999s-16.833 57 -31.5 79s-33.5 39.333 -56.5 52s-51.167 19 -84.5 19c-34.667 0 -67.167 -7.16699 -97.5 -21.5s-58.5 -33.5 -84.5 -57.5s-49.667 -51.833 -71 -83.5s-40.333 -64.5 -57 -98.5s-30.834 -68.167 -42.501 -102.5
s-20.5 -66.5 -26.5 -96.5l-63 -297c12 -5.33301 26.333 -10.166 43 -14.499s34 -8.16602 52 -11.499s36.333 -6 55 -8s36 -3 52 -3c46 0 88.5 7.66699 127.5 23s74 36.166 105 62.499s58.333 57.333 82 93s43.5 73.667 59.5 114s28 82 36 125s12 85.167 12 126.5z" />
    <glyph glyph-name="ydieresis" unicode="&#xff;" horiz-adv-x="991" 
d="M367 -170c-30.667 -50 -61.668 -94.166 -93.001 -132.499s-64.166 -70.833 -98.499 -97.5s-71 -46.834 -110 -60.501s-81.833 -20.5 -128.5 -20.5c-15.333 0 -32.5 1.5 -51.5 4.5s-34.167 6.16699 -45.5 9.5l31 145c10 -5.33301 23 -9.66602 39 -12.999s31.667 -5 47 -5
c46 0 87.5 12.667 124.5 38s71.833 64 104.5 116l123 190l-186 1020h170l119 -786c2 -14.667 3.16699 -28.834 3.5 -42.501s-0.166992 -25.5 -1.5 -35.5h6c3.33301 8 8.5 19.333 15.5 34s14.833 28.667 23.5 42l454 788h181zM911.999 1317
c0 -28 -9.66992 -51.333 -29.0029 -70s-42.666 -28 -69.999 -28c-26.667 0 -49.667 9.16699 -69 27.5s-29 41.833 -29 70.5c0 14 2.66699 27 8 39s12.333 22.333 21 31s18.834 15.5 30.501 20.5s23.834 7.5 36.501 7.5c14 0 27.167 -2.5 39.5 -7.5s23 -12 32 -21
s16.167 -19.333 21.5 -31s8 -24.5 8 -38.5zM526.996 1317c0 -14 -2.66699 -26.833 -8 -38.5s-12.5 -22 -21.5 -31s-19.667 -16 -32 -21s-25.5 -7.5 -39.5 -7.5c-12.667 0 -25 2.5 -37 7.5s-22.5 11.833 -31.5 20.5s-16.167 19 -21.5 31s-8 25 -8 39s2.66699 27 8 39
s12.5 22.333 21.5 31s19.5 15.5 31.5 20.5s24.333 7.5 37 7.5c14 0 27.167 -2.5 39.5 -7.5s23 -12 32 -21s16.167 -19.333 21.5 -31s8 -24.5 8 -38.5z" />
    <glyph glyph-name="Amacron" unicode="&#x100;" horiz-adv-x="1294" 
d="M999 0l-65 401h-608l-232 -401h-198l854 1434h176l250 -1434h-177zM815 1163c-0.666992 6.66699 -1.16699 14.332 -1.5 22.999s-0.5 17.334 -0.5 26.001v26v22h-4c-2 -6 -4.66699 -13.167 -8 -21.5s-7 -17 -11 -26s-8.16699 -17.833 -12.5 -26.5l-11.5 -23l-354 -610h495
zM583 1567l16 108h508l-16 -108h-508z" />
    <glyph glyph-name="amacron" unicode="&#x101;" horiz-adv-x="1110" 
d="M905 328c-5.33301 -25.333 -10.499 -53.832 -15.499 -85.499s-9.33301 -63 -13 -94s-6.66699 -59.833 -9 -86.5s-3.5 -47.334 -3.5 -62.001h-170c0.666992 13.333 1.66699 29.333 3 48s3.16602 38 5.49902 58l7 59c2.33301 19.333 4.83301 36 7.5 50h-4
c-20.667 -32.667 -41.667 -63.5 -63 -92.5s-45 -54.5 -71 -76.5s-55 -39.333 -87 -52s-69.667 -19 -113 -19c-44.667 0 -85.5 8 -122.5 24s-68.833 39.833 -95.5 71.5s-47.167 71.334 -61.5 119.001s-21.5 103.167 -21.5 166.5c0 38.667 4 82.667 12 132
s21.5 99.666 40.5 150.999s44.333 101.5 76 150.5s71 92.833 118 131.5s102.5 69.667 166.5 93s138 35 222 35c53.333 0 108.333 -4 165 -12s113 -17.667 169 -29zM858.001 889.001c-23.333 5.33301 -50.6699 9.99902 -82.0029 13.999s-60.666 6 -87.999 6
c-58 0 -109.167 -9.16699 -153.5 -27.5s-82.833 -42.333 -115.5 -72s-60.167 -63.834 -82.5 -102.501s-40.166 -78.167 -53.499 -118.5s-22.833 -80.166 -28.5 -119.499s-8.5 -75 -8.5 -107c0 -38 3.33301 -72.167 10 -102.5s17.167 -56.166 31.5 -77.499
s32.666 -37.833 54.999 -49.5s48.833 -17.5 79.5 -17.5c33.333 0 64.5 6.83301 93.5 20.5s56.167 32.167 81.5 55.5s48.333 50.333 69 81s39.334 63.167 56.001 97.5s30.834 69.333 42.501 105s21.167 70.167 28.5 103.5zM462.997 1219l16 108h508l-16 -108h-508z" />
    <glyph glyph-name="Abreve" unicode="&#x102;" horiz-adv-x="1294" 
d="M999 0l-65 401h-608l-232 -401h-198l854 1434h176l250 -1434h-177zM815 1163c-0.666992 6.66699 -1.16699 14.332 -1.5 22.999s-0.5 17.334 -0.5 26.001v26v22h-4c-2 -6 -4.66699 -13.167 -8 -21.5s-7 -17 -11 -26s-8.16699 -17.833 -12.5 -26.5l-11.5 -23l-354 -610h495
zM1165 1822c-12 -40 -28.167 -75.665 -48.5 -106.998s-44.333 -58 -72 -80s-58.167 -38.667 -91.5 -50s-69 -17 -107 -17c-36.667 0 -70.167 5.33301 -100.5 16s-56 25.5 -77 44.5s-37.333 41.667 -49 68s-17.5 55.166 -17.5 86.499c0 8 0.5 14.667 1.5 20
s2.5 11.666 4.5 18.999h105c-1.33301 -4.66699 -2 -9 -2 -13v-14c0 -40 12.833 -71.167 38.5 -93.5s59.167 -33.5 100.5 -33.5c51.333 0 94 12.5 128 37.5s59.667 63.833 77 116.5h110z" />
    <glyph glyph-name="abreve" unicode="&#x103;" horiz-adv-x="1110" 
d="M905 328c-5.33301 -25.333 -10.499 -53.832 -15.499 -85.499s-9.33301 -63 -13 -94s-6.66699 -59.833 -9 -86.5s-3.5 -47.334 -3.5 -62.001h-170c0.666992 13.333 1.66699 29.333 3 48s3.16602 38 5.49902 58l7 59c2.33301 19.333 4.83301 36 7.5 50h-4
c-20.667 -32.667 -41.667 -63.5 -63 -92.5s-45 -54.5 -71 -76.5s-55 -39.333 -87 -52s-69.667 -19 -113 -19c-44.667 0 -85.5 8 -122.5 24s-68.833 39.833 -95.5 71.5s-47.167 71.334 -61.5 119.001s-21.5 103.167 -21.5 166.5c0 38.667 4 82.667 12 132
s21.5 99.666 40.5 150.999s44.333 101.5 76 150.5s71 92.833 118 131.5s102.5 69.667 166.5 93s138 35 222 35c53.333 0 108.333 -4 165 -12s113 -17.667 169 -29zM858.001 889.001c-23.333 5.33301 -50.6699 9.99902 -82.0029 13.999s-60.666 6 -87.999 6
c-58 0 -109.167 -9.16699 -153.5 -27.5s-82.833 -42.333 -115.5 -72s-60.167 -63.834 -82.5 -102.501s-40.166 -78.167 -53.499 -118.5s-22.833 -80.166 -28.5 -119.499s-8.5 -75 -8.5 -107c0 -38 3.33301 -72.167 10 -102.5s17.167 -56.166 31.5 -77.499
s32.666 -37.833 54.999 -49.5s48.833 -17.5 79.5 -17.5c33.333 0 64.5 6.83301 93.5 20.5s56.167 32.167 81.5 55.5s48.333 50.333 69 81s39.334 63.167 56.001 97.5s30.834 69.333 42.501 105s21.167 70.167 28.5 103.5zM1030 1473c-12 -40 -28.167 -75.665 -48.5 -106.998
s-44.333 -58 -72 -80s-58.167 -38.667 -91.5 -50s-69 -17 -107 -17c-36.667 0 -70.167 5.33301 -100.5 16s-56 25.5 -77 44.5s-37.333 41.667 -49 68s-17.5 55.166 -17.5 86.499c0 8 0.5 14.667 1.5 20s2.5 11.666 4.5 18.999h105c-1.33301 -4.66699 -2 -9 -2 -13v-14
c0 -40 12.833 -71.167 38.5 -93.5s59.167 -33.5 100.5 -33.5c51.333 0 94 12.5 128 37.5s59.667 63.833 77 116.5h110z" />
    <glyph glyph-name="Aogonek" unicode="&#x104;" horiz-adv-x="1294" 
d="M1102 0c-34.667 -31.333 -63.998 -59.002 -87.998 -83.002s-43.333 -45.833 -58 -65.5s-25.334 -37.667 -32.001 -54s-10 -32.166 -10 -47.499c0 -53.333 26.667 -80 80 -80c15.333 0 31.5 2.83301 48.5 8.5s30.833 11.167 41.5 16.5l-15 -103
c-12 -6 -27.333 -11.167 -46 -15.5s-39.334 -6.5 -62.001 -6.5c-54.667 0 -95.334 13.833 -122.001 41.5s-40 65.834 -40 114.501c0 18 3.33301 36.833 10 56.5s17.667 40.667 33 63s35.833 46.333 61.5 72s57.834 53.167 96.501 82.5h-1l-65 401h-608l-232 -401h-198
l854 1434h176l250 -1434h-74zM815.002 1163c-0.666992 6.66699 -1.16699 14.332 -1.5 22.999s-0.5 17.334 -0.5 26.001v48h-4c-2 -6 -4.66699 -13.167 -8 -21.5s-7 -17 -11 -26s-8.33301 -17.833 -13 -26.5l-11 -23l-354 -610h495z" />
    <glyph glyph-name="aogonek" unicode="&#x105;" horiz-adv-x="1110" 
d="M796 0c-34.667 -31.333 -63.9971 -59.001 -87.9971 -83.001s-43.333 -45.833 -58 -65.5s-25.334 -37.667 -32.001 -54s-10 -32.166 -10 -47.499c0 -53.333 26.667 -80 80 -80c15.333 0 31.5 2.83301 48.5 8.5s30.833 11.167 41.5 16.5l-15 -103
c-12 -6 -27.333 -11.167 -46 -15.5s-39.334 -6.5 -62.001 -6.5c-54.667 0 -95.334 13.833 -122.001 41.5s-40 65.834 -40 114.501c0 18 3.33301 36.833 10 56.5s17.667 40.667 33 63s35.833 46.333 61.5 72s57.834 53.167 96.501 82.5c0.666992 13.333 1.66699 29.333 3 48
s3.16602 38 5.49902 58l7 59c2.33301 19.333 4.83301 36 7.5 50h-4c-20.667 -32.667 -41.667 -63.5 -63 -92.5s-45 -54.5 -71 -76.5s-55 -39.333 -87 -52s-69.667 -19 -113 -19c-44.667 0 -85.5 8 -122.5 24s-68.833 39.833 -95.5 71.5s-47.167 71.334 -61.5 119.001
s-21.5 103.167 -21.5 166.5c0 38.667 4 82.667 12 132s21.5 99.666 40.5 150.999s44.333 101.5 76 150.5s71 92.833 118 131.5s102.5 69.667 166.5 93s138 35 222 35c53.333 0 108.333 -4 165 -12s113 -17.667 169 -29l-142 -680
c-5.33301 -25.333 -10.5 -53.833 -15.5 -85.5s-9.33301 -63 -13 -94s-6.66699 -59.833 -9 -86.5s-3.5 -47.334 -3.5 -62.001h-68zM858.003 888.999c-23.333 5.33301 -50.6699 9.99902 -82.0029 13.999s-60.666 6 -87.999 6c-58 0 -109.167 -9.16699 -153.5 -27.5
s-82.833 -42.333 -115.5 -72s-60.167 -63.834 -82.5 -102.501s-40.166 -78.167 -53.499 -118.5s-22.833 -80.166 -28.5 -119.499s-8.5 -75 -8.5 -107c0 -38 3.33301 -72.167 10 -102.5s17.167 -56.166 31.5 -77.499s32.666 -37.833 54.999 -49.5s48.833 -17.5 79.5 -17.5
c33.333 0 64.5 6.83301 93.5 20.5s56.167 32.167 81.5 55.5s48.333 50.333 69 81s39.334 63.167 56.001 97.5s30.834 69.333 42.501 105s21.167 70.167 28.5 103.5z" />
    <glyph glyph-name="Cacute" unicode="&#x106;" horiz-adv-x="1309" 
d="M1325 1196c-19.333 12.667 -41.501 25.665 -66.501 38.998s-52.5 25.333 -82.5 36s-62.833 19.334 -98.5 26.001s-73.834 10 -114.501 10c-100 0 -190.167 -17.667 -270.5 -53s-148.5 -84 -204.5 -146s-99.167 -134.833 -129.5 -218.5s-45.5 -174.167 -45.5 -271.5
c0 -79.333 11 -149.5 33 -210.5s53.333 -112.333 94 -154s89.334 -73.167 146.001 -94.5s119.334 -32 188.001 -32c44 0 84 2.5 120 7.5s69.333 12 100 21s59.5 19.667 86.5 32s53.167 25.5 78.5 39.5l-39 -176c-54 -24.667 -111.833 -43.5 -173.5 -56.5
s-130.834 -19.5 -207.501 -19.5c-90.667 0 -173.167 15 -247.5 45s-137.666 72.5 -189.999 127.5s-92.833 121.167 -121.5 198.5s-43 163.333 -43 258c0 125.333 19.833 240.333 59.5 345s96 194.667 169 270s160.667 134 263 176s215.833 63 340.5 63
c85.333 0 160.833 -9.16699 226.5 -27.5s121.167 -39.166 166.5 -62.499zM923.999 1567h-123l289 327h161z" />
    <glyph glyph-name="cacute" unicode="&#x107;" horiz-adv-x="893" 
d="M864 821c-28 24.667 -61.832 45.5039 -101.499 62.5039s-83.5 25.5 -131.5 25.5c-46 0 -87.5 -8 -124.5 -24s-69.833 -37.333 -98.5 -64s-53.334 -57.334 -74.001 -92.001s-37.667 -70.667 -51 -108s-23.166 -74.5 -29.499 -111.5s-9.5 -71.5 -9.5 -103.5
c0 -95.333 21 -167.666 63 -216.999s99.333 -74 172 -74c44 0 89.667 9.16699 137 27.5s92 41.833 134 70.5l-35 -164c-43.333 -23.333 -86.5 -41.5 -129.5 -54.5s-88.5 -19.5 -136.5 -19.5c-62.667 0 -117.167 10.667 -163.5 32s-84.833 50.666 -115.5 87.999
s-53.667 81.5 -69 132.5s-23 106.167 -23 165.5c0 56 5.66699 111.167 17 165.5s28.166 105.666 50.499 153.999s49.833 93.166 82.5 134.499s70.167 76.833 112.5 106.5s89.5 53 141.5 70s108.333 25.5 169 25.5c28.667 0 56 -2 82 -6s49.667 -9.33301 71 -16
s40.333 -13.834 57 -21.501s30 -15.167 40 -22.5zM694.001 1219h-123l289 327h161z" />
    <glyph glyph-name="Ccircumflex" unicode="&#x108;" horiz-adv-x="1309" 
d="M1325 1196c-19.333 12.667 -41.501 25.665 -66.501 38.998s-52.5 25.333 -82.5 36s-62.833 19.334 -98.5 26.001s-73.834 10 -114.501 10c-100 0 -190.167 -17.667 -270.5 -53s-148.5 -84 -204.5 -146s-99.167 -134.833 -129.5 -218.5s-45.5 -174.167 -45.5 -271.5
c0 -79.333 11 -149.5 33 -210.5s53.333 -112.333 94 -154s89.334 -73.167 146.001 -94.5s119.334 -32 188.001 -32c44 0 84 2.5 120 7.5s69.333 12 100 21s59.5 19.667 86.5 32s53.167 25.5 78.5 39.5l-39 -176c-54 -24.667 -111.833 -43.5 -173.5 -56.5
s-130.834 -19.5 -207.501 -19.5c-90.667 0 -173.167 15 -247.5 45s-137.666 72.5 -189.999 127.5s-92.833 121.167 -121.5 198.5s-43 163.333 -43 258c0 125.333 19.833 240.333 59.5 345s96 194.667 169 270s160.667 134 263 176s215.833 63 340.5 63
c85.333 0 160.833 -9.16699 226.5 -27.5s121.167 -39.166 166.5 -62.499zM1113 1568l-114 231l-213 -231h-121l283 331h133l145 -331h-113z" />
    <glyph glyph-name="ccircumflex" unicode="&#x109;" horiz-adv-x="893" 
d="M864 821c-28 24.667 -61.832 45.5039 -101.499 62.5039s-83.5 25.5 -131.5 25.5c-46 0 -87.5 -8 -124.5 -24s-69.833 -37.333 -98.5 -64s-53.334 -57.334 -74.001 -92.001s-37.667 -70.667 -51 -108s-23.166 -74.5 -29.499 -111.5s-9.5 -71.5 -9.5 -103.5
c0 -95.333 21 -167.666 63 -216.999s99.333 -74 172 -74c44 0 89.667 9.16699 137 27.5s92 41.833 134 70.5l-35 -164c-43.333 -23.333 -86.5 -41.5 -129.5 -54.5s-88.5 -19.5 -136.5 -19.5c-62.667 0 -117.167 10.667 -163.5 32s-84.833 50.666 -115.5 87.999
s-53.667 81.5 -69 132.5s-23 106.167 -23 165.5c0 56 5.66699 111.167 17 165.5s28.166 105.666 50.499 153.999s49.833 93.166 82.5 134.499s70.167 76.833 112.5 106.5s89.5 53 141.5 70s108.333 25.5 169 25.5c28.667 0 56 -2 82 -6s49.667 -9.33301 71 -16
s40.333 -13.834 57 -21.501s30 -15.167 40 -22.5zM833.001 1219l-114 231l-213 -231h-121l283 331h133l145 -331h-113z" />
    <glyph glyph-name="Cdotaccent" unicode="&#x10a;" horiz-adv-x="1309" 
d="M1325 1196c-19.333 12.667 -41.501 25.665 -66.501 38.998s-52.5 25.333 -82.5 36s-62.833 19.334 -98.5 26.001s-73.834 10 -114.501 10c-100 0 -190.167 -17.667 -270.5 -53s-148.5 -84 -204.5 -146s-99.167 -134.833 -129.5 -218.5s-45.5 -174.167 -45.5 -271.5
c0 -79.333 11 -149.5 33 -210.5s53.333 -112.333 94 -154s89.334 -73.167 146.001 -94.5s119.334 -32 188.001 -32c44 0 84 2.5 120 7.5s69.333 12 100 21s59.5 19.667 86.5 32s53.167 25.5 78.5 39.5l-39 -176c-54 -24.667 -111.833 -43.5 -173.5 -56.5
s-130.834 -19.5 -207.501 -19.5c-90.667 0 -173.167 15 -247.5 45s-137.666 72.5 -189.999 127.5s-92.833 121.167 -121.5 198.5s-43 163.333 -43 258c0 125.333 19.833 240.333 59.5 345s96 194.667 169 270s160.667 134 263 176s215.833 63 340.5 63
c85.333 0 160.833 -9.16699 226.5 -27.5s121.167 -39.166 166.5 -62.499zM1094 1667c0 -28 -9.33301 -51.667 -28 -71s-42 -29 -70 -29c-12.667 0 -24.834 2.5 -36.501 7.5s-21.834 12 -30.501 21s-15.667 19.667 -21 32s-8 25.5 -8 39.5s2.66699 26.833 8 38.5
s12.333 21.667 21 30s18.834 15 30.501 20s23.834 7.5 36.501 7.5c13.333 0 25.833 -2.5 37.5 -7.5s22 -11.667 31 -20s16.167 -18.333 21.5 -30s8 -24.5 8 -38.5z" />
    <glyph glyph-name="cdotaccent" unicode="&#x10b;" horiz-adv-x="893" 
d="M864 821c-28 24.667 -61.832 45.5039 -101.499 62.5039s-83.5 25.5 -131.5 25.5c-46 0 -87.5 -8 -124.5 -24s-69.833 -37.333 -98.5 -64s-53.334 -57.334 -74.001 -92.001s-37.667 -70.667 -51 -108s-23.166 -74.5 -29.499 -111.5s-9.5 -71.5 -9.5 -103.5
c0 -95.333 21 -167.666 63 -216.999s99.333 -74 172 -74c44 0 89.667 9.16699 137 27.5s92 41.833 134 70.5l-35 -164c-43.333 -23.333 -86.5 -41.5 -129.5 -54.5s-88.5 -19.5 -136.5 -19.5c-62.667 0 -117.167 10.667 -163.5 32s-84.833 50.666 -115.5 87.999
s-53.667 81.5 -69 132.5s-23 106.167 -23 165.5c0 56 5.66699 111.167 17 165.5s28.166 105.666 50.499 153.999s49.833 93.166 82.5 134.499s70.167 76.833 112.5 106.5s89.5 53 141.5 70s108.333 25.5 169 25.5c28.667 0 56 -2 82 -6s49.667 -9.33301 71 -16
s40.333 -13.834 57 -21.501s30 -15.167 40 -22.5zM807.001 1319c0 -28 -9.33301 -51.667 -28 -71s-42 -29 -70 -29c-12.667 0 -24.834 2.5 -36.501 7.5s-21.834 12 -30.501 21s-15.667 19.667 -21 32s-8 25.5 -8 39.5s2.66699 26.833 8 38.5s12.333 21.667 21 30
s18.834 15 30.501 20s23.834 7.5 36.501 7.5c13.333 0 25.833 -2.5 37.5 -7.5s22 -11.667 31 -20s16.167 -18.333 21.5 -30s8 -24.5 8 -38.5z" />
    <glyph glyph-name="Ccaron" unicode="&#x10c;" horiz-adv-x="1309" 
d="M1325 1196c-19.333 12.667 -41.501 25.665 -66.501 38.998s-52.5 25.333 -82.5 36s-62.833 19.334 -98.5 26.001s-73.834 10 -114.501 10c-100 0 -190.167 -17.667 -270.5 -53s-148.5 -84 -204.5 -146s-99.167 -134.833 -129.5 -218.5s-45.5 -174.167 -45.5 -271.5
c0 -79.333 11 -149.5 33 -210.5s53.333 -112.333 94 -154s89.334 -73.167 146.001 -94.5s119.334 -32 188.001 -32c44 0 84 2.5 120 7.5s69.333 12 100 21s59.5 19.667 86.5 32s53.167 25.5 78.5 39.5l-39 -176c-54 -24.667 -111.833 -43.5 -173.5 -56.5
s-130.834 -19.5 -207.501 -19.5c-90.667 0 -173.167 15 -247.5 45s-137.666 72.5 -189.999 127.5s-92.833 121.167 -121.5 198.5s-43 163.333 -43 258c0 125.333 19.833 240.333 59.5 345s96 194.667 169 270s160.667 134 263 176s215.833 63 340.5 63
c85.333 0 160.833 -9.16699 226.5 -27.5s121.167 -39.166 166.5 -62.499zM990.999 1567h-135l-145 331h112l115 -231l215 231h119z" />
    <glyph glyph-name="ccaron" unicode="&#x10d;" horiz-adv-x="893" 
d="M864 821c-28 24.667 -61.832 45.5039 -101.499 62.5039s-83.5 25.5 -131.5 25.5c-46 0 -87.5 -8 -124.5 -24s-69.833 -37.333 -98.5 -64s-53.334 -57.334 -74.001 -92.001s-37.667 -70.667 -51 -108s-23.166 -74.5 -29.499 -111.5s-9.5 -71.5 -9.5 -103.5
c0 -95.333 21 -167.666 63 -216.999s99.333 -74 172 -74c44 0 89.667 9.16699 137 27.5s92 41.833 134 70.5l-35 -164c-43.333 -23.333 -86.5 -41.5 -129.5 -54.5s-88.5 -19.5 -136.5 -19.5c-62.667 0 -117.167 10.667 -163.5 32s-84.833 50.666 -115.5 87.999
s-53.667 81.5 -69 132.5s-23 106.167 -23 165.5c0 56 5.66699 111.167 17 165.5s28.166 105.666 50.499 153.999s49.833 93.166 82.5 134.499s70.167 76.833 112.5 106.5s89.5 53 141.5 70s108.333 25.5 169 25.5c28.667 0 56 -2 82 -6s49.667 -9.33301 71 -16
s40.333 -13.834 57 -21.501s30 -15.167 40 -22.5zM733.001 1219h-135l-145 331h112l115 -231l215 231h119z" />
    <glyph glyph-name="Dcaron" unicode="&#x10e;" horiz-adv-x="1458" 
d="M1401 854c0 -70.667 -7.16406 -140.999 -21.4971 -210.999s-36.333 -136.667 -66 -200s-67.834 -122 -114.501 -176s-102.334 -100.833 -167.001 -140.5s-138.834 -70.667 -222.501 -93s-177.5 -33.5 -281.5 -33.5h-454l305 1434h399c93.333 0 178.333 -13.167 255 -39.5
s142.167 -64.5 196.5 -114.5s96.5 -110.833 126.5 -182.5s45 -152.834 45 -243.501zM1225 842.001c0 140 -41 248.332 -123 324.999s-203.667 115 -365 115h-219l-242 -1130h267c112.667 0 211.5 18 296.5 54s156 85.333 213 148s100 135.834 129 219.501
s43.5 173.167 43.5 268.5zM857.003 1567h-135l-145 331h112l115 -231l215 231h119z" />
    <glyph glyph-name="dcaron" unicode="&#x10f;" horiz-adv-x="1221" 
d="M901 315c-4.66699 -21.333 -9.16895 -46.9951 -13.502 -76.9951s-8.16602 -60.167 -11.499 -90.5s-6.16602 -58.833 -8.49902 -85.5s-3.5 -47.334 -3.5 -62.001h-170c0 11.333 0.833008 26.5 2.5 45.5s3.66699 38.833 6 59.5s4.83301 40.5 7.5 59.5s5 34.5 7 46.5h-4
c-24 -38.667 -48 -72.834 -72 -102.501s-49.333 -54.334 -76 -74.001s-55 -34.5 -85 -44.5s-63 -15 -99 -15c-46.667 0 -88.667 8.33301 -126 25s-69.166 41.167 -95.499 73.5s-46.5 72.333 -60.5 120s-21 102.5 -21 164.5c0 49.333 5.16699 100.666 15.5 153.999
s26.333 105.666 48 156.999s49.167 100 82.5 146s73 86.333 119 121s98.667 62.167 158 82.5s125.666 30.5 198.999 30.5c37.333 0 72 -2.5 104 -7.5s59.667 -10.167 83 -15.5l104 490h162zM857.998 885.005c-25.333 7.33301 -51.833 13.1689 -79.5 17.502
s-57.167 6.5 -88.5 6.5c-58 0 -109.167 -9 -153.5 -27s-83 -42 -116 -72s-60.667 -64.167 -83 -102.5s-40.333 -77.666 -54 -117.999s-23.334 -80 -29.001 -119s-8.5 -74.167 -8.5 -105.5c0 -37.333 3.16699 -71.333 9.5 -102s16.666 -57 30.999 -79s32.833 -39 55.5 -51
s50 -18 82 -18c33.333 0 64.5 7 93.5 21s56.167 33 81.5 57s48.333 51.667 69 83s39.334 64.666 56.001 99.999s30.834 71.166 42.501 107.499s21.167 71.166 28.5 104.499zM1525 1516.01l-221 -260h-123l172 260h172z" />
    <glyph glyph-name="Dcroat" unicode="&#x110;" horiz-adv-x="1458" 
d="M1401 844c0 -72 -7.33301 -142.999 -22 -212.999s-37.167 -136.167 -67.5 -198.5s-69 -120 -116 -173s-103 -98.667 -168 -137s-139.333 -68.333 -223 -90s-177.167 -32.5 -280.5 -32.5h-450l139 649h-166l29 152h168l135 633h391c95.333 0 181.833 -13.833 259.5 -41.5
s144 -67 199 -118s97.5 -112.833 127.5 -185.5s45 -154.334 45 -245.001zM1225 831.001c0 70 -10.3301 132.999 -30.9971 188.999s-51.5 103.333 -92.5 142s-91.833 68.334 -152.5 89.001s-131.334 31 -212.001 31h-219l-104 -481h342l-31 -152h-342l-107 -497h252
c119.333 0 222.666 17.167 309.999 51.5s159.666 81.833 216.999 142.5s100 132.5 128 215.5s42 172.833 42 269.5z" />
    <glyph glyph-name="dcroat" unicode="&#x111;" horiz-adv-x="1110" 
d="M901 315c-4.66699 -21.333 -9.16895 -46.9951 -13.502 -76.9951s-8.16602 -60.167 -11.499 -90.5s-6.16602 -58.833 -8.49902 -85.5s-3.5 -47.334 -3.5 -62.001h-170c0 11.333 0.833008 26.5 2.5 45.5s3.66699 38.833 6 59.5s4.83301 40.5 7.5 59.5s5 34.5 7 46.5h-4
c-24 -38.667 -48 -72.834 -72 -102.501s-49.333 -54.334 -76 -74.001s-55 -34.5 -85 -44.5s-63 -15 -99 -15c-46.667 0 -88.667 8.33301 -126 25s-69.166 41.167 -95.499 73.5s-46.5 72.333 -60.5 120s-21 102.5 -21 164.5c0 49.333 5.16699 100.666 15.5 153.999
s26.333 105.666 48 156.999s49.167 100 82.5 146s73 86.333 119 121s98.667 62.167 158 82.5s125.666 30.5 198.999 30.5c37.333 0 72 -2.5 104 -7.5s59.667 -10.167 83 -15.5l37 176h-332l29 133h331l39 181h162l-38 -181h136l-29 -133h-135zM857.998 885.005
c-25.333 7.33301 -51.833 13.1689 -79.5 17.502s-57.167 6.5 -88.5 6.5c-58 0 -109.167 -9 -153.5 -27s-83 -42 -116 -72s-60.667 -64.167 -83 -102.5s-40.333 -77.666 -54 -117.999s-23.334 -80 -29.001 -119s-8.5 -74.167 -8.5 -105.5c0 -37.333 3.16699 -71.333 9.5 -102
s16.666 -57 30.999 -79s32.833 -39 55.5 -51s50 -18 82 -18c33.333 0 64.5 7 93.5 21s56.167 33 81.5 57s48.333 51.667 69 83s39.334 64.666 56.001 99.999s30.834 71.166 42.501 107.499s21.167 71.166 28.5 104.499z" />
    <glyph glyph-name="Emacron" unicode="&#x112;" horiz-adv-x="1022" 
d="M1071 1282h-553l-104 -489h512l-33 -152h-512l-105 -489h588l-30 -152h-760l303 1434h727zM496 1567l16 108h508l-16 -108h-508z" />
    <glyph glyph-name="emacron" unicode="&#x113;" horiz-adv-x="997" 
d="M958 784c0 -54 -11.9951 -103.168 -35.9951 -147.501s-63.667 -82.333 -119 -114s-128.333 -56.167 -219 -73.5s-202.667 -26.333 -336 -27c-1.33301 -7.33301 -2 -15 -2 -23v-20c0 -36 5 -70 15 -102s25.5 -60 46.5 -84s48 -43 81 -57s72.167 -21 117.5 -21
c46 0 96.5 8.83301 151.5 26.5s107.5 42.834 157.5 75.501l-31 -162c-36.667 -21.333 -80.334 -40 -131.001 -56s-107.334 -24 -170.001 -24c-75.333 0 -138.833 11.667 -190.5 35s-93.334 54.5 -125.001 93.5s-54.5 84 -68.5 135s-21 104.5 -21 160.5
c0 60 6.66699 117.833 20 173.5s32.166 107.5 56.499 155.5s53.5 91.833 87.5 131.5s71.667 73.5 113 101.5s85.666 49.667 132.999 65s96.333 23 147 23c52.667 0 99.167 -7 139.5 -21s74 -33.167 101 -57.5s47.5 -52.5 61.5 -84.5s21 -66 21 -102zM791.005 775.999
c0 42 -15.5 74.666 -46.5 97.999s-72.167 35 -123.5 35c-40.667 0 -80 -8.83301 -118 -26.5s-73 -42 -105 -73s-59.667 -68 -83 -111s-40.333 -89.5 -51 -139.5c95.333 0 176.333 4.83301 243 14.5s121 23.834 163 42.501s72.667 41.5 92 68.5s29 57.5 29 91.5z
M430.005 1219l16 108h508l-16 -108h-508z" />
    <glyph glyph-name="Ebreve" unicode="&#x114;" horiz-adv-x="1022" 
d="M1071 1282h-553l-104 -489h512l-33 -152h-512l-105 -489h588l-30 -152h-760l303 1434h727zM1062 1822c-12 -40 -28.167 -75.665 -48.5 -106.998s-44.333 -58 -72 -80s-58.167 -38.667 -91.5 -50s-69 -17 -107 -17c-36.667 0 -70.167 5.33301 -100.5 16s-56 25.5 -77 44.5
s-37.333 41.667 -49 68s-17.5 55.166 -17.5 86.499c0 8 0.5 14.667 1.5 20s2.5 11.666 4.5 18.999h105c-1.33301 -4.66699 -2 -9 -2 -13v-14c0 -40 12.833 -71.167 38.5 -93.5s59.167 -33.5 100.5 -33.5c51.333 0 94 12.5 128 37.5s59.667 63.833 77 116.5h110z" />
    <glyph glyph-name="ebreve" unicode="&#x115;" horiz-adv-x="997" 
d="M958 784c0 -54 -11.9951 -103.168 -35.9951 -147.501s-63.667 -82.333 -119 -114s-128.333 -56.167 -219 -73.5s-202.667 -26.333 -336 -27c-1.33301 -7.33301 -2 -15 -2 -23v-20c0 -36 5 -70 15 -102s25.5 -60 46.5 -84s48 -43 81 -57s72.167 -21 117.5 -21
c46 0 96.5 8.83301 151.5 26.5s107.5 42.834 157.5 75.501l-31 -162c-36.667 -21.333 -80.334 -40 -131.001 -56s-107.334 -24 -170.001 -24c-75.333 0 -138.833 11.667 -190.5 35s-93.334 54.5 -125.001 93.5s-54.5 84 -68.5 135s-21 104.5 -21 160.5
c0 60 6.66699 117.833 20 173.5s32.166 107.5 56.499 155.5s53.5 91.833 87.5 131.5s71.667 73.5 113 101.5s85.666 49.667 132.999 65s96.333 23 147 23c52.667 0 99.167 -7 139.5 -21s74 -33.167 101 -57.5s47.5 -52.5 61.5 -84.5s21 -66 21 -102zM791.005 775.999
c0 42 -15.5 74.666 -46.5 97.999s-72.167 35 -123.5 35c-40.667 0 -80 -8.83301 -118 -26.5s-73 -42 -105 -73s-59.667 -68 -83 -111s-40.333 -89.5 -51 -139.5c95.333 0 176.333 4.83301 243 14.5s121 23.834 163 42.501s72.667 41.5 92 68.5s29 57.5 29 91.5z
M990.005 1473c-12 -40 -28.167 -75.665 -48.5 -106.998s-44.333 -58 -72 -80s-58.167 -38.667 -91.5 -50s-69 -17 -107 -17c-36.667 0 -70.167 5.33301 -100.5 16s-56 25.5 -77 44.5s-37.333 41.667 -49 68s-17.5 55.166 -17.5 86.499c0 8 0.5 14.667 1.5 20
s2.5 11.666 4.5 18.999h105c-1.33301 -4.66699 -2 -9 -2 -13v-14c0 -40 12.833 -71.167 38.5 -93.5s59.167 -33.5 100.5 -33.5c51.333 0 94 12.5 128 37.5s59.667 63.833 77 116.5h110z" />
    <glyph glyph-name="Edotaccent" unicode="&#x116;" horiz-adv-x="1022" 
d="M1071 1282h-553l-104 -489h512l-33 -152h-512l-105 -489h588l-30 -152h-760l303 1434h727zM863 1667c0 -28 -9.33301 -51.667 -28 -71s-42 -29 -70 -29c-12.667 0 -24.834 2.5 -36.501 7.5s-21.834 12 -30.501 21s-15.667 19.667 -21 32s-8 25.5 -8 39.5
s2.66699 26.833 8 38.5s12.333 21.667 21 30s18.834 15 30.501 20s23.834 7.5 36.501 7.5c13.333 0 25.833 -2.5 37.5 -7.5s22 -11.667 31 -20s16.167 -18.333 21.5 -30s8 -24.5 8 -38.5z" />
    <glyph glyph-name="edotaccent" unicode="&#x117;" horiz-adv-x="997" 
d="M958 784c0 -54 -11.9951 -103.168 -35.9951 -147.501s-63.667 -82.333 -119 -114s-128.333 -56.167 -219 -73.5s-202.667 -26.333 -336 -27c-1.33301 -7.33301 -2 -15 -2 -23v-20c0 -36 5 -70 15 -102s25.5 -60 46.5 -84s48 -43 81 -57s72.167 -21 117.5 -21
c46 0 96.5 8.83301 151.5 26.5s107.5 42.834 157.5 75.501l-31 -162c-36.667 -21.333 -80.334 -40 -131.001 -56s-107.334 -24 -170.001 -24c-75.333 0 -138.833 11.667 -190.5 35s-93.334 54.5 -125.001 93.5s-54.5 84 -68.5 135s-21 104.5 -21 160.5
c0 60 6.66699 117.833 20 173.5s32.166 107.5 56.499 155.5s53.5 91.833 87.5 131.5s71.667 73.5 113 101.5s85.666 49.667 132.999 65s96.333 23 147 23c52.667 0 99.167 -7 139.5 -21s74 -33.167 101 -57.5s47.5 -52.5 61.5 -84.5s21 -66 21 -102zM791.005 775.999
c0 42 -15.5 74.666 -46.5 97.999s-72.167 35 -123.5 35c-40.667 0 -80 -8.83301 -118 -26.5s-73 -42 -105 -73s-59.667 -68 -83 -111s-40.333 -89.5 -51 -139.5c95.333 0 176.333 4.83301 243 14.5s121 23.834 163 42.501s72.667 41.5 92 68.5s29 57.5 29 91.5z
M788.005 1319c0 -28 -9.33301 -51.667 -28 -71s-42 -29 -70 -29c-12.667 0 -24.834 2.5 -36.501 7.5s-21.834 12 -30.501 21s-15.667 19.667 -21 32s-8 25.5 -8 39.5s2.66699 26.833 8 38.5s12.333 21.667 21 30s18.834 15 30.501 20s23.834 7.5 36.501 7.5
c13.333 0 25.833 -2.5 37.5 -7.5s22 -11.667 31 -20s16.167 -18.333 21.5 -30s8 -24.5 8 -38.5z" />
    <glyph glyph-name="Eogonek" unicode="&#x118;" horiz-adv-x="1022" 
d="M695 0c-34.667 -31.333 -63.998 -59.002 -87.998 -83.002s-43.333 -45.833 -58 -65.5s-25.334 -37.667 -32.001 -54s-10 -32.166 -10 -47.499c0 -53.333 26.667 -80 80 -80c15.333 0 31.5 2.83301 48.5 8.5s30.833 11.167 41.5 16.5l-15 -103
c-12 -6 -27.333 -11.167 -46 -15.5s-39.334 -6.5 -62.001 -6.5c-54.667 0 -95.334 13.833 -122.001 41.5s-40 65.834 -40 114.501c0 18 3.33301 36.833 10 56.5s17.667 40.667 33 63s35.833 46.333 61.5 72s57.834 53.167 96.501 82.5h-519l303 1434h727l-33 -152h-553
l-104 -489h512l-33 -152h-512l-105 -489h588l-30 -152h-139z" />
    <glyph glyph-name="eogonek" unicode="&#x119;" horiz-adv-x="997" 
d="M958 784c0 -54 -11.9932 -103.171 -35.9932 -147.504s-63.667 -82.333 -119 -114s-128.333 -56.167 -219 -73.5s-202.667 -26.333 -336 -27c-1.33301 -7.33301 -2 -15 -2 -23v-20c0 -36 5 -70 15 -102s25.5 -60 46.5 -84s48 -43 81 -57s72.167 -21 117.5 -21
c46 0 96.5 8.83301 151.5 26.5s107.5 42.834 157.5 75.501l-31 -162c-36.667 -21.333 -80.334 -40 -131.001 -56c-33.333 -10 -69 -17 -107 -21l-63 -61c-24 -24 -43.333 -45.833 -58 -65.5s-25.334 -37.667 -32.001 -54s-10 -32.166 -10 -47.499
c0 -53.333 26.667 -80 80 -80c15.333 0 31.5 2.83301 48.5 8.5s30.833 11.167 41.5 16.5l-15 -103c-12 -6 -27.333 -11.167 -46 -15.5s-39.334 -6.5 -62.001 -6.5c-54.667 0 -95.334 13.833 -122.001 41.5s-40 65.834 -40 114.501c0 18 3.33301 36.833 10 56.5
s17.667 40.667 33 63s35.666 46.5 60.999 72.5c18.667 18.667 40.667 38.334 66 59.001c-56 3.33301 -104.667 14.333 -146 33c-51.333 23.333 -92.833 54.5 -124.5 93.5s-54.5 84 -68.5 135s-21 104.5 -21 160.5c0 60 6.66699 117.833 20 173.5s32.166 107.5 56.499 155.5
s53.5 91.833 87.5 131.5s71.667 73.5 113 101.5s85.666 49.667 132.999 65s96.333 23 147 23c52.667 0 99.167 -7 139.5 -21s74 -33.167 101 -57.5s47.5 -52.5 61.5 -84.5s21 -66 21 -102zM791.007 775.996c0 42 -15.5 74.666 -46.5 97.999s-72.167 35 -123.5 35
c-40.667 0 -80 -8.83301 -118 -26.5s-73 -42 -105 -73s-59.667 -68 -83 -111s-40.333 -89.5 -51 -139.5c95.333 0 176.333 4.83301 243 14.5s121 23.834 163 42.501s72.667 41.5 92 68.5s29 57.5 29 91.5z" />
    <glyph glyph-name="Ecaron" unicode="&#x11a;" horiz-adv-x="1022" 
d="M1071 1282h-553l-104 -489h512l-33 -152h-512l-105 -489h588l-30 -152h-760l303 1434h727zM825 1567h-135l-145 331h112l115 -231l215 231h119z" />
    <glyph glyph-name="ecaron" unicode="&#x11b;" horiz-adv-x="997" 
d="M958 784c0 -54 -11.9951 -103.168 -35.9951 -147.501s-63.667 -82.333 -119 -114s-128.333 -56.167 -219 -73.5s-202.667 -26.333 -336 -27c-1.33301 -7.33301 -2 -15 -2 -23v-20c0 -36 5 -70 15 -102s25.5 -60 46.5 -84s48 -43 81 -57s72.167 -21 117.5 -21
c46 0 96.5 8.83301 151.5 26.5s107.5 42.834 157.5 75.501l-31 -162c-36.667 -21.333 -80.334 -40 -131.001 -56s-107.334 -24 -170.001 -24c-75.333 0 -138.833 11.667 -190.5 35s-93.334 54.5 -125.001 93.5s-54.5 84 -68.5 135s-21 104.5 -21 160.5
c0 60 6.66699 117.833 20 173.5s32.166 107.5 56.499 155.5s53.5 91.833 87.5 131.5s71.667 73.5 113 101.5s85.666 49.667 132.999 65s96.333 23 147 23c52.667 0 99.167 -7 139.5 -21s74 -33.167 101 -57.5s47.5 -52.5 61.5 -84.5s21 -66 21 -102zM791.005 775.999
c0 42 -15.5 74.666 -46.5 97.999s-72.167 35 -123.5 35c-40.667 0 -80 -8.83301 -118 -26.5s-73 -42 -105 -73s-59.667 -68 -83 -111s-40.333 -89.5 -51 -139.5c95.333 0 176.333 4.83301 243 14.5s121 23.834 163 42.501s72.667 41.5 92 68.5s29 57.5 29 91.5z
M747.005 1219h-135l-145 331h112l115 -231l215 231h119z" />
    <glyph glyph-name="Gcircumflex" unicode="&#x11c;" horiz-adv-x="1409" 
d="M1350 1190c-22 14.667 -47.165 29.001 -75.498 43.001s-59.5 26.5 -93.5 37.5s-70.833 19.833 -110.5 26.5s-81.834 10 -126.501 10c-99.333 0 -188 -17.667 -266 -53s-144 -83.5 -198 -144.5s-95.333 -132.833 -124 -215.5s-43 -171 -43 -265
c0 -78 10.833 -148 32.5 -210s52.834 -114.667 93.501 -158s89.834 -76.5 147.501 -99.5s122.834 -34.5 195.501 -34.5c50 0 95.167 4.16699 135.5 12.5s77.833 19.166 112.5 32.499l86 418h-332l33 149h504l-141 -661c-56.667 -30 -119.334 -55 -188.001 -75
s-145.334 -30 -230.001 -30c-98 0 -185.667 16.333 -263 49s-142.833 77.5 -196.5 134.5s-94.667 124.333 -123 202s-42.5 161.5 -42.5 251.5c0 77.333 8 152 24 224s39.667 139.5 71 202.5s70.333 120.333 117 172s100.667 96 162 133s129.833 65.667 205.5 86
s158.5 30.5 248.5 30.5c49.333 0 95.166 -3 137.499 -9s81 -13.667 116 -23s66.167 -19.5 93.5 -30.5s50.666 -21.5 69.999 -31.5zM1113 1569l-114 231l-213 -231h-121l283 331h133l145 -331h-113z" />
    <glyph glyph-name="gcircumflex" unicode="&#x11d;" horiz-adv-x="1110" 
d="M850 74c-16.667 -80 -38.6729 -153.828 -66.0059 -221.495s-63.5 -126.334 -108.5 -176.001s-100.5 -88.334 -166.5 -116.001s-146.333 -41.5 -241 -41.5c-65.333 0 -122.166 7.66699 -170.499 23s-92.5 33.666 -132.5 54.999l31 153
c42 -25.333 86.667 -46.666 134 -63.999s98.333 -26 153 -26c59.333 0 110.833 8.66699 154.5 26s81.334 42.833 113.001 76.5s58 74.834 79 123.501s38.5 104.334 52.5 167.001l35 160h-4c-25.333 -40.667 -50.166 -75.834 -74.499 -105.501s-49.833 -54.334 -76.5 -74.001
s-54.667 -34.334 -84 -44.001s-61.666 -14.5 -96.999 -14.5c-46 0 -87.667 8.16699 -125 24.5s-69.166 40.5 -95.499 72.5s-46.666 72 -60.999 120s-21.5 103.333 -21.5 166c0 59.333 6.5 117.666 19.5 174.999s31.833 111.666 56.5 162.999s54.834 98.5 90.501 141.5
s76.167 80.167 121.5 111.5s95.166 55.833 149.499 73.5s112.5 26.5 174.5 26.5s124 -4 186 -12s119 -17 171 -27zM857.994 889.005c-22.667 5.33301 -50.1689 10.002 -82.502 14.002s-66.833 6 -103.5 6c-62.667 0 -120 -14.5 -172 -43.5s-96.833 -68.333 -134.5 -118
s-67 -107.5 -88 -173.5s-31.5 -135.667 -31.5 -209c0 -36 3.16699 -69.333 9.5 -100s16.333 -57 30 -79s31.334 -39.333 53.001 -52s48.167 -19 79.5 -19c36.667 0 70.5 7.66699 101.5 23s59.5 35.666 85.5 60.999s49.167 54.166 69.5 86.499s38.333 65.5 54 99.5
s28.834 67.5 39.501 100.5s19 62.833 25 89.5zM888.992 1219.01l-114 231l-213 -231h-121l283 331h133l145 -331h-113z" />
    <glyph glyph-name="Gbreve" unicode="&#x11e;" horiz-adv-x="1409" 
d="M1350 1190c-22 14.667 -47.165 29.001 -75.498 43.001s-59.5 26.5 -93.5 37.5s-70.833 19.833 -110.5 26.5s-81.834 10 -126.501 10c-99.333 0 -188 -17.667 -266 -53s-144 -83.5 -198 -144.5s-95.333 -132.833 -124 -215.5s-43 -171 -43 -265
c0 -78 10.833 -148 32.5 -210s52.834 -114.667 93.501 -158s89.834 -76.5 147.501 -99.5s122.834 -34.5 195.501 -34.5c50 0 95.167 4.16699 135.5 12.5s77.833 19.166 112.5 32.499l86 418h-332l33 149h504l-141 -661c-56.667 -30 -119.334 -55 -188.001 -75
s-145.334 -30 -230.001 -30c-98 0 -185.667 16.333 -263 49s-142.833 77.5 -196.5 134.5s-94.667 124.333 -123 202s-42.5 161.5 -42.5 251.5c0 77.333 8 152 24 224s39.667 139.5 71 202.5s70.333 120.333 117 172s100.667 96 162 133s129.833 65.667 205.5 86
s158.5 30.5 248.5 30.5c49.333 0 95.166 -3 137.499 -9s81 -13.667 116 -23s66.167 -19.5 93.5 -30.5s50.666 -21.5 69.999 -31.5zM1300 1820c-12 -40 -28.167 -75.665 -48.5 -106.998s-44.333 -58 -72 -80s-58.167 -38.667 -91.5 -50s-69 -17 -107 -17
c-36.667 0 -70.167 5.33301 -100.5 16s-56 25.5 -77 44.5s-37.333 41.667 -49 68s-17.5 55.166 -17.5 86.499c0 8 0.5 14.667 1.5 20s2.5 11.666 4.5 18.999h105c-1.33301 -4.66699 -2 -9 -2 -13v-14c0 -40 12.833 -71.167 38.5 -93.5s59.167 -33.5 100.5 -33.5
c51.333 0 94 12.5 128 37.5s59.667 63.833 77 116.5h110z" />
    <glyph glyph-name="gbreve" unicode="&#x11f;" horiz-adv-x="1110" 
d="M850 74c-16.667 -80 -38.6729 -153.828 -66.0059 -221.495s-63.5 -126.334 -108.5 -176.001s-100.5 -88.334 -166.5 -116.001s-146.333 -41.5 -241 -41.5c-65.333 0 -122.166 7.66699 -170.499 23s-92.5 33.666 -132.5 54.999l31 153
c42 -25.333 86.667 -46.666 134 -63.999s98.333 -26 153 -26c59.333 0 110.833 8.66699 154.5 26s81.334 42.833 113.001 76.5s58 74.834 79 123.501s38.5 104.334 52.5 167.001l35 160h-4c-25.333 -40.667 -50.166 -75.834 -74.499 -105.501s-49.833 -54.334 -76.5 -74.001
s-54.667 -34.334 -84 -44.001s-61.666 -14.5 -96.999 -14.5c-46 0 -87.667 8.16699 -125 24.5s-69.166 40.5 -95.499 72.5s-46.666 72 -60.999 120s-21.5 103.333 -21.5 166c0 59.333 6.5 117.666 19.5 174.999s31.833 111.666 56.5 162.999s54.834 98.5 90.501 141.5
s76.167 80.167 121.5 111.5s95.166 55.833 149.499 73.5s112.5 26.5 174.5 26.5s124 -4 186 -12s119 -17 171 -27zM857.994 889.005c-22.667 5.33301 -50.1689 10.002 -82.502 14.002s-66.833 6 -103.5 6c-62.667 0 -120 -14.5 -172 -43.5s-96.833 -68.333 -134.5 -118
s-67 -107.5 -88 -173.5s-31.5 -135.667 -31.5 -209c0 -36 3.16699 -69.333 9.5 -100s16.333 -57 30 -79s31.334 -39.333 53.001 -52s48.167 -19 79.5 -19c36.667 0 70.5 7.66699 101.5 23s59.5 35.666 85.5 60.999s49.167 54.166 69.5 86.499s38.333 65.5 54 99.5
s28.834 67.5 39.501 100.5s19 62.833 25 89.5zM1072.99 1473.01c-12 -40 -28.167 -75.665 -48.5 -106.998s-44.333 -58 -72 -80s-58.167 -38.667 -91.5 -50s-69 -17 -107 -17c-36.667 0 -70.167 5.33301 -100.5 16s-56 25.5 -77 44.5s-37.333 41.667 -49 68
s-17.5 55.166 -17.5 86.499c0 8 0.5 14.667 1.5 20s2.5 11.666 4.5 18.999h105c-1.33301 -4.66699 -2 -9 -2 -13v-14c0 -40 12.833 -71.167 38.5 -93.5s59.167 -33.5 100.5 -33.5c51.333 0 94 12.5 128 37.5s59.667 63.833 77 116.5h110z" />
    <glyph glyph-name="Gdotaccent" unicode="&#x120;" horiz-adv-x="1409" 
d="M1350 1190c-22 14.667 -47.165 29.001 -75.498 43.001s-59.5 26.5 -93.5 37.5s-70.833 19.833 -110.5 26.5s-81.834 10 -126.501 10c-99.333 0 -188 -17.667 -266 -53s-144 -83.5 -198 -144.5s-95.333 -132.833 -124 -215.5s-43 -171 -43 -265
c0 -78 10.833 -148 32.5 -210s52.834 -114.667 93.501 -158s89.834 -76.5 147.501 -99.5s122.834 -34.5 195.501 -34.5c50 0 95.167 4.16699 135.5 12.5s77.833 19.166 112.5 32.499l86 418h-332l33 149h504l-141 -661c-56.667 -30 -119.334 -55 -188.001 -75
s-145.334 -30 -230.001 -30c-98 0 -185.667 16.333 -263 49s-142.833 77.5 -196.5 134.5s-94.667 124.333 -123 202s-42.5 161.5 -42.5 251.5c0 77.333 8 152 24 224s39.667 139.5 71 202.5s70.333 120.333 117 172s100.667 96 162 133s129.833 65.667 205.5 86
s158.5 30.5 248.5 30.5c49.333 0 95.166 -3 137.499 -9s81 -13.667 116 -23s66.167 -19.5 93.5 -30.5s50.666 -21.5 69.999 -31.5zM1116 1667c0 -28 -9.33301 -51.667 -28 -71s-42 -29 -70 -29c-12.667 0 -24.834 2.5 -36.501 7.5s-21.834 12 -30.501 21
s-15.667 19.667 -21 32s-8 25.5 -8 39.5s2.66699 26.833 8 38.5s12.333 21.667 21 30s18.834 15 30.501 20s23.834 7.5 36.501 7.5c13.333 0 25.833 -2.5 37.5 -7.5s22 -11.667 31 -20s16.167 -18.333 21.5 -30s8 -24.5 8 -38.5z" />
    <glyph glyph-name="gdotaccent" unicode="&#x121;" horiz-adv-x="1110" 
d="M850 74c-16.667 -80 -38.6729 -153.828 -66.0059 -221.495s-63.5 -126.334 -108.5 -176.001s-100.5 -88.334 -166.5 -116.001s-146.333 -41.5 -241 -41.5c-65.333 0 -122.166 7.66699 -170.499 23s-92.5 33.666 -132.5 54.999l31 153
c42 -25.333 86.667 -46.666 134 -63.999s98.333 -26 153 -26c59.333 0 110.833 8.66699 154.5 26s81.334 42.833 113.001 76.5s58 74.834 79 123.501s38.5 104.334 52.5 167.001l35 160h-4c-25.333 -40.667 -50.166 -75.834 -74.499 -105.501s-49.833 -54.334 -76.5 -74.001
s-54.667 -34.334 -84 -44.001s-61.666 -14.5 -96.999 -14.5c-46 0 -87.667 8.16699 -125 24.5s-69.166 40.5 -95.499 72.5s-46.666 72 -60.999 120s-21.5 103.333 -21.5 166c0 59.333 6.5 117.666 19.5 174.999s31.833 111.666 56.5 162.999s54.834 98.5 90.501 141.5
s76.167 80.167 121.5 111.5s95.166 55.833 149.499 73.5s112.5 26.5 174.5 26.5s124 -4 186 -12s119 -17 171 -27zM857.994 889.005c-22.667 5.33301 -50.1689 10.002 -82.502 14.002s-66.833 6 -103.5 6c-62.667 0 -120 -14.5 -172 -43.5s-96.833 -68.333 -134.5 -118
s-67 -107.5 -88 -173.5s-31.5 -135.667 -31.5 -209c0 -36 3.16699 -69.333 9.5 -100s16.333 -57 30 -79s31.334 -39.333 53.001 -52s48.167 -19 79.5 -19c36.667 0 70.5 7.66699 101.5 23s59.5 35.666 85.5 60.999s49.167 54.166 69.5 86.499s38.333 65.5 54 99.5
s28.834 67.5 39.501 100.5s19 62.833 25 89.5zM834.992 1319.01c0 -28 -9.33301 -51.667 -28 -71s-42 -29 -70 -29c-12.667 0 -24.834 2.5 -36.501 7.5s-21.834 12 -30.501 21s-15.667 19.667 -21 32s-8 25.5 -8 39.5s2.66699 26.833 8 38.5s12.333 21.667 21 30
s18.834 15 30.501 20s23.834 7.5 36.501 7.5c13.333 0 25.833 -2.5 37.5 -7.5s22 -11.667 31 -20s16.167 -18.333 21.5 -30s8 -24.5 8 -38.5z" />
    <glyph glyph-name="Gcommaaccent" unicode="&#x122;" horiz-adv-x="1409" 
d="M1350 1190c-22 14.667 -47.165 29.001 -75.498 43.001s-59.5 26.5 -93.5 37.5s-70.833 19.833 -110.5 26.5s-81.834 10 -126.501 10c-99.333 0 -188 -17.667 -266 -53s-144 -83.5 -198 -144.5s-95.333 -132.833 -124 -215.5s-43 -171 -43 -265
c0 -78 10.833 -148 32.5 -210s52.834 -114.667 93.501 -158s89.834 -76.5 147.501 -99.5s122.834 -34.5 195.501 -34.5c50 0 95.167 4.16699 135.5 12.5s77.833 19.166 112.5 32.499l86 418h-332l33 149h504l-141 -661c-56.667 -30 -119.334 -55 -188.001 -75
s-145.334 -30 -230.001 -30c-98 0 -185.667 16.333 -263 49s-142.833 77.5 -196.5 134.5s-94.667 124.333 -123 202s-42.5 161.5 -42.5 251.5c0 77.333 8 152 24 224s39.667 139.5 71 202.5s70.333 120.333 117 172s100.667 96 162 133s129.833 65.667 205.5 86
s158.5 30.5 248.5 30.5c49.333 0 95.166 -3 137.499 -9s81 -13.667 116 -23s66.167 -19.5 93.5 -30.5s50.666 -21.5 69.999 -31.5zM840.002 -118.999l-166 -260h-123l117 260h172z" />
    <glyph glyph-name="gcommaaccent" unicode="&#x123;" horiz-adv-x="1110" 
d="M850 74c-16.667 -80 -38.6729 -153.828 -66.0059 -221.495s-63.5 -126.334 -108.5 -176.001s-100.5 -88.334 -166.5 -116.001s-146.333 -41.5 -241 -41.5c-65.333 0 -122.166 7.66699 -170.499 23s-92.5 33.666 -132.5 54.999l31 153
c42 -25.333 86.667 -46.666 134 -63.999s98.333 -26 153 -26c59.333 0 110.833 8.66699 154.5 26s81.334 42.833 113.001 76.5s58 74.834 79 123.501s38.5 104.334 52.5 167.001l35 160h-4c-25.333 -40.667 -50.166 -75.834 -74.499 -105.501s-49.833 -54.334 -76.5 -74.001
s-54.667 -34.334 -84 -44.001s-61.666 -14.5 -96.999 -14.5c-46 0 -87.667 8.16699 -125 24.5s-69.166 40.5 -95.499 72.5s-46.666 72 -60.999 120s-21.5 103.333 -21.5 166c0 59.333 6.5 117.666 19.5 174.999s31.833 111.666 56.5 162.999s54.834 98.5 90.501 141.5
s76.167 80.167 121.5 111.5s95.166 55.833 149.499 73.5s112.5 26.5 174.5 26.5s124 -4 186 -12s119 -17 171 -27zM857.994 889.005c-22.667 5.33301 -50.1689 10.002 -82.502 14.002s-66.833 6 -103.5 6c-62.667 0 -120 -14.5 -172 -43.5s-96.833 -68.333 -134.5 -118
s-67 -107.5 -88 -173.5s-31.5 -135.667 -31.5 -209c0 -36 3.16699 -69.333 9.5 -100s16.333 -57 30 -79s31.334 -39.333 53.001 -52s48.167 -19 79.5 -19c36.667 0 70.5 7.66699 101.5 23s59.5 35.666 85.5 60.999s49.167 54.166 69.5 86.499s38.333 65.5 54 99.5
s28.834 67.5 39.501 100.5s19 62.833 25 89.5zM761.992 1219.01h-172l221 260h123z" />
    <glyph glyph-name="Hcircumflex" unicode="&#x124;" horiz-adv-x="1450" 
d="M1151 0h-172l137 647h-733l-135 -647h-174l303 1434h174l-135 -629h733l135 629h172zM1088 1567l-114 231l-213 -231h-121l283 331h133l145 -331h-113z" />
    <glyph glyph-name="hcircumflex" unicode="&#x125;" horiz-adv-x="1141" 
d="M1036 766c0 -8.66699 -1.16602 -21.834 -3.49902 -39.501s-5 -36.5 -8 -56.5s-6.33301 -39.833 -10 -59.5s-7.16699 -36.167 -10.5 -49.5l-119 -561h-166l125 600c2.66699 10.667 5.33398 23 8.00098 37s5 28 7 42s3.66699 26.833 5 38.5s2 20.834 2 27.501
c0 52 -11.833 92.333 -35.5 121s-60.167 43 -109.5 43c-42.667 0 -85.334 -12.5 -128.001 -37.5s-82.334 -57.333 -119.001 -97s-68.5 -84 -95.5 -133s-45.833 -97.5 -56.5 -145.5l-107 -496h-166l324 1516h164l-156 -732h4c24.667 38 51.667 73.167 81 105.5
s60.5 60.333 93.5 84s67.667 42.167 104 55.5s73.833 20 112.5 20c85.333 0 150 -25.167 194 -75.5s66 -119.5 66 -207.5zM913.001 1648l-114 231l-213 -231h-121l283 331h133l145 -331h-113z" />
    <glyph glyph-name="Hbar" unicode="&#x126;" horiz-adv-x="1450" 
d="M1151 0h-172l137 647h-733l-135 -647h-174l217 1028h-160l33 152h159l54 254h174l-55 -254h733l55 254h172l-54 -254h158l-33 -152h-158zM1149 805l48 223h-733l-48 -223h733z" />
    <glyph glyph-name="hbar" unicode="&#x127;" horiz-adv-x="1141" 
d="M1036 766c0 -8.66699 -1.16602 -21.834 -3.49902 -39.501s-5 -36.5 -8 -56.5s-6.33301 -39.833 -10 -59.5s-7.16699 -36.167 -10.5 -49.5l-119 -561h-166l125 600c2.66699 10.667 5.33398 23 8.00098 37s5 28 7 42s3.66699 26.833 5 38.5s2 20.834 2 27.501
c0 52 -11.833 92.333 -35.5 121s-60.167 43 -109.5 43c-42.667 0 -85.334 -12.5 -128.001 -37.5s-82.334 -57.333 -119.001 -97s-68.5 -84 -95.5 -133s-45.833 -97.5 -56.5 -145.5l-107 -496h-166l257 1202h-135l28 133h135l39 181h164l-39 -181h332l-28 -133h-332l-89 -418
h4c24.667 38 51.667 73.167 81 105.5s60.5 60.333 93.5 84s67.667 42.167 104 55.5s73.833 20 112.5 20c85.333 0 150 -25.167 194 -75.5s66 -119.5 66 -207.5z" />
    <glyph glyph-name="Itilde" unicode="&#x128;" horiz-adv-x="545" 
d="M246 0h-172l303 1434h174zM816 1803c-2 -30 -8.83398 -58.332 -20.501 -84.999s-27 -50 -46 -70s-41.333 -35.667 -67 -47s-53.5 -17 -83.5 -17c-32 0 -58.833 4.83301 -80.5 14.5s-41 20.167 -58 31.5l-49 31.5c-15.667 9.66699 -33.834 14.5 -54.501 14.5
c-34 0 -60.833 -11 -80.5 -33s-31.167 -48.333 -34.5 -79h-96c2 32 9.16699 61.667 21.5 89s28.5 50.666 48.5 69.999s43.5 34.5 70.5 45.5s56.167 16.5 87.5 16.5c29.333 0 53.833 -5 73.5 -15s37.834 -21.167 54.501 -33.5s33.167 -23.5 49.5 -33.5s35.5 -15 57.5 -15
c14.667 0 28.334 3 41.001 9s24 14.167 34 24.5s18 22.5 24 36.5s10 29 12 45h96z" />
    <glyph glyph-name="itilde" unicode="&#x129;" horiz-adv-x="530" 
d="M416 4c-16.667 -5.33301 -35.5 -9.66992 -56.5 -13.0029s-41.833 -5 -62.5 -5c-67.333 0 -117.666 16.833 -150.999 50.5s-50 78.834 -50 135.501c0 16.667 1.66699 36.334 5 59.001s8.66602 50.667 15.999 84l149 709h166l-150 -713c-6 -28 -10.167 -49.667 -12.5 -65
s-3.5 -28.333 -3.5 -39c0 -27.333 7.5 -48.166 22.5 -62.499s38.833 -21.5 71.5 -21.5c17.333 0 32.5 1 45.5 3s25.167 5 36.5 9zM743 1458c-2 -30 -8.83398 -58.332 -20.501 -84.999s-27 -50 -46 -70s-41.333 -35.667 -67 -47s-53.5 -17 -83.5 -17
c-32 0 -58.833 4.83301 -80.5 14.5s-41 20.167 -58 31.5l-49 31.5c-15.667 9.66699 -33.834 14.5 -54.501 14.5c-34 0 -60.833 -11 -80.5 -33s-31.167 -48.333 -34.5 -79h-96c2 32 9.16699 61.667 21.5 89s28.5 50.666 48.5 69.999s43.5 34.5 70.5 45.5
s56.167 16.5 87.5 16.5c29.333 0 53.833 -5 73.5 -15s37.834 -21.167 54.501 -33.5s33.167 -23.5 49.5 -33.5s35.5 -15 57.5 -15c14.667 0 28.334 3 41.001 9s24 14.167 34 24.5s18 22.5 24 36.5s10 29 12 45h96z" />
    <glyph glyph-name="Imacron" unicode="&#x12a;" horiz-adv-x="545" 
d="M246 0h-172l303 1434h174zM228 1566l16 108h508l-16 -108h-508z" />
    <glyph glyph-name="imacron" unicode="&#x12b;" horiz-adv-x="530" 
d="M416 4c-16.667 -5.33301 -35.5 -9.66992 -56.5 -13.0029s-41.833 -5 -62.5 -5c-67.333 0 -117.666 16.833 -150.999 50.5s-50 78.834 -50 135.501c0 16.667 1.66699 36.334 5 59.001s8.66602 50.667 15.999 84l149 709h166l-150 -713c-6 -28 -10.167 -49.667 -12.5 -65
s-3.5 -28.333 -3.5 -39c0 -27.333 7.5 -48.166 22.5 -62.499s38.833 -21.5 71.5 -21.5c17.333 0 32.5 1 45.5 3s25.167 5 36.5 9zM107 1219l16 108h508l-16 -108h-508z" />
    <glyph glyph-name="Ibreve" unicode="&#x12c;" horiz-adv-x="545" 
d="M246 0h-172l303 1434h174zM811 1821c-12 -40 -28.167 -75.665 -48.5 -106.998s-44.333 -58 -72 -80s-58.167 -38.667 -91.5 -50s-69 -17 -107 -17c-36.667 0 -70.167 5.33301 -100.5 16s-56 25.5 -77 44.5s-37.333 41.667 -49 68s-17.5 55.166 -17.5 86.499
c0 8 0.5 14.667 1.5 20s2.5 11.666 4.5 18.999h105c-1.33301 -4.66699 -2 -9 -2 -13v-14c0 -40 12.833 -71.167 38.5 -93.5s59.167 -33.5 100.5 -33.5c51.333 0 94 12.5 128 37.5s59.667 63.833 77 116.5h110z" />
    <glyph glyph-name="ibreve" unicode="&#x12d;" horiz-adv-x="530" 
d="M416 4c-16.667 -5.33301 -35.5 -9.66992 -56.5 -13.0029s-41.833 -5 -62.5 -5c-67.333 0 -117.666 16.833 -150.999 50.5s-50 78.834 -50 135.501c0 16.667 1.66699 36.334 5 59.001s8.66602 50.667 15.999 84l149 709h166l-150 -713c-6 -28 -10.167 -49.667 -12.5 -65
s-3.5 -28.333 -3.5 -39c0 -27.333 7.5 -48.166 22.5 -62.499s38.833 -21.5 71.5 -21.5c17.333 0 32.5 1 45.5 3s25.167 5 36.5 9zM699 1473c-12 -40 -28.167 -75.665 -48.5 -106.998s-44.333 -58 -72 -80s-58.167 -38.667 -91.5 -50s-69 -17 -107 -17
c-36.667 0 -70.167 5.33301 -100.5 16s-56 25.5 -77 44.5s-37.333 41.667 -49 68s-17.5 55.166 -17.5 86.499c0 8 0.5 14.667 1.5 20s2.5 11.666 4.5 18.999h105c-1.33301 -4.66699 -2 -9 -2 -13v-14c0 -40 12.833 -71.167 38.5 -93.5s59.167 -33.5 100.5 -33.5
c51.333 0 94 12.5 128 37.5s59.667 63.833 77 116.5h110z" />
    <glyph glyph-name="Iogonek" unicode="&#x12e;" horiz-adv-x="545" 
d="M225 0c-34.667 -31.333 -63.998 -59.002 -87.998 -83.002s-43.333 -45.833 -58 -65.5s-25.334 -37.667 -32.001 -54s-10 -32.166 -10 -47.499c0 -53.333 26.667 -80 80 -80c15.333 0 31.5 2.83301 48.5 8.5s30.833 11.167 41.5 16.5l-15 -103
c-12 -6 -27.333 -11.167 -46 -15.5s-39.334 -6.5 -62.001 -6.5c-54.667 0 -95.334 13.833 -122.001 41.5s-40 65.834 -40 114.501c0 18 3.33301 36.833 10 56.5s17.667 40.667 33 63s35.833 46.333 61.5 72s57.834 53.167 96.501 82.5h-49l303 1434h174l-305 -1434h-21z" />
    <glyph glyph-name="iogonek" unicode="&#x12f;" horiz-adv-x="530" 
d="M292 -14c-62.667 0 -110.997 16.4971 -144.997 49.4971s-51 78.5 -51 136.5c0 16.667 1.66699 36.334 5 59.001s8.66602 50.667 15.999 84l149 709h166l-150 -713c-6 -28 -10.167 -49.667 -12.5 -65s-3.5 -28.333 -3.5 -39c0 -27.333 7.5 -48.166 22.5 -62.499
s38.833 -21.5 71.5 -21.5c17.333 0 32.5 1 45.5 3s25.167 5 36.5 9l-26 -131c-37.333 -34 -68 -63 -92 -87s-43.333 -45.833 -58 -65.5s-25.334 -37.667 -32.001 -54s-10 -32.166 -10 -47.499c0 -53.333 26.667 -80 80 -80c15.333 0 31.5 2.83301 48.5 8.5
s30.833 11.167 41.5 16.5l-15 -103c-12 -6 -27.333 -11.167 -46 -15.5s-39.334 -6.5 -62.001 -6.5c-54.667 0 -95.334 13.833 -122.001 41.5s-40 65.834 -40 114.501c0 18 3.33301 36.833 10 56.5s17.667 40.667 33 63s36.333 46.666 63 72.999s52.334 48.833 77.001 67.5z
M533.003 1389c0 -30 -10.167 -55.667 -30.5 -77s-45.5 -32 -75.5 -32c-29.333 0 -54.833 10.5 -76.5 31.5s-32.5 46.833 -32.5 77.5s10.833 55.667 32.5 75s47.167 29 76.5 29s54.333 -9.83301 75 -29.5s31 -44.5 31 -74.5z" />
    <glyph glyph-name="Idotaccent" unicode="&#x130;" horiz-adv-x="545" 
d="M246 0h-172l303 1434h174zM603 1667c0 -28 -9.33301 -51.667 -28 -71s-42 -29 -70 -29c-12.667 0 -24.834 2.5 -36.501 7.5s-21.834 12 -30.501 21s-15.667 19.667 -21 32s-8 25.5 -8 39.5s2.66699 26.833 8 38.5s12.333 21.667 21 30s18.834 15 30.501 20
s23.834 7.5 36.501 7.5c13.333 0 25.833 -2.5 37.5 -7.5s22 -11.667 31 -20s16.167 -18.333 21.5 -30s8 -24.5 8 -38.5z" />
    <glyph glyph-name="dotlessi" unicode="&#x131;" horiz-adv-x="530" 
d="M416 4c-16.667 -5.33301 -35.5 -9.66992 -56.5 -13.0029s-41.833 -5 -62.5 -5c-67.333 0 -117.666 16.833 -150.999 50.5s-50 78.834 -50 135.501c0 16.667 1.66699 36.334 5 59.001s8.66602 50.667 15.999 84l149 709h166l-150 -713c-6 -28 -10.167 -49.667 -12.5 -65
s-3.5 -28.333 -3.5 -39c0 -27.333 7.5 -48.166 22.5 -62.499s38.833 -21.5 71.5 -21.5c17.333 0 32.5 1 45.5 3s25.167 5 36.5 9z" />
    <glyph glyph-name="IJ" unicode="&#x132;" horiz-adv-x="1268" 
d="M246 0h-172l303 1434h174zM1094 508c-18.667 -86.667 -41.8291 -163.333 -69.4961 -230s-60.834 -122.334 -99.501 -167.001s-83.334 -78.5 -134.001 -101.5s-108.334 -34.5 -173.001 -34.5c-12 0 -26.333 1 -43 3s-33 4.83301 -49 8.5s-30.667 7.5 -44 11.5
s-23 8 -29 12l28 160c7.33301 -6 16.166 -11.833 26.499 -17.5s21.5 -10.5 33.5 -14.5s24.667 -7.16699 38 -9.5s26.333 -3.5 39 -3.5c36 0 69.333 6.5 100 19.5s58.5 34.333 83.5 64s47.5 68.334 67.5 116.001s37.333 106.167 52 175.5l197 934h172z" />
    <glyph glyph-name="ij" unicode="&#x133;" horiz-adv-x="1025" 
d="M416 4c-16.667 -5.33301 -35.5 -9.66992 -56.5 -13.0029s-41.833 -5 -62.5 -5c-67.333 0 -117.666 16.833 -150.999 50.5s-50 78.834 -50 135.501c0 16.667 1.66699 36.334 5 59.001s8.66602 50.667 15.999 84l149 709h166l-150 -713c-6 -28 -10.167 -49.667 -12.5 -65
s-3.5 -28.333 -3.5 -39c0 -27.333 7.5 -48.166 22.5 -62.499s38.833 -21.5 71.5 -21.5c17.333 0 32.5 1 45.5 3s25.167 5 36.5 9zM533 1389c0 -30 -10.167 -55.667 -30.5 -77s-45.5 -32 -75.5 -32c-29.333 0 -54.833 10.5 -76.5 31.5s-32.5 46.833 -32.5 77.5
s10.833 55.667 32.5 75s47.167 29 76.5 29s54.333 -9.83301 75 -29.5s31 -44.5 31 -74.5zM758 46.9961c-36.667 -176 -93.5 -308.004 -170.5 -396.004s-176.5 -132 -298.5 -132c-11.333 0 -23.5 0.666992 -36.5 2s-26 3.33301 -39 6s-25.667 5.83398 -38 9.50098
s-23.5 7.83398 -33.5 12.501l29 154c8 -5.33301 17.333 -10.666 28 -15.999s22 -10.166 34 -14.499s24.167 -7.83301 36.5 -10.5s23.833 -4 34.5 -4c68.667 0 126.667 29.667 174 89s83.333 149 108 269l215 1008h164zM1066 1388.99c0 -30 -10.167 -55.667 -30.5 -77
s-45.5 -32 -75.5 -32c-29.333 0 -54.833 10.5 -76.5 31.5s-32.5 46.833 -32.5 77.5s10.833 55.667 32.5 75s47.167 29 76.5 29s54.333 -9.83301 75 -29.5s31 -44.5 31 -74.5z" />
    <glyph glyph-name="Jcircumflex" unicode="&#x134;" horiz-adv-x="709" 
d="M535 508c-18.667 -86.667 -41.8291 -163.333 -69.4961 -230s-60.834 -122.334 -99.501 -167.001s-83.334 -78.5 -134.001 -101.5s-108.334 -34.5 -173.001 -34.5c-12 0 -26.333 1 -43 3s-33 4.83301 -49 8.5s-30.667 7.5 -44 11.5s-23 8 -29 12l28 160
c7.33301 -6 16.166 -11.833 26.499 -17.5s21.5 -10.5 33.5 -14.5s24.667 -7.16699 38 -9.5s26.333 -3.5 39 -3.5c36 0 69.333 6.5 100 19.5s58.5 34.333 83.5 64s47.5 68.334 67.5 116.001s37.333 106.167 52 175.5l197 934h172zM809.005 1567l-114 231l-213 -231h-121
l283 331h133l145 -331h-113z" />
    <glyph glyph-name="jcircumflex" unicode="&#x135;" horiz-adv-x="492" 
d="M225 47c-36.667 -176 -93.5 -308.004 -170.5 -396.004s-176.5 -132 -298.5 -132c-11.333 0 -23.5 0.666992 -36.5 2s-26 3.33301 -39 6s-25.667 5.83398 -38 9.50098s-23.5 7.83398 -33.5 12.501l29 154c8 -5.33301 17.333 -10.666 28 -15.999s22 -10.166 34 -14.499
s24.167 -7.83301 36.5 -10.5s23.833 -4 34.5 -4c68.667 0 126.667 29.667 174 89s83.333 149 108 269l215 1008h164zM519 1219l-114 231l-213 -231h-121l283 331h133l145 -331h-113z" />
    <glyph glyph-name="Kcommaaccent" unicode="&#x136;" horiz-adv-x="1228" 
d="M573 723l498 -723h-209l-434 653l-15 27c-6 10.667 -10.667 19.667 -14 27h-4l-149 -707h-172l303 1434h174l-143 -674h4l23.5 25l23.5 24l659 625h228zM647 -119l-166 -260h-123l117 260h172z" />
    <glyph glyph-name="kcommaaccent" unicode="&#x137;" horiz-adv-x="1004" 
d="M498 551l362 -551h-190l-336 541h-4l-115 -541h-166l324 1516h164l-197 -926h4l510 434h213zM556 -119l-166 -260h-123l117 260h172z" />
    <glyph glyph-name="kgreenlandic" unicode="&#x138;" horiz-adv-x="1004" 
d="M495 534l365 -534h-190l-339 524h-4l-112 -524h-166l218 1024h164l-94 -451h4l513 451h213z" />
    <glyph glyph-name="Lacute" unicode="&#x139;" horiz-adv-x="948" 
d="M817 0h-743l303 1434h174l-272 -1278h571zM787 1567h-123l289 327h161z" />
    <glyph glyph-name="lacute" unicode="&#x13a;" horiz-adv-x="530" 
d="M416 4c-16.667 -5.33301 -35.5 -9.66992 -56.5 -13.0029s-41.833 -5 -62.5 -5c-67.333 0 -117.666 16.833 -150.999 50.5s-50 78.834 -50 135.501c0 16.667 1.66699 36.334 5 59.001s8.66602 50.667 15.999 84l256 1202h166l-257 -1206c-6 -28 -10.167 -49.667 -12.5 -65
s-3.5 -28.333 -3.5 -39c0 -27.333 7.5 -48.166 22.5 -62.499s38.833 -21.5 71.5 -21.5c17.333 0 32.5 1 45.5 3s25.167 5 36.5 9zM467 1652h-123l289 327h161z" />
    <glyph glyph-name="Lcommaaccent" unicode="&#x13b;" horiz-adv-x="948" 
d="M619 -238c0 -59.333 -25.001 -106.833 -75.001 -142.5s-122.667 -53.5 -218 -53.5c-13.333 0 -27.666 0.5 -42.999 1.5s-30.333 2.5 -45 4.5l18 88c27.333 -4 52.666 -6 75.999 -6c58 0 100.833 8.33301 128.5 25s41.5 39 41.5 67c0 23.333 -9.5 41.833 -28.5 55.5
s-49.167 20.5 -90.5 20.5c-9.33301 0 -18.5 -0.333008 -27.5 -1s-18.167 -1.66699 -27.5 -3l39 182h-293l303 1434h174l-272 -1278h571l-33 -156h-354l-24 -104c24.667 0 47.834 -2.83301 69.501 -8.5s40.667 -14.167 57 -25.5s29.333 -25.333 39 -42s14.5 -36 14.5 -58z
" />
    <glyph glyph-name="lcommaaccent" unicode="&#x13c;" horiz-adv-x="530" 
d="M197 3c-18.667 7.33301 -35.667 18.3301 -51 32.9971c-33.333 34 -50 79.333 -50 136c0 16.667 1.66699 36.334 5 59.001s8.66602 50.667 15.999 84l256 1202h166l-257 -1206c-6 -28 -10.167 -49.667 -12.5 -65s-3.5 -28.333 -3.5 -39
c0 -27.333 7.5 -48.166 22.5 -62.499s38.833 -21.5 71.5 -21.5c17.333 0 32.5 1 45.5 3s25.167 5 36.5 9l-26 -131c-16.667 -5.33301 -34.5 -9.66602 -53.5 -12.999s-43.167 -5.33301 -72.5 -6l-21 -89c24.667 0 47.834 -2.83301 69.501 -8.5s40.667 -14.167 57 -25.5
s29.333 -25.333 39 -42s14.5 -36 14.5 -58c0 -59.333 -25 -106.833 -75 -142.5s-122.667 -53.5 -218 -53.5c-13.333 0 -27.666 0.5 -42.999 1.5s-30.333 2.5 -45 4.5l18 88c27.333 -4 52.666 -6 75.999 -6c58 0 100.833 8.33301 128.5 25s41.5 39 41.5 67
c0 23.333 -9.5 41.833 -28.5 55.5s-49.167 20.5 -90.5 20.5c-9.33301 0 -18.5 -0.333008 -27.5 -1s-18.167 -1.66699 -27.5 -3z" />
    <glyph glyph-name="Lcaron" unicode="&#x13d;" horiz-adv-x="965" 
d="M817 0h-743l303 1434h174l-272 -1278h571zM1094 1434l-221 -260h-123l172 260h172z" />
    <glyph glyph-name="lcaron" unicode="&#x13e;" horiz-adv-x="604" 
d="M416 4c-16.667 -5.33301 -35.5 -9.66992 -56.5 -13.0029s-41.833 -5 -62.5 -5c-67.333 0 -117.666 16.833 -150.999 50.5s-50 78.834 -50 135.501c0 16.667 1.66699 36.334 5 59.001s8.66602 50.667 15.999 84l256 1202h166l-257 -1206c-6 -28 -10.167 -49.667 -12.5 -65
s-3.5 -28.333 -3.5 -39c0 -27.333 7.5 -48.166 22.5 -62.499s38.833 -21.5 71.5 -21.5c17.333 0 32.5 1 45.5 3s25.167 5 36.5 9zM918 1516l-221 -260h-123l172 260h172z" />
    <glyph glyph-name="Ldot" unicode="&#x13f;" horiz-adv-x="965" 
d="M817 0h-743l303 1434h174l-272 -1278h571zM894 751c0 -28 -9.33301 -51.667 -28 -71s-42 -29 -70 -29c-12.667 0 -24.834 2.5 -36.501 7.5s-21.834 12 -30.501 21s-15.667 19.667 -21 32s-8 25.5 -8 39.5s2.66699 26.833 8 38.5s12.333 21.667 21 30s18.834 15 30.501 20
s23.834 7.5 36.501 7.5c13.333 0 25.833 -2.5 37.5 -7.5s22 -11.667 31 -20s16.167 -18.333 21.5 -30s8 -24.5 8 -38.5z" />
    <glyph glyph-name="ldot" unicode="&#x140;" horiz-adv-x="645" 
d="M416 4c-16.667 -5.33301 -35.5 -9.66992 -56.5 -13.0029s-41.833 -5 -62.5 -5c-67.333 0 -117.666 16.833 -150.999 50.5s-50 78.834 -50 135.501c0 16.667 1.66699 36.334 5 59.001s8.66602 50.667 15.999 84l256 1202h166l-257 -1206c-6 -28 -10.167 -49.667 -12.5 -65
s-3.5 -28.333 -3.5 -39c0 -27.333 7.5 -48.166 22.5 -62.499s38.833 -21.5 71.5 -21.5c17.333 0 32.5 1 45.5 3s25.167 5 36.5 9zM708 750.996c0 -28 -9.33301 -51.667 -28 -71s-42 -29 -70 -29c-12.667 0 -24.834 2.5 -36.501 7.5s-21.834 12 -30.501 21
s-15.667 19.667 -21 32s-8 25.5 -8 39.5s2.66699 26.833 8 38.5s12.333 21.667 21 30s18.834 15 30.501 20s23.834 7.5 36.501 7.5c13.333 0 25.833 -2.5 37.5 -7.5s22 -11.667 31 -20s16.167 -18.333 21.5 -30s8 -24.5 8 -38.5z" />
    <glyph glyph-name="Lslash" unicode="&#x141;" horiz-adv-x="948" 
d="M817 0h-743l125 592l-170 -74l30 158l174 76l144 682h174l-127 -600l315 145l-30 -156l-320 -149l-110 -518h571z" />
    <glyph glyph-name="lslash" unicode="&#x142;" horiz-adv-x="563" 
d="M315 311c-6 -28 -10.167 -49.6709 -12.5 -65.0039s-3.5 -28.333 -3.5 -39c0 -27.333 7.5 -48.166 22.5 -62.499s38.833 -21.5 71.5 -21.5c17.333 0 32.5 1 45.5 3s25.167 5 36.5 9l-26 -131c-16.667 -5.33301 -35.5 -9.66602 -56.5 -12.999s-41.833 -5 -62.5 -5
c-67.333 0 -117.666 16.833 -150.999 50.5s-50 78.834 -50 135.501c0 16.667 1.66699 36.334 5 59.001s8.66602 50.667 15.999 84l69 320l-170 -100l31 155l170 96l156 731h166l-134 -626l180 104l-32 -153l-180 -103z" />
    </font>
</defs>
</svg>
